<svg width="31" height="31" viewBox="0 0 31 31" fill="none" xmlns="http://www.w3.org/2000/svg">
<g clip-path="url(#clip0_3246_55322)">
<mask id="mask0_3246_55322" style="mask-type:luminance" maskUnits="userSpaceOnUse" x="0" y="1" width="31" height="29">
<path d="M30.375 1.41211H0.375V29.7521H30.375V1.41211Z" fill="white"/>
</mask>
<g mask="url(#mask0_3246_55322)">
<path d="M27.375 21.8824C27.375 22.7424 26.705 23.4524 25.875 23.4524C25.045 23.4524 24.375 22.7424 24.375 21.8824C24.375 21.0124 25.125 19.5224 25.875 18.7324C26.625 19.5124 27.375 21.0124 27.375 21.8824Z" fill="#0074FF"/>
</g>
<mask id="mask1_3246_55322" style="mask-type:luminance" maskUnits="userSpaceOnUse" x="0" y="1" width="31" height="29">
<path d="M30.375 1.41211H0.375V29.7521H30.375V1.41211Z" fill="white"/>
</mask>
<g mask="url(#mask1_3246_55322)">
<path d="M21.375 21.8824C21.375 22.7424 20.705 23.4524 19.875 23.4524C19.045 23.4524 18.375 22.7424 18.375 21.8824C18.375 21.0124 19.125 19.5224 19.875 18.7324C20.625 19.5124 21.375 21.0124 21.375 21.8824Z" fill="#0074FF"/>
</g>
<mask id="mask2_3246_55322" style="mask-type:luminance" maskUnits="userSpaceOnUse" x="0" y="1" width="31" height="29">
<path d="M30.375 1.41211H0.375V29.7521H30.375V1.41211Z" fill="white"/>
</mask>
<g mask="url(#mask2_3246_55322)">
<path d="M15.375 21.8824C15.375 22.7424 14.705 23.4524 13.875 23.4524C13.045 23.4524 12.375 22.7424 12.375 21.8824C12.375 21.0124 13.125 19.5224 13.875 18.7324C14.625 19.5124 15.375 21.0124 15.375 21.8824Z" fill="#0074FF"/>
</g>
<mask id="mask3_3246_55322" style="mask-type:luminance" maskUnits="userSpaceOnUse" x="0" y="1" width="31" height="29">
<path d="M30.375 1.41211H0.375V29.7521H30.375V1.41211Z" fill="white"/>
</mask>
<g mask="url(#mask3_3246_55322)">
<path d="M9.375 21.8824C9.375 22.7424 8.705 23.4524 7.875 23.4524C7.045 23.4524 6.375 22.7424 6.375 21.8824C6.375 21.0124 7.125 19.5224 7.875 18.7324C8.625 19.5124 9.375 21.0124 9.375 21.8824Z" fill="#0074FF"/>
</g>
<mask id="mask4_3246_55322" style="mask-type:luminance" maskUnits="userSpaceOnUse" x="0" y="1" width="31" height="29">
<path d="M30.375 1.41211H0.375V29.7521H30.375V1.41211Z" fill="white"/>
</mask>
<g mask="url(#mask4_3246_55322)">
<path d="M24.375 28.1725C24.375 29.0425 23.705 29.7525 22.875 29.7525C22.045 29.7525 21.375 29.0425 21.375 28.1725C21.375 27.3025 22.125 25.8125 22.875 25.0225C23.625 25.8125 24.375 27.3025 24.375 28.1725Z" fill="#0074FF"/>
</g>
<mask id="mask5_3246_55322" style="mask-type:luminance" maskUnits="userSpaceOnUse" x="0" y="1" width="31" height="29">
<path d="M30.375 1.41211H0.375V29.7521H30.375V1.41211Z" fill="white"/>
</mask>
<g mask="url(#mask5_3246_55322)">
<path d="M18.375 28.1725C18.375 29.0425 17.705 29.7525 16.875 29.7525C16.045 29.7525 15.375 29.0425 15.375 28.1725C15.375 27.3025 16.125 25.8125 16.875 25.0225C17.625 25.8125 18.375 27.3025 18.375 28.1725Z" fill="#0074FF"/>
</g>
<mask id="mask6_3246_55322" style="mask-type:luminance" maskUnits="userSpaceOnUse" x="0" y="1" width="31" height="29">
<path d="M30.375 1.41211H0.375V29.7521H30.375V1.41211Z" fill="white"/>
</mask>
<g mask="url(#mask6_3246_55322)">
<path d="M12.375 28.1725C12.375 29.0425 11.705 29.7525 10.875 29.7525C10.045 29.7525 9.375 29.0425 9.375 28.1725C9.375 27.3025 10.125 25.8125 10.875 25.0225C11.625 25.8125 12.375 27.3025 12.375 28.1725Z" fill="#0074FF"/>
</g>
<mask id="mask7_3246_55322" style="mask-type:luminance" maskUnits="userSpaceOnUse" x="0" y="1" width="31" height="29">
<path d="M30.375 1.41211H0.375V29.7521H30.375V1.41211Z" fill="white"/>
</mask>
<g mask="url(#mask7_3246_55322)">
<path d="M6.375 28.1725C6.375 29.0425 5.705 29.7525 4.875 29.7525C4.045 29.7525 3.375 29.0425 3.375 28.1725C3.375 27.3025 4.125 25.8125 4.875 25.0225C5.625 25.8125 6.375 27.3025 6.375 28.1725Z" fill="#0074FF"/>
</g>
<mask id="mask8_3246_55322" style="mask-type:luminance" maskUnits="userSpaceOnUse" x="0" y="1" width="31" height="29">
<path d="M30.375 1.41211H0.375V29.7521H30.375V1.41211Z" fill="white"/>
</mask>
<g mask="url(#mask8_3246_55322)">
<path d="M27.375 10.8621C27.325 10.8621 27.275 10.8721 27.225 10.8821C27.325 10.3621 27.375 9.83211 27.375 9.28211C27.375 4.93211 24.015 1.41211 19.875 1.41211C16.105 1.41211 12.985 4.34211 12.465 8.15211C11.735 7.87211 10.945 7.70211 10.125 7.70211C7.085 7.70211 4.515 9.81211 3.675 12.7121C3.365 12.5421 3.005 12.4321 2.625 12.4321C1.385 12.4321 0.375 13.4921 0.375 14.7921C0.375 16.0921 1.385 17.1521 2.625 17.1521H27.375C29.035 17.1521 30.375 15.7421 30.375 14.0021C30.375 12.2721 29.035 10.8621 27.375 10.8621Z" fill="#0074FF"/>
</g>
</g>
<defs>
<clipPath id="clip0_3246_55322">
<rect width="30" height="30" fill="white" transform="translate(0.375 0.582031)"/>
</clipPath>
</defs>
</svg>
