<svg width="20" height="20" viewBox="0 0 20 20" fill="none" xmlns="http://www.w3.org/2000/svg">
<g id="boat">
<path id="Path" d="M18.7867 12.3015C18.7866 12.2997 18.7875 12.298 18.7873 12.2963C18.7872 12.2946 18.7862 12.2934 18.7861 12.2919C18.7537 3.86017 11.1428 0 8.82806 0C8.57568 0 8.35198 0.161438 8.27248 0.400543C8.19237 0.639801 8.27477 0.903473 8.47665 1.05453C9.8156 2.05933 10.7055 4.07928 10.8566 6.45905C11.0935 10.1883 9.52874 11.861 8.82806 13.5988L18.1867 12.9263C18.1924 12.9265 18.1973 12.9297 18.2031 12.9297C18.2151 12.9297 18.2253 12.9236 18.2372 12.9228L18.2447 12.9222C18.5401 12.7994 18.7891 12.8148 18.7867 12.3015Z" fill="#0095FF"/>
<path id="Path_2" d="M8.49233 2.44962C5.99111 4.20056 2.65233 8.38696 1.23326 13.3548C1.18123 13.5385 1.22121 13.7365 1.34206 13.8853C1.4536 14.0226 1.6213 14.1015 1.79692 14.1015C1.81066 14.1015 1.825 14.1009 1.83873 14.0999L8.82817 13.5988V2.35455C8.7116 2.3544 8.59441 2.37805 8.49233 2.44962Z" fill="#3AAAFF"/>
<path id="Path_3" d="M5.3125 0C4.98871 0 4.72656 0.262146 4.72656 0.585938C4.72656 2.20123 6.04095 3.51562 7.65625 3.51562H8.82812V0H5.3125Z" fill="#FF4B00"/>
<path id="Path_4" d="M9.41406 0.585938V15.3555C9.41406 15.6836 9.15634 15.9415 8.82812 15.9415C8.49991 15.9415 8.24219 15.6836 8.24219 15.3555V0.585938C8.24219 0.257721 8.49991 0 8.82812 0C9.15634 0 9.41406 0.257721 9.41406 0.585938Z" fill="#725D57"/>
<path id="Path_5" d="M8.82812 15.9415V0C9.15634 0 9.41406 0.257721 9.41406 0.585938V15.3555C9.41406 15.6836 9.15634 15.9415 8.82812 15.9415Z" fill="#53433F"/>
<path id="Path_6" d="M18.6484 15.0742L15.4844 18.7813C15.2032 18.8985 14.9337 19.039 14.6876 19.2265C13.3166 18.1953 11.4181 18.1836 10.0353 19.2032H9.95323C9.60166 18.9453 9.2266 18.7578 8.8282 18.6172C7.8321 18.3125 6.73057 18.4062 5.80467 18.9102L4.66804 18.8399C3.94142 18.4883 3.1211 18.3829 2.33604 18.5117L1.25785 16.1053C1.18751 15.9297 1.19926 15.7187 1.2931 15.5547C1.38679 15.3906 1.56257 15.2852 1.7501 15.2734L8.8282 14.7696L18.1564 14.1016C18.4025 14.0781 18.6251 14.2187 18.7305 14.4296C18.836 14.6406 18.8009 14.8866 18.6484 15.0742Z" fill="#EDE9E8"/>
<path id="Path_7" d="M18.6484 15.0742L15.4843 18.7813C15.2031 18.8985 14.9336 19.039 14.6875 19.2265C13.3165 18.1953 11.418 18.1836 10.0352 19.2032H9.95316C9.60159 18.9453 9.22653 18.7578 8.82812 18.6172V14.7696L18.1563 14.1016C18.4024 14.0781 18.625 14.2187 18.7305 14.4296C18.8359 14.6406 18.8008 14.8866 18.6484 15.0742Z" fill="#D2C5C2"/>
<path id="Path_8" d="M19.8242 19.8242C19.7188 19.9414 19.5663 20 19.4141 20C19.2618 20 19.1093 19.9414 19.0039 19.8242C17.9727 18.7929 16.1288 18.7929 15.0977 19.8242C14.875 20.0586 14.5001 20.0586 14.2773 19.8242C13.2109 18.7695 11.4766 18.7695 10.4102 19.8242C10.1875 20.0586 9.81262 20.0586 9.58984 19.8242C9.36722 19.6016 9.10934 19.4258 8.82812 19.2969C7.80853 18.8164 6.55472 18.9922 5.72266 19.8242C5.50003 20.0586 5.12497 20.0586 4.90234 19.8242C3.87115 18.7929 2.06635 18.7929 1.03516 19.8242C0.812531 20.0586 0.398407 20.0586 0.175781 19.8242C-0.0585938 19.6016 -0.0585938 19.2265 0.175781 19.0039C1.55853 17.6094 3.78906 17.4922 5.3125 18.6406C6.33194 17.8671 7.65625 17.668 8.82812 18.0429C9.23813 18.1719 9.63669 18.3711 10 18.6406C11.3828 17.5977 13.3046 17.5977 14.6875 18.6406C16.2109 17.4922 18.4413 17.6094 19.8241 19.0039C20.0586 19.2265 20.0586 19.6016 19.8242 19.8242Z" fill="#A8EBFA"/>
<path id="Path_9" d="M19.8242 19.8242C19.7188 19.9414 19.5663 20 19.4141 20C19.2618 20 19.1093 19.9414 19.0039 19.8242C17.9727 18.7929 16.1288 18.7929 15.0977 19.8242C14.875 20.0586 14.5001 20.0586 14.2773 19.8242C13.2109 18.7695 11.4766 18.7695 10.4102 19.8242C10.1875 20.0586 9.81262 20.0586 9.58984 19.8242C9.36722 19.6016 9.10934 19.4258 8.82812 19.2969V18.0429C9.23828 18.1719 9.63669 18.3711 10 18.6406C11.3828 17.5977 13.3047 17.5977 14.6875 18.6406C16.2109 17.4922 18.4413 17.6094 19.8242 19.0039C20.0586 19.2265 20.0586 19.6016 19.8242 19.8242Z" fill="#76E2F8"/>
</g>
</svg>
