<svg width="31" height="31" viewBox="0 0 31 31" fill="none" xmlns="http://www.w3.org/2000/svg">
<g clip-path="url(#clip0_3246_55326)">
<mask id="mask0_3246_55326" style="mask-type:luminance" maskUnits="userSpaceOnUse" x="0" y="0" width="31" height="31">
<path d="M30.375 0.532227H0.375V30.6322H30.375V0.532227Z" fill="white"/>
</mask>
<g mask="url(#mask0_3246_55326)">
<path d="M26.885 2.66211H3.865C1.935 2.66211 0.375 4.22211 0.375 6.15211V9.36211H30.375V6.15211C30.375 4.22211 28.815 2.66211 26.885 2.66211Z" fill="#FF3333"/>
</g>
<mask id="mask1_3246_55326" style="mask-type:luminance" maskUnits="userSpaceOnUse" x="0" y="0" width="31" height="31">
<path d="M30.375 0.532227H0.375V30.6322H30.375V0.532227Z" fill="white"/>
</mask>
<g mask="url(#mask1_3246_55326)">
<path d="M0.375 9.3623V27.1423C0.375 29.0723 1.935 30.6323 3.865 30.6323H26.875C28.805 30.6323 30.365 29.0723 30.365 27.1423V9.3623H0.375Z" fill="#FCF8E6"/>
</g>
<mask id="mask2_3246_55326" style="mask-type:luminance" maskUnits="userSpaceOnUse" x="0" y="0" width="31" height="31">
<path d="M30.375 0.532227H0.375V30.6322H30.375V0.532227Z" fill="white"/>
</mask>
<g mask="url(#mask2_3246_55326)">
<path d="M14.165 13.9424H11.625C11.475 13.9424 11.345 14.0624 11.345 14.2224V16.7624C11.345 16.9124 11.465 17.0424 11.625 17.0424H14.165C14.315 17.0424 14.445 16.9224 14.445 16.7624V14.2224C14.445 14.0624 14.315 13.9424 14.165 13.9424Z" fill="#3E5052"/>
<path d="M19.1249 13.9424H16.5849C16.4349 13.9424 16.3049 14.0624 16.3049 14.2224V16.7624C16.3049 16.9124 16.4249 17.0424 16.5849 17.0424H19.1249C19.2749 17.0424 19.4049 16.9224 19.4049 16.7624V14.2224C19.3949 14.0624 19.2749 13.9424 19.1249 13.9424Z" fill="#3E5052"/>
<path d="M24.0751 13.9424H21.5351C21.3851 13.9424 21.2551 14.0624 21.2551 14.2224V16.7624C21.2551 16.9124 21.3751 17.0424 21.5351 17.0424H24.0751C24.2251 17.0424 24.3551 16.9224 24.3551 16.7624V14.2224C24.3551 14.0624 24.2251 13.9424 24.0751 13.9424Z" fill="#3E5052"/>
<path d="M9.21502 18.7324H6.67502C6.52502 18.7324 6.39502 18.8524 6.39502 19.0124V21.5524C6.39502 21.7024 6.51502 21.8324 6.67502 21.8324H9.21502C9.36502 21.8324 9.49502 21.7124 9.49502 21.5524V19.0124C9.48502 18.8524 9.36502 18.7324 9.21502 18.7324Z" fill="#3E5052"/>
<path d="M14.165 18.7324H11.625C11.475 18.7324 11.345 18.8524 11.345 19.0124V21.5524C11.345 21.7024 11.465 21.8324 11.625 21.8324H14.165C14.315 21.8324 14.445 21.7124 14.445 21.5524V19.0124C14.445 18.8524 14.315 18.7324 14.165 18.7324Z" fill="#3E5052"/>
<path d="M19.1249 18.7324H16.5849C16.4349 18.7324 16.3049 18.8524 16.3049 19.0124V21.5524C16.3049 21.7024 16.4249 21.8324 16.5849 21.8324H19.1249C19.2749 21.8324 19.4049 21.7124 19.4049 21.5524V19.0124C19.3949 18.8524 19.2749 18.7324 19.1249 18.7324Z" fill="#3E5052"/>
<path d="M24.0751 18.7324H21.5351C21.3851 18.7324 21.2551 18.8524 21.2551 19.0124V21.5524C21.2551 21.7024 21.3751 21.8324 21.5351 21.8324H24.0751C24.2251 21.8324 24.3551 21.7124 24.3551 21.5524V19.0124C24.3551 18.8524 24.2251 18.7324 24.0751 18.7324Z" fill="#3E5052"/>
<path d="M9.21502 23.5225H6.67502C6.52502 23.5225 6.39502 23.6425 6.39502 23.8025V26.3425C6.39502 26.4925 6.51502 26.6225 6.67502 26.6225H9.21502C9.36502 26.6225 9.49502 26.5025 9.49502 26.3425V23.8025C9.48502 23.6425 9.36502 23.5225 9.21502 23.5225Z" fill="#3E5052"/>
<path d="M14.165 23.5225H11.625C11.475 23.5225 11.345 23.6425 11.345 23.8025V26.3425C11.345 26.4925 11.465 26.6225 11.625 26.6225H14.165C14.315 26.6225 14.445 26.5025 14.445 26.3425V23.8025C14.445 23.6425 14.315 23.5225 14.165 23.5225Z" fill="#3E5052"/>
<path d="M19.1249 23.5225H16.5849C16.4349 23.5225 16.3049 23.6425 16.3049 23.8025V26.3425C16.3049 26.4925 16.4249 26.6225 16.5849 26.6225H19.1249C19.2749 26.6225 19.4049 26.5025 19.4049 26.3425V23.8025C19.3949 23.6425 19.2749 23.5225 19.1249 23.5225Z" fill="#3E5052"/>
<path d="M24.0751 23.5225H21.5351C21.3851 23.5225 21.2551 23.6425 21.2551 23.8025V26.3425C21.2551 26.4925 21.3751 26.6225 21.5351 26.6225H24.0751C24.2251 26.6225 24.3551 26.5025 24.3551 26.3425V23.8025C24.3551 23.6425 24.2251 23.5225 24.0751 23.5225Z" fill="#3E5052"/>
</g>
<mask id="mask3_3246_55326" style="mask-type:luminance" maskUnits="userSpaceOnUse" x="0" y="0" width="31" height="31">
<path d="M30.375 0.532227H0.375V30.6322H30.375V0.532227Z" fill="white"/>
</mask>
<g mask="url(#mask3_3246_55326)">
<path d="M8.94511 5.03176C8.94511 5.99176 8.16511 6.76176 7.21511 6.76176C6.25511 6.76176 5.48511 5.98176 5.48511 5.03176C5.48511 4.07176 6.26511 3.30176 7.21511 3.30176C8.16511 3.30176 8.94511 4.07176 8.94511 5.03176Z" fill="#F7F7F7"/>
</g>
<mask id="mask4_3246_55326" style="mask-type:luminance" maskUnits="userSpaceOnUse" x="0" y="0" width="31" height="31">
<path d="M30.375 0.532227H0.375V30.6322H30.375V0.532227Z" fill="white"/>
</mask>
<g mask="url(#mask4_3246_55326)">
<path d="M7.20491 0.532227C6.55491 0.532227 6.03491 1.05223 6.03491 1.70223V4.90223C6.03491 5.55223 6.55491 6.07223 7.20491 6.07223C7.85491 6.07223 8.37491 5.54223 8.37491 4.90223V1.70223C8.37491 1.05223 7.85491 0.532227 7.20491 0.532227Z" fill="#A3BEDA"/>
</g>
<mask id="mask5_3246_55326" style="mask-type:luminance" maskUnits="userSpaceOnUse" x="0" y="0" width="31" height="31">
<path d="M30.375 0.532227H0.375V30.6322H30.375V0.532227Z" fill="white"/>
</mask>
<g mask="url(#mask5_3246_55326)">
<path d="M25.2749 5.03176C25.2749 5.99176 24.4949 6.76176 23.5449 6.76176C22.5849 6.76176 21.8149 5.98176 21.8149 5.03176C21.8149 4.07176 22.5949 3.30176 23.5449 3.30176C24.4949 3.30176 25.2749 4.07176 25.2749 5.03176Z" fill="#F7F7F7"/>
</g>
<mask id="mask6_3246_55326" style="mask-type:luminance" maskUnits="userSpaceOnUse" x="0" y="0" width="31" height="31">
<path d="M30.375 0.532227H0.375V30.6322H30.375V0.532227Z" fill="white"/>
</mask>
<g mask="url(#mask6_3246_55326)">
<path d="M23.545 0.532227C22.895 0.532227 22.375 1.05223 22.375 1.70223V4.90223C22.375 5.55223 22.895 6.07223 23.545 6.07223C24.195 6.07223 24.715 5.55223 24.715 4.90223V1.70223C24.705 1.05223 24.185 0.532227 23.545 0.532227Z" fill="#A3BEDA"/>
</g>
</g>
<defs>
<clipPath id="clip0_3246_55326">
<rect width="30" height="30" fill="white" transform="translate(0.375 0.582031)"/>
</clipPath>
</defs>
</svg>
