<svg width="22" height="22" viewBox="0 0 22 22" fill="none" xmlns="http://www.w3.org/2000/svg">
<path fill-rule="evenodd" clip-rule="evenodd" d="M10.4403 17.7852C12.4797 19.4923 15.6185 20.262 15.6185 20.262C15.6185 20.262 14.3082 17.3076 12.2688 15.6006C12.136 15.4895 12.0058 15.3841 11.8777 15.2838C12.4124 15.255 12.9953 15.1962 13.627 15.1027C17.2539 14.5657 20.9225 12.0376 20.9225 12.0376C20.9225 12.0376 16.8805 10.7455 13.3146 11.1825C13.4401 11.0615 13.5668 10.9371 13.6951 10.8087C16.7376 7.76623 18.6766 3.06793 18.6766 3.06793C18.6766 3.06793 13.9783 5.00693 10.9358 8.04945C10.8075 8.17775 10.6831 8.30451 10.5621 8.42988C10.9991 4.86404 9.70701 0.822117 9.70701 0.822117C9.70701 0.822117 7.17885 4.49067 6.64186 8.1175C6.54834 8.7493 6.48954 9.3322 6.4607 9.86682C6.36048 9.73884 6.25507 9.60854 6.14398 9.47579C4.43697 7.43633 1.48264 6.12606 1.48264 6.12606C1.48264 6.12606 2.25235 9.26485 3.95939 11.3043C4.4004 11.8313 4.82036 12.2662 5.21145 12.614C3.56546 12.6224 1.84597 13.3574 1.84597 13.3574C1.84597 13.3574 3.68393 14.3826 5.41351 14.4732C5.92878 14.5002 6.37354 14.4864 6.74521 14.4405C6.27559 15.0431 5.53371 15.9348 4.62026 16.8267C3.44313 17.976 1.97621 18.9309 1.96154 18.9404C1.79081 19.051 1.74209 19.2791 1.85268 19.4498C1.86703 19.4721 1.88354 19.4923 1.90158 19.5103C2.0218 19.6305 2.21352 19.6548 2.362 19.5588C2.42434 19.5184 3.90379 18.5558 5.13489 17.3538C6.07761 16.4334 6.833 15.528 7.31617 14.9084C7.26069 15.2977 7.24215 15.773 7.2714 16.3311C7.36199 18.0606 8.38711 19.8986 8.38711 19.8986C8.38711 19.8986 9.12224 18.1792 9.13061 16.5331C9.47839 16.9242 9.91334 17.3442 10.4403 17.7852Z" fill="#E04500"/>
</svg>
