<?xml version="1.0" encoding="UTF-8"?>
<svg xmlns="http://www.w3.org/2000/svg" width="30" height="30" xmlns:xlink="http://www.w3.org/1999/xlink" version="1.1" viewBox="0 0 30 30">
  <defs>
    <style>
      .cls-1, .cls-2, .cls-3 {
        fill: none;
      }

      .cls-2 {
        stroke-width: 2px;
      }

      .cls-2, .cls-3 {
        stroke: #ff7b00;
        stroke-miterlimit: 10;
      }

      .cls-4 {
        clip-path: url(#clippath-1);
      }

      .cls-5 {
        clip-path: url(#clippath-3);
      }

      .cls-6 {
        clip-path: url(#clippath-4);
      }

      .cls-7 {
        clip-path: url(#clippath-2);
      }

      .cls-8 {
        clip-path: url(#clippath-7);
      }

      .cls-9 {
        clip-path: url(#clippath-6);
      }

      .cls-10 {
        clip-path: url(#clippath-5);
      }

      .cls-11 {
        fill: #eaaf3b;
      }

      .cls-3 {
        stroke-width: 1.2px;
      }

      .cls-12 {
        fill: #ffae00;
      }

      .cls-13 {
        fill: #ff7b00;
      }

      .cls-14 {
        display: none;
      }
    </style>
    <clipPath id="clippath-1">
      <rect class="cls-1" x="-2" y="4.3" width="30" height="30"/>
    </clipPath>
    <clipPath id="clippath-2">
      <rect class="cls-1" x="-2" y="4.3" width="30" height="30"/>
    </clipPath>
    <clipPath id="clippath-3">
      <rect class="cls-1" x="-2" y="4.3" width="30" height="30"/>
    </clipPath>
    <clipPath id="clippath-4">
      <rect class="cls-1" x="-2" y="4.3" width="30" height="30"/>
    </clipPath>
    <clipPath id="clippath-5">
      <rect class="cls-1" x="-2" y="4.3" width="30" height="30"/>
    </clipPath>
    <clipPath id="clippath-6">
      <rect class="cls-1" x="-2" y="4.3" width="30" height="30"/>
    </clipPath>
    <clipPath id="clippath-7">
      <rect class="cls-1" x="-2" y="4.3" width="30" height="30"/>
    </clipPath>
  </defs>
  <!-- Generator: Adobe Illustrator 28.6.0, SVG Export Plug-In . SVG Version: 1.2.0 Build 709)  -->
  <g>
    <g id="_レイヤー_1">
      <g id="_レイヤー_2" class="cls-14">
        <g>
          <circle class="cls-12" cx="541.8" cy="751.3" r="7.2"/>
          <g>
            <polygon class="cls-12" points="541.8 739.9 540.2 742.6 543.4 742.6 541.8 739.9"/>
            <polygon class="cls-12" points="541.8 762.8 543.4 760 540.2 760 541.8 762.8"/>
          </g>
          <g>
            <polygon class="cls-12" points="536.1 741.4 536.1 744.6 538.9 743 536.1 741.4"/>
            <polygon class="cls-12" points="547.6 761.2 547.6 758 544.8 759.6 547.6 761.2"/>
          </g>
          <g>
            <polygon class="cls-12" points="531.9 745.6 533.5 748.4 535.1 745.6 531.9 745.6"/>
            <polygon class="cls-12" points="551.7 757 550.1 754.3 548.5 757 551.7 757"/>
          </g>
          <g>
            <polygon class="cls-12" points="530.4 751.3 533.1 752.9 533.1 749.7 530.4 751.3"/>
            <polygon class="cls-12" points="553.3 751.3 550.5 749.7 550.5 752.9 553.3 751.3"/>
          </g>
          <g>
            <polygon class="cls-12" points="531.9 757 535.1 757 533.5 754.3 531.9 757"/>
            <polygon class="cls-12" points="551.7 745.6 548.5 745.6 550.1 748.4 551.7 745.6"/>
          </g>
          <g>
            <polygon class="cls-12" points="536.1 761.2 538.9 759.6 536.1 758 536.1 761.2"/>
            <polygon class="cls-12" points="547.6 741.4 544.8 743 547.6 744.6 547.6 741.4"/>
          </g>
        </g>
      </g>
      <g>
        <g class="cls-4">
          <path class="cls-13" d="M6.8,11.1c0,1.1-.9,2-2,2s-2-.9-2-2,.9-2,2-2,2,.9,2,2"/>
        </g>
        <g class="cls-7">
          <circle class="cls-3" cx="4.8" cy="11.1" r="2"/>
        </g>
        <rect class="cls-1" x="-2" y="4.3" width="30" height="30"/>
        <path class="cls-13" d="M13.6,22.7c0,1.1-.9,2-2,2s-2-.9-2-2,.9-2,2-2,2,.9,2,2"/>
        <g class="cls-5">
          <circle class="cls-3" cx="11.5" cy="22.7" r="2"/>
        </g>
        <g class="cls-6">
          <path class="cls-13" d="M20.2,17.7c0,1.1-.9,2-2,2s-2-.9-2-2,.9-2,2-2,2,.9,2,2"/>
        </g>
        <g class="cls-10">
          <circle class="cls-3" cx="18.2" cy="17.7" r="2"/>
        </g>
        <g class="cls-9">
          <path class="cls-13" d="M26.3,25.9c0,1.1-.9,2-2,2s-2-.9-2-2,.9-2,2-2,2,.9,2,2"/>
        </g>
        <g class="cls-8">
          <circle class="cls-3" cx="24.3" cy="25.9" r="2"/>
        </g>
        <rect class="cls-1" x="-2" y="4.3" width="30" height="30"/>
        <polyline class="cls-2" points="4.8 11.1 11.5 22.7 18.2 17.7 24.3 25.9"/>
      </g>
      <g>
        <circle class="cls-11" cx="17.4" cy="1.4" r=".6"/>
        <circle class="cls-11" cx="8.7" cy="3.4" r=".6"/>
        <circle class="cls-11" cx="26.1" cy="3.4" r=".6"/>
        <polygon class="cls-11" points="21.2 8.3 17.4 1.4 13.6 8.3 8.7 3.4 8.7 13.8 17.4 13.8 26.1 13.8 26.1 3.4 21.2 8.3"/>
      </g>
    </g>
  </g>
</svg>