<?xml version="1.0" encoding="utf-8"?>
<!-- Generator: Adobe Illustrator 28.3.0, SVG Export Plug-In . SVG Version: 6.00 Build 0)  -->
<svg version="1.1" id="_レイヤー_1" xmlns="http://www.w3.org/2000/svg" xmlns:xlink="http://www.w3.org/1999/xlink" x="0px"
	 y="0px" width="22px" height="22px" viewBox="0 0 22 22" style="enable-background:new 0 0 22 22;" xml:space="preserve">
<style type="text/css">
	.st0{display:none;}
	.st1{display:inline;}
	.st2{fill:#FFAE00;}
	.st3{fill:#E41D23;}
	.st4{fill:#FFFFFF;}
	.st5{fill:#2457FF;}
</style>
<g id="_レイヤー_2" class="st0">
	<g class="st1">
		<circle class="st2" cx="537.8" cy="747.3" r="7.2"/>
		<g>
			<polygon class="st2" points="537.8,735.9 536.2,738.6 539.4,738.6 			"/>
			<polygon class="st2" points="537.8,758.8 539.4,756 536.2,756 			"/>
		</g>
		<g>
			<polygon class="st2" points="532.1,737.4 532.1,740.6 534.9,739 			"/>
			<polygon class="st2" points="543.6,757.2 543.6,754 540.8,755.6 			"/>
		</g>
		<g>
			<polygon class="st2" points="527.9,741.6 529.5,744.4 531.1,741.6 			"/>
			<polygon class="st2" points="547.7,753 546.1,750.3 544.5,753 			"/>
		</g>
		<g>
			<polygon class="st2" points="526.4,747.3 529.1,748.9 529.1,745.7 			"/>
			<polygon class="st2" points="549.3,747.3 546.5,745.7 546.5,748.9 			"/>
		</g>
		<g>
			<polygon class="st2" points="527.9,753 531.1,753 529.5,750.3 			"/>
			<polygon class="st2" points="547.7,741.6 544.5,741.6 546.1,744.4 			"/>
		</g>
		<g>
			<polygon class="st2" points="532.1,757.2 534.9,755.6 532.1,754 			"/>
			<polygon class="st2" points="543.6,737.4 540.8,739 543.6,740.6 			"/>
		</g>
	</g>
</g>
<g>
	<circle class="st3" cx="10.89" cy="7.09" r="6.1"/>
	<path class="st4" d="M10.13,3v5.8h3.91v1.53H8.45V3H10.13z"/>
	<path class="st5" d="M9.61,14.48c-0.67-0.12-1.32-0.32-1.92-0.61c-1.61,3.29-4.91,5.38-7.64,5.8l0.3,1.98
		c1.6-0.24,3.15-0.86,4.54-1.76l3.09,0.68l-0.32-3.08C8.45,16.57,9.11,15.56,9.61,14.48z"/>
	<path class="st3" d="M21.13,14.84c0.69-0.71,0.69-1.84-0.01-2.53c-0.63-0.63-1.61-0.69-2.31-0.2c-0.48-0.37-1.02-0.7-1.6-0.99
		c-0.37,0.59-0.83,1.11-1.34,1.57c2.21,0.98,3.51,2.46,4.18,4.71l1.92-0.57C21.74,16.11,21.46,15.45,21.13,14.84z"/>
</g>
</svg>
