<?xml version="1.0" encoding="utf-8"?>
<!-- Generator: Adobe Illustrator 28.3.0, SVG Export Plug-In . SVG Version: 6.00 Build 0)  -->
<svg version="1.1" id="_レイヤー_1" xmlns="http://www.w3.org/2000/svg" xmlns:xlink="http://www.w3.org/1999/xlink" x="0px"
	 y="0px" width="22px" height="22px" viewBox="0 0 22 22" style="enable-background:new 0 0 22 22;" xml:space="preserve">
<style type="text/css">
	.st0{display:none;}
	.st1{display:inline;}
	.st2{fill:#FFAE00;}
	.st3{fill:#7581FF;}
	.st4{fill:#A08159;}
</style>
<g id="_レイヤー_2" class="st0">
	<g class="st1">
		<circle class="st2" cx="537.8" cy="747.3" r="7.2"/>
		<g>
			<polygon class="st2" points="537.8,735.9 536.2,738.6 539.4,738.6 			"/>
			<polygon class="st2" points="537.8,758.8 539.4,756 536.2,756 			"/>
		</g>
		<g>
			<polygon class="st2" points="532.1,737.4 532.1,740.6 534.9,739 			"/>
			<polygon class="st2" points="543.6,757.2 543.6,754 540.8,755.6 			"/>
		</g>
		<g>
			<polygon class="st2" points="527.9,741.6 529.5,744.4 531.1,741.6 			"/>
			<polygon class="st2" points="547.7,753 546.1,750.3 544.5,753 			"/>
		</g>
		<g>
			<polygon class="st2" points="526.4,747.3 529.1,748.9 529.1,745.7 			"/>
			<polygon class="st2" points="549.3,747.3 546.5,745.7 546.5,748.9 			"/>
		</g>
		<g>
			<polygon class="st2" points="527.9,753 531.1,753 529.5,750.3 			"/>
			<polygon class="st2" points="547.7,741.6 544.5,741.6 546.1,744.4 			"/>
		</g>
		<g>
			<polygon class="st2" points="532.1,757.2 534.9,755.6 532.1,754 			"/>
			<polygon class="st2" points="543.6,737.4 540.8,739 543.6,740.6 			"/>
		</g>
	</g>
</g>
<g>
	<polygon class="st3" points="19.51,18.33 18.92,17.58 20.02,16.72 18.88,15.25 20.34,14.11 19.21,12.64 20.67,11.49 19.82,10.4 
		20.57,9.82 22,11.66 20.54,12.8 21.67,14.27 20.21,15.42 21.35,16.89 	"/>
	<polygon class="st3" points="2.49,18.33 0.65,16.89 1.79,15.42 0.33,14.27 1.46,12.8 0,11.66 1.43,9.82 2.18,10.4 1.33,11.49 
		2.79,12.64 1.66,14.11 3.12,15.25 1.98,16.72 3.07,17.58 	"/>
</g>
<path class="st3" d="M11,0.05L0.95,8.8h3.61v9.39h12.88V8.8h3.61L11,0.05z M12.9,14.16H9.1v-3.8h3.8
	C12.9,10.36,12.9,14.16,12.9,14.16z"/>
<polygon class="st3" points="18.52,4.97 18.37,3.48 16.4,3.68 16.21,1.71 14.71,1.86 14.62,0.91 17.07,0.66 17.26,2.64 19.23,2.43 
	19.47,4.88 "/>
<rect y="19.66" class="st4" width="22" height="1.59"/>
<rect x="-5.02" y="9.11" class="st3" width="0.1" height="0.03"/>
</svg>
