<?xml version="1.0" encoding="UTF-8"?>
<svg id="_レイヤー_1" data-name="レイヤー_1" xmlns="http://www.w3.org/2000/svg" version="1.1" viewBox="0 0 31 31">
  <!-- Generator: Adobe Illustrator 30.0.0, SVG Export Plug-In . SVG Version: 2.1.1 Build 123)  -->
  <defs>
    <style>
      .st0 {
        fill: #628bb3;
        fill-rule: evenodd;
      }
    </style>
  </defs>
  <path class="st0" d="M1.7,6.7v1.5h1.5l2.2-3.7-3.7,2.2Z"/>
  <path class="st0" d="M3.9,12.9l3.7-2.2-2.2,3.7h-1.5v-1.5Z"/>
  <path class="st0" d="M1.7,19.2v1.5h1.5l2.2-3.7-3.7,2.2Z"/>
  <path class="st0" d="M3.9,25.5l3.7-2.2-2.2,3.7h-1.5v-1.5Z"/>
  <path class="st0" d="M23.3,6.7l3.7-2.2-2.2,3.7h-1.5v-1.5Z"/>
  <path class="st0" d="M25.5,12.9l3.7-2.2-2.2,3.7h-1.5v-1.5Z"/>
  <path class="st0" d="M23.3,19.2l3.7-2.2-2.2,3.7h-1.5v-1.5Z"/>
  <path class="st0" d="M25.5,25.5l3.7-2.2-2.2,3.7h-1.5v-1.5Z"/>
  <path class="st0" d="M8.2,20.5c0-3.7,3-6.8,6.8-6.8s6.8,3,6.8,6.8-3,6.8-6.8,6.8-6.8-3-6.8-6.8Z"/>
  <path class="st0" d="M9.4,9.4c0-3.1,2.5-5.6,5.6-5.6s5.6,2.5,5.6,5.6-2.5,5.6-5.6,5.6-5.6-2.5-5.6-5.6Z"/>
</svg>