<?xml version="1.0" encoding="UTF-8"?>
<svg id="_レイヤー_1" data-name="レイヤー_1" xmlns="http://www.w3.org/2000/svg" version="1.1" viewBox="0 0 30 30">
  <!-- Generator: Adobe Illustrator 29.8.1, SVG Export Plug-In . SVG Version: 2.1.1 Build 2)  -->
  <defs>
    <style>
      .st0 {
        fill: #0074ff;
      }
    </style>
  </defs>
  <path class="st0" d="M12.3,11.6c-1.8,0-3.9,0-6.3,0-.9,0-1.5-.7-1.5-1.6,0-.9.7-1.5,1.6-1.5h0c5.1,0,8.9,0,11.7,0,1,0,1.9,0,2.6,0s1.2,0,1.7-.4c.6-.5,1-1.5.8-2.4-.2-1.4-1.8-2.7-3.4-2.4-1.4.2-2.4,1.4-2.5,2.9,0,.9-.8,1.5-1.7,1.4-.9,0-1.5-.8-1.4-1.7.2-2.9,2.3-5.3,5.1-5.7,3.6-.6,6.5,2.1,7,5,.3,2-.4,4.2-2,5.3-1.4,1.1-3,1.1-3.7,1.1s-1.5,0-2.5,0c-1.5,0-3.3,0-5.5,0Z"/>
  <path class="st0" d="M24.6,16.7H1.6C.7,16.7,0,16,0,15.2s.7-1.6,1.6-1.6h23.1c1.8,0,2.2-1.8,2.3-2.8,0-.9.8-1.5,1.7-1.4.9,0,1.5.8,1.4,1.7-.3,3.5-2.4,5.7-5.4,5.7Z"/>
  <path class="st0" d="M19.4,30c-.9,0-1.6-.7-1.6-1.6s.7-1.6,1.6-1.6c2.2,0,3.5-1,3.5-2.7s-1.1-2.8-3.3-2.8H4.5c-.9,0-1.6-.7-1.6-1.6s.7-1.6,1.6-1.6h15.2c3.9,0,6.4,2.3,6.4,5.9s-2.1,5.8-6.6,5.8Z"/>
</svg>