<svg width="31" height="31" viewBox="0 0 31 31" fill="none" xmlns="http://www.w3.org/2000/svg">
<g clip-path="url(#clip0_3246_55327)">
<mask id="mask0_3246_55327" style="mask-type:luminance" maskUnits="userSpaceOnUse" x="0" y="0" width="31" height="31">
<path d="M30.375 0.582031H0.375V30.582H30.375V0.582031Z" fill="white"/>
</mask>
<g mask="url(#mask0_3246_55327)">
<path d="M30.3749 29.392H1.56494V0.582031" stroke="#FF7B00" stroke-width="2.388" stroke-miterlimit="10"/>
</g>
<mask id="mask1_3246_55327" style="mask-type:luminance" maskUnits="userSpaceOnUse" x="0" y="0" width="31" height="31">
<path d="M30.375 0.582031H0.375V30.582H30.375V0.582031Z" fill="white"/>
</mask>
<g mask="url(#mask1_3246_55327)">
<path d="M9.16504 7.3418C9.16504 8.4518 8.26504 9.3418 7.16504 9.3418C6.06504 9.3418 5.16504 8.4418 5.16504 7.3418C5.16504 6.2318 6.06504 5.3418 7.16504 5.3418C8.26504 5.3418 9.16504 6.2418 9.16504 7.3418Z" fill="#FF7B00"/>
</g>
<mask id="mask2_3246_55327" style="mask-type:luminance" maskUnits="userSpaceOnUse" x="0" y="0" width="31" height="31">
<path d="M30.375 0.582031H0.375V30.582H30.375V0.582031Z" fill="white"/>
</mask>
<g mask="url(#mask2_3246_55327)">
<path d="M7.16504 9.3418C8.26961 9.3418 9.16504 8.44637 9.16504 7.3418C9.16504 6.23723 8.26961 5.3418 7.16504 5.3418C6.06047 5.3418 5.16504 6.23723 5.16504 7.3418C5.16504 8.44637 6.06047 9.3418 7.16504 9.3418Z" stroke="#FF7B00" stroke-width="1.194" stroke-miterlimit="10"/>
</g>
<mask id="mask3_3246_55327" style="mask-type:luminance" maskUnits="userSpaceOnUse" x="0" y="0" width="31" height="31">
<path d="M30.375 0.582031H0.375V30.582H30.375V0.582031Z" fill="white"/>
</mask>
<g mask="url(#mask3_3246_55327)">
<path d="M15.9351 18.9521C15.9351 20.0621 15.0351 20.9521 13.9351 20.9521C12.8351 20.9521 11.9351 20.0521 11.9351 18.9521C11.9351 17.8521 12.8351 16.9521 13.9351 16.9521C15.0351 16.9521 15.9351 17.8421 15.9351 18.9521Z" fill="#FF7B00"/>
</g>
<mask id="mask4_3246_55327" style="mask-type:luminance" maskUnits="userSpaceOnUse" x="0" y="0" width="31" height="31">
<path d="M30.375 0.582031H0.375V30.582H30.375V0.582031Z" fill="white"/>
</mask>
<g mask="url(#mask4_3246_55327)">
<path d="M13.925 20.9521C15.0296 20.9521 15.925 20.0567 15.925 18.9521C15.925 17.8476 15.0296 16.9521 13.925 16.9521C12.8205 16.9521 11.925 17.8476 11.925 18.9521C11.925 20.0567 12.8205 20.9521 13.925 20.9521Z" stroke="#FF7B00" stroke-width="1.194" stroke-miterlimit="10"/>
</g>
<mask id="mask5_3246_55327" style="mask-type:luminance" maskUnits="userSpaceOnUse" x="0" y="0" width="31" height="31">
<path d="M30.375 0.582031H0.375V30.582H30.375V0.582031Z" fill="white"/>
</mask>
<g mask="url(#mask5_3246_55327)">
<path d="M22.605 13.9424C22.605 15.0524 21.705 15.9424 20.605 15.9424C19.505 15.9424 18.605 15.0424 18.605 13.9424C18.605 12.8424 19.505 11.9424 20.605 11.9424C21.705 11.9424 22.605 12.8324 22.605 13.9424Z" fill="#FF7B00"/>
</g>
<mask id="mask6_3246_55327" style="mask-type:luminance" maskUnits="userSpaceOnUse" x="0" y="0" width="31" height="31">
<path d="M30.375 0.582031H0.375V30.582H30.375V0.582031Z" fill="white"/>
</mask>
<g mask="url(#mask6_3246_55327)">
<path d="M20.605 15.9424C21.7095 15.9424 22.605 15.047 22.605 13.9424C22.605 12.8378 21.7095 11.9424 20.605 11.9424C19.5004 11.9424 18.605 12.8378 18.605 13.9424C18.605 15.047 19.5004 15.9424 20.605 15.9424Z" stroke="#FF7B00" stroke-width="1.194" stroke-miterlimit="10"/>
</g>
<mask id="mask7_3246_55327" style="mask-type:luminance" maskUnits="userSpaceOnUse" x="0" y="0" width="31" height="31">
<path d="M30.375 0.582031H0.375V30.582H30.375V0.582031Z" fill="white"/>
</mask>
<g mask="url(#mask7_3246_55327)">
<path d="M28.7051 22.1221C28.7051 23.2321 27.8051 24.1221 26.7051 24.1221C25.6051 24.1221 24.7051 23.2221 24.7051 22.1221C24.7051 21.0221 25.6051 20.1221 26.7051 20.1221C27.8051 20.1221 28.7051 21.0221 28.7051 22.1221Z" fill="#FF7B00"/>
</g>
<mask id="mask8_3246_55327" style="mask-type:luminance" maskUnits="userSpaceOnUse" x="0" y="0" width="31" height="31">
<path d="M30.375 0.582031H0.375V30.582H30.375V0.582031Z" fill="white"/>
</mask>
<g mask="url(#mask8_3246_55327)">
<path d="M26.7051 24.1221C27.8096 24.1221 28.7051 23.2266 28.7051 22.1221C28.7051 21.0175 27.8096 20.1221 26.7051 20.1221C25.6005 20.1221 24.7051 21.0175 24.7051 22.1221C24.7051 23.2266 25.6005 24.1221 26.7051 24.1221Z" stroke="#FF7B00" stroke-width="1.194" stroke-miterlimit="10"/>
</g>
<mask id="mask9_3246_55327" style="mask-type:luminance" maskUnits="userSpaceOnUse" x="0" y="0" width="31" height="31">
<path d="M30.375 0.582031H0.375V30.582H30.375V0.582031Z" fill="white"/>
</mask>
<g mask="url(#mask9_3246_55327)">
<path d="M7.16504 7.3418L13.925 18.9518L20.605 13.9418L26.705 22.1218" stroke="#FF7B00" stroke-width="2.0298" stroke-miterlimit="10"/>
</g>
</g>
<defs>
<clipPath id="clip0_3246_55327">
<rect width="30" height="30" fill="white" transform="translate(0.375 0.582031)"/>
</clipPath>
</defs>
</svg>
