<?xml version="1.0" encoding="utf-8"?>
<!-- Generator: Adobe Illustrator 27.5.0, SVG Export Plug-In . SVG Version: 6.00 Build 0)  -->
<svg version="1.1" xmlns="http://www.w3.org/2000/svg" xmlns:xlink="http://www.w3.org/1999/xlink" x="0px" y="0px" width="44px"
	 height="44px" viewBox="0 0 44 44" style="enable-background:new 0 0 44 44;" xml:space="preserve">
<style type="text/css">
	.st0{display:none;}
	.st1{display:inline;}
	.st2{fill:#FF9933;}
	.st3{fill:#FFCC66;}
	.st4{fill:#3399CC;}
	
		.st5{display:inline;fill:none;stroke:#CCFFFF;stroke-width:0.25;stroke-linecap:round;stroke-linejoin:round;stroke-miterlimit:10;}
	.st6{display:inline;fill:#FFFFFF;}
	.st7{font-family:'GShinMGoPro-Bold-83pv-RKSJ-H';}
	.st8{font-size:34px;}
	.st9{fill:#FFFFFF;}
	.st10{display:inline;fill:#3399CC;}
	.st11{fill:#F7CA0F;}
	.st12{fill:#BF9B02;}
	.st13{display:inline;fill:#FFFFFF;stroke:#CECECE;stroke-miterlimit:10;}
	.st14{display:inline;fill:#333333;}
	.st15{display:inline;fill:#3399FF;}
	.st16{display:inline;fill:#FF3333;}
	.st17{display:inline;fill:none;stroke:#000000;stroke-width:1.5;stroke-linecap:round;stroke-miterlimit:10;}
	.st18{display:inline;fill:#FF9933;}
	.st19{fill:#CCCCCC;}
	.st20{fill:none;stroke:#CCCCCC;stroke-width:0.7218;stroke-linecap:round;stroke-miterlimit:10;}
	.st21{fill:#66CCFF;}
	.st22{fill:#FFFFFF;stroke:#999999;stroke-miterlimit:10;}
	.st23{fill:#333333;}
	.st24{fill:#3399FF;}
	.st25{fill:#FF3333;}
	.st26{fill:none;stroke:#000000;stroke-width:1.5;stroke-linecap:round;stroke-miterlimit:10;}
</style>
<g id="レイヤー_2" class="st0">
	<g class="st1">
		<path class="st2" d="M7,42c-2.8,0-5-2.2-5-5V7c0-2.8,2.2-5,5-5h30c2.8,0,5,2.2,5,5v30c0,2.8-2.2,5-5,5H7z"/>
		<path class="st3" d="M37,4c1.7,0,3,1.3,3,3v30c0,1.7-1.3,3-3,3H7c-1.7,0-3-1.3-3-3V7c0-1.7,1.3-3,3-3H37 M37,0H7C3.1,0,0,3.1,0,7
			v30c0,3.9,3.1,7,7,7h30c3.9,0,7-3.1,7-7V7C44,3.1,40.9,0,37,0L37,0z"/>
	</g>
</g>
<g id="レイヤー_6">
</g>
<g id="レイヤー_5">
	<path class="st4" d="M137.7,40.9c0,0.1,0,0.2,0,0.3h0C137.8,41.1,137.7,41,137.7,40.9z"/>
</g>
<g id="レイヤー_7" class="st0">
	<path class="st5" d="M52.7,16c1.3-7.4,7.9-9.4,7.9-9.4s-5.3,2.9-5.2,9.4"/>
	<path class="st5" d="M58,16c0,0-0.5-5.3,2.6-9.4"/>
	<path class="st5" d="M68.5,16c-1.3-7.4-7.9-9.4-7.9-9.4S66,9.5,65.9,16"/>
	<path class="st5" d="M60.6,16l0-9.4c3.2,4,2.7,9.4,2.7,9.4"/>
</g>
<g id="レイヤー_3のコピー" class="st0">
	<text transform="matrix(1 0 0 1 10.9839 36.4088)" class="st6 st7 st8">？</text>
</g>
<g id="レイヤー_3のコピー_2" class="st0">
	<g class="st1">
		<path class="st9" d="M21.9,28.5c-2.4,0-3-1-3-3c0-1.1,0-4,2.9-6.2c2.6-2,3.6-2.7,3.6-4c0-1.4-1.2-2.2-3.1-2.2
			c-3.3,0-3.5,2.2-3.6,3.3c-0.2,1.4-2.1,1.6-3,1.6c-0.9,0-3-0.2-3-2.3c0-2.5,2.3-7.8,9.9-7.8c5.8,0,8.9,3.6,8.9,7.4
			c0,2.9-1.3,3.9-4.6,6.7c-1.4,1.2-2.1,1.8-2.1,3.6C24.6,26.7,24.6,28.5,21.9,28.5z M25,33.9c0,1.8-1.5,3.3-3.3,3.3
			s-3.3-1.5-3.3-3.3s1.5-3.3,3.3-3.3S25,32,25,33.9z"/>
	</g>
	<path class="st10" d="M99,41.2L99,41.2c0-0.1,0.1-0.2,0.1-0.3C99.1,41,99,41.1,99,41.2z"/>
	<g class="st1">
		<g>
			<path class="st11" d="M52,38.7L52,38.7c0.4,0.8,1.3,2.6,2.4,4.6H58c-1.5-2.7-3.4-6.1-4.6-8.3h-4.4v8.3h3.2
				C52.2,41.4,52.1,39.6,52,38.7z"/>
			<path class="st11" d="M63.1,35h-3.2v4.9c0,1.2,0,2.3,0,3.4h3.2V35z"/>
			<path class="st11" d="M70,41.5c1.2,0,2,0.6,2.4,1.8h3.5c-0.7-2.8-2.8-4.5-5.8-4.5c-3.2,0-5.3,1.8-6,4.5h3.5
				C68,42.1,68.9,41.5,70,41.5z"/>
			<path class="st11" d="M84.9,35.7h-2.4c-0.9,1-2.4,1.8-3.9,2.1v2.6c0.8-0.1,2.1-0.3,2.9-0.7v3.6h3.5V35.7z"/>
		</g>
		<g>
			<path class="st12" d="M52.2,51.5v-5c0-1,0-2.1,0-3.2h-3.2v8.2H52.2z"/>
			<path class="st12" d="M58.9,51.5h4.2v-8.2h-3.2c0,1.5,0.1,2.9,0.2,3.9h0c-0.3-0.7-1.1-2.2-2-3.9h-3.6
				C56,46.2,57.9,49.6,58.9,51.5z"/>
			<path class="st12" d="M69.9,51.8c3.9,0,6.2-2.8,6.2-6.5c0-0.7-0.1-1.4-0.2-2h-3.5c0.2,0.5,0.3,1.2,0.3,2c0,2.4-0.9,3.8-2.6,3.8
				c-1.7,0-2.7-1.4-2.7-3.8c0-0.8,0.1-1.5,0.3-2h-3.5c-0.2,0.6-0.2,1.3-0.2,2C63.8,49,66.1,51.8,69.9,51.8z"/>
			<rect x="76.3" y="47.3" class="st12" width="3.7" height="4.2"/>
			<rect x="81.4" y="43.3" class="st12" width="3.5" height="8.2"/>
		</g>
	</g>
</g>
<g id="レイヤー_4" class="st0">
	<circle class="st13" cx="22" cy="22" r="18"/>
	<circle class="st14" cx="22" cy="22" r="13.8"/>
	<circle class="st15" cx="22" cy="22" r="8.2"/>
	<circle class="st16" cx="22" cy="22" r="3.2"/>
	<path class="st16" d="M5.8,6.7c0,0,2.3,3.4,3.7,3.9c1.3,0.5,3.1-0.2,3.1-0.2L8.7,6.1L5.8,6.7z"/>
	<path class="st16" d="M9.5,3.3c0,0,3.2,2.6,3.6,3.9c0.4,1.4-0.4,3-0.4,3l-4-4.1L9.5,3.3z"/>
	<line class="st17" x1="22" y1="22" x2="9.1" y2="6.6"/>
</g>
<g id="レイヤー_8" class="st0">
	<circle class="st18" cx="34.3" cy="8.2" r="6.1"/>
	<g class="st1">
		<circle class="st19" cx="10.2" cy="28.2" r="2.6"/>
		<circle class="st19" cx="3.6" cy="30.2" r="2.6"/>
		<circle class="st19" cx="8" cy="30.8" r="2.6"/>
		<circle class="st19" cx="12.9" cy="30.2" r="2.6"/>
		<circle class="st19" cx="5.9" cy="32.2" r="2.6"/>
		<circle class="st19" cx="6.2" cy="28.2" r="2.6"/>
		<circle class="st19" cx="10.2" cy="32.2" r="2.6"/>
	</g>
	<g class="st1">
		<g>
			<path class="st20" d="M34.2,27.8v13.1c0,0,0,1.2-1.3,1.2c-1,0-1.2-1.2-1.2-1.2"/>
		</g>
		<path class="st21" d="M39.7,35.6c1.4,0,2.5,0.4,2.7,0.9c-0.1-4.4-3.7-8-8.1-8s-8,3.6-8.1,8c0.2-0.5,1.3-0.9,2.7-0.9
			c1.5,0,2.7,0.4,2.7,1c0-0.5,1.2-1,2.7-1s2.7,0.4,2.7,1C37,36.1,38.2,35.6,39.7,35.6z"/>
	</g>
</g>
<g id="レイヤー_9">
	<circle class="st22" cx="22" cy="22" r="18"/>
	<circle class="st23" cx="22" cy="22" r="13.8"/>
	<circle class="st24" cx="22" cy="22" r="8.2"/>
	<circle class="st25" cx="22" cy="22" r="3.2"/>
	<path class="st25" d="M5.8,6.7c0,0,2.3,3.4,3.7,3.9c1.3,0.5,3.1-0.2,3.1-0.2L8.7,6.1L5.8,6.7z"/>
	<path class="st25" d="M9.5,3.3c0,0,3.2,2.6,3.6,3.9c0.4,1.4-0.4,3-0.4,3l-4-4.1L9.5,3.3z"/>
	<line class="st26" x1="22" y1="22" x2="9.1" y2="6.6"/>
	<g>
		<g>
			<path class="st11" d="M7.1,28.9L7.1,28.9c0.4,0.8,1.3,2.6,2.4,4.6h3.6c-1.5-2.7-3.4-6.1-4.6-8.3H4v8.3h3.2
				C7.2,31.6,7.2,29.8,7.1,28.9z"/>
			<path class="st11" d="M18.2,25.2H15v4.9c0,1.2,0,2.3,0,3.4h3.2V25.2z"/>
			<path class="st11" d="M25,31.7c1.2,0,2,0.6,2.4,1.8H31c-0.7-2.8-2.8-4.5-5.8-4.5c-3.2,0-5.3,1.8-6,4.5h3.5
				C23.1,32.3,23.9,31.7,25,31.7z"/>
			<path class="st11" d="M40,25.9h-2.4c-0.9,1-2.4,1.8-3.9,2.1v2.6c0.8-0.1,2.1-0.3,2.9-0.7v3.6H40V25.9z"/>
		</g>
		<g>
			<path class="st12" d="M7.3,41.7v-5c0-1,0-2.1,0-3.2H4v8.2H7.3z"/>
			<path class="st12" d="M14,41.7h4.2v-8.2H15c0,1.5,0.1,2.9,0.2,3.9h0c-0.3-0.7-1.1-2.2-2-3.9H9.5C11.1,36.4,13,39.8,14,41.7z"/>
			<path class="st12" d="M25,42c3.9,0,6.2-2.8,6.2-6.5c0-0.7-0.1-1.4-0.2-2h-3.5c0.2,0.5,0.3,1.2,0.3,2c0,2.4-0.9,3.8-2.6,3.8
				c-1.7,0-2.7-1.4-2.7-3.8c0-0.8,0.1-1.5,0.3-2h-3.5c-0.2,0.6-0.2,1.3-0.2,2C18.9,39.2,21.2,42,25,42z"/>
			<rect x="31.4" y="37.5" class="st12" width="3.7" height="4.2"/>
			<rect x="36.5" y="33.5" class="st12" width="3.5" height="8.2"/>
		</g>
	</g>
</g>
</svg>
