<svg width="22" height="22" viewBox="0 0 22 22" fill="none" xmlns="http://www.w3.org/2000/svg">
<path fill-rule="evenodd" clip-rule="evenodd" d="M13.068 3.498C16.06 3.498 18.48 5.918 18.48 8.888C18.48 11.88 16.038 14.3 13.068 14.3C10.076 14.3 7.65601 11.88 7.65601 8.888C7.65601 5.918 10.076 3.498 13.068 3.498ZM13.068 0L14.3 1.848L15.708 0.418L16.324 2.53L18.106 1.562L18.084 3.762L20.086 3.366L19.404 5.434L21.428 5.654L20.108 7.48L22 8.294L20.24 9.614L21.78 10.934L19.712 11.704L20.812 13.42L18.612 13.53L19.14 15.51L17.006 14.982L16.94 17.028L15.048 15.884L14.388 17.82L12.914 16.17L11.726 17.82L10.802 15.796L9.17401 17.028L8.86601 14.85L6.95201 15.532L7.32601 13.354L5.30201 13.464L6.29201 11.462L4.31201 10.978L5.85201 9.372L4.11401 8.316L6.05001 7.216L4.70801 5.698L6.88601 5.258L6.05001 3.41L8.25001 3.608L7.98601 1.584L10.054 2.42L10.406 0.418L12.122 1.804L13.068 0ZM13.068 2.53C16.588 2.53 19.448 5.39 19.448 8.888C19.448 12.43 16.566 15.268 13.068 15.268C9.54801 15.268 6.71001 12.408 6.71001 8.888C6.68801 5.39 9.54801 2.53 13.068 2.53Z" fill="#D33756"/>
<path d="M6.15994 21.186C6.31394 21.758 6.92994 22.11 7.50194 21.956L12.1659 20.702C12.7379 20.548 13.0899 19.932 12.9359 19.36L12.9139 19.25L6.13794 21.076L6.15994 21.186Z" fill="#8698BD"/>
<path d="M11.616 16.544L5.87402 18.106C5.58802 18.172 5.43402 18.48 5.50002 18.766L6.13802 21.098L12.914 19.272L12.276 16.94C12.188 16.632 11.902 16.456 11.616 16.544Z" fill="#A1B3D2"/>
<path d="M6.31393 18.722L11.4839 17.314C11.7919 17.226 12.0559 17.028 12.2099 16.764C12.0999 16.566 11.8579 16.456 11.6159 16.522L5.87393 18.084C5.63193 18.15 5.45593 18.392 5.47793 18.634C5.74193 18.766 6.02793 18.81 6.31393 18.722Z" fill="#8698BD"/>
<path d="M11.2418 20.284L12.8918 19.25L12.2538 16.918C12.1878 16.632 11.8798 16.478 11.5938 16.544L10.3398 16.874L11.2418 20.284Z" fill="#8698BD"/>
<path d="M9.45151 1.11455L0.0012207 3.67072L0.253965 4.60513L9.70425 2.04896L9.45151 1.11455Z" fill="#D6D8E4"/>
<path d="M0.241943 4.59802L5.05994 17.908C5.05994 17.908 5.23594 18.568 6.46794 18.216L11.1979 16.94C12.3859 16.566 12.2539 15.95 12.2539 15.95L9.70194 2.04602L0.241943 4.59802Z" fill="#E1E6F0"/>
<path d="M9.70193 2.04598L9.45993 1.09998L7.32593 1.67198L7.54593 2.61798L9.70193 2.04598Z" fill="#BEC3DC"/>
<path d="M12.2539 15.972L9.7019 2.04602L7.5459 2.64002L10.7359 17.094L11.2199 16.962C12.3859 16.588 12.2539 15.972 12.2539 15.972Z" fill="#CBCDDF"/>
<path d="M4.31198 10.142L4.92798 12.474C4.99398 12.738 5.23598 12.804 5.60998 12.716C5.93998 12.628 6.11598 12.298 6.02798 11.968L5.45598 9.834C5.38998 9.614 5.52198 9.394 5.74198 9.35C5.96198 9.284 6.18198 9.41599 6.22598 9.63599L6.79798 11.77C6.99598 12.518 6.55598 13.288 5.80798 13.486C4.97198 13.706 4.33398 13.398 4.13598 12.694L3.51998 10.362C3.45398 10.142 3.58598 9.922 3.80598 9.878C4.02598 9.812 4.24598 9.94399 4.31198 10.142Z" fill="#224965"/>
<path d="M8.88783 12.386L7.08383 9.52602C6.97383 9.32802 7.01783 9.08602 7.21583 8.97602C7.39183 8.86602 7.65583 8.91002 7.76583 9.10802L8.88783 10.868L8.97583 8.77802C8.97583 8.55802 9.17383 8.38202 9.39383 8.38202C9.61383 8.38202 9.78983 8.58002 9.78983 8.80002L9.65783 12.166C9.65783 12.342 9.52583 12.496 9.34983 12.54C9.17383 12.584 8.97583 12.54 8.88783 12.386Z" fill="#224965"/>
</svg>
