<svg width="21" height="21" viewBox="0 0 21 21" fill="none" xmlns="http://www.w3.org/2000/svg">
<path fill-rule="evenodd" clip-rule="evenodd" d="M10.5001 2.64478C15.0187 2.64478 18.6819 6.3079 18.6819 10.8266C18.6819 15.3453 15.0187 19.0084 10.5001 19.0084C5.98136 19.0084 2.31824 15.3453 2.31824 10.8266C2.31824 6.3079 5.98136 2.64478 10.5001 2.64478ZM3.74561 11.7627C3.70359 11.4567 3.68187 11.1442 3.68187 10.8266C3.68187 10.509 3.70359 10.1965 3.74561 9.89047C4.37365 9.31901 5.53442 8.79813 7.01717 8.46721C6.91734 9.21429 6.86369 10.0063 6.86369 10.8266C6.86369 11.6468 6.91734 12.4389 7.01717 13.186C5.53442 12.8551 4.37365 12.3342 3.74561 11.7627ZM4.05934 13.0694C4.74227 15.0308 6.29586 16.5844 8.25726 17.2673C7.79282 16.4474 7.41927 15.3787 7.17628 14.1504C5.94796 13.9074 4.87924 13.5338 4.05934 13.0694ZM8.14068 14.3095C8.47159 15.7922 8.99247 16.953 9.56393 17.581C9.86997 17.6231 10.1825 17.6448 10.5001 17.6448C10.8176 17.6448 11.1301 17.6231 11.4362 17.581C12.0076 16.953 12.5285 15.7922 12.8594 14.3095C12.1124 14.4093 11.3203 14.463 10.5001 14.463C9.67981 14.463 8.88775 14.4093 8.14068 14.3095ZM13.8238 14.1504C13.5808 15.3787 13.2073 16.4474 12.7429 17.2673C14.7043 16.5844 16.2578 15.0308 16.9408 13.0694C16.1209 13.5338 15.0522 13.9074 13.8238 14.1504ZM17.2545 11.7627C16.6265 12.3342 15.4657 12.8551 13.9829 13.186C14.0828 12.4389 14.1364 11.6468 14.1364 10.8266C14.1364 10.0063 14.0828 9.21429 13.9829 8.46722C15.4657 8.79813 16.6265 9.31901 17.2545 9.89047C17.2965 10.1965 17.3182 10.509 17.3182 10.8266C17.3182 11.1442 17.2965 11.4567 17.2545 11.7627ZM16.9408 8.5838C16.2578 6.6224 14.7043 5.06881 12.7429 4.38588C13.2073 5.20578 13.5808 6.2745 13.8238 7.50281C15.0522 7.74581 16.1209 8.11935 16.9408 8.5838ZM12.8594 7.3437C12.5285 5.86096 12.0076 4.70018 11.4362 4.07215C11.1301 4.03012 10.8176 4.00841 10.5001 4.00841C10.1825 4.00841 9.86997 4.03012 9.56393 4.07215C8.99247 4.70018 8.47159 5.86096 8.14068 7.3437C8.88775 7.24388 9.67981 7.19023 10.5001 7.19023C11.3203 7.19023 12.1124 7.24388 12.8594 7.3437ZM7.96305 8.28959C7.84168 9.0765 7.77278 9.93045 7.77278 10.8266C7.77278 11.7227 7.84168 12.5767 7.96305 13.3636C8.74996 13.485 9.60391 13.5539 10.5001 13.5539C11.3962 13.5539 12.2501 13.485 13.0371 13.3636C13.1584 12.5767 13.2273 11.7227 13.2273 10.8266C13.2273 9.93045 13.1584 9.0765 13.0371 8.28959C12.2501 8.16822 11.3962 8.09932 10.5001 8.09932C9.60391 8.09932 8.74996 8.16822 7.96305 8.28959ZM7.17628 7.50281C7.41927 6.2745 7.79281 5.20578 8.25725 4.38588C6.29586 5.06881 4.74227 6.6224 4.05934 8.5838C4.87924 8.11935 5.94796 7.74581 7.17628 7.50281Z" fill="#4D9EFF"/>
</svg>
