<svg width="22" height="22" viewBox="0 0 22 22" fill="none" xmlns="http://www.w3.org/2000/svg">
<path d="M19 0H20V7.5C20 7.77614 19.7761 8 19.5 8C19.2239 8 19 7.77614 19 7.5V0Z" fill="#666666"/>
<path d="M9.76835 5.87908C8.69 4.9014 7.1297 4.96318 6.28338 6.01707L4.66482 8.03263L7.05424 10.199L10.1707 6.24384L9.76835 5.87908Z" fill="#FBBF00"/>
<path d="M10.8037 16.6938L11.4851 19.8462L14.0399 19.4523C15.3758 19.2463 16.2095 17.926 15.9019 16.5033L15.7872 15.9724L10.8037 16.6938Z" fill="#FFA900"/>
<path d="M11.1701 5.39258C7.81935 7.32713 5.51051 12.5704 5.30937 14.7083L6.02626 15.95C7.97827 16.8448 13.6735 17.4669 17.0243 15.5323C20.9344 13.2749 20.2949 6.88423 20.2949 6.88423C20.2949 6.88423 15.0802 3.13506 11.1701 5.39258Z" fill="#FFA900"/>
<path d="M5.66797 15.3292L6.02641 15.95C7.97842 16.8448 13.6737 17.4669 17.0244 15.5323C20.9346 13.2748 20.2951 6.8842 20.2951 6.8842L5.66797 15.3292Z" fill="#FF8800"/>
<path d="M20.295 6.8842C20.295 6.8842 16.6708 4.27931 13.1997 4.72044C13.0739 6.52685 13.4924 8.45578 14.5125 10.2227C15.5326 11.9896 16.9938 13.3165 18.6212 14.1108C20.7388 11.3253 20.295 6.8842 20.295 6.8842Z" fill="#FBBF00"/>
<path d="M20.2949 6.8842L14.5125 10.2227C15.5326 11.9896 16.9938 13.3165 18.6211 14.1108C20.7387 11.3253 20.2949 6.8842 20.2949 6.8842Z" fill="#FFA900"/>
<ellipse cx="16.3173" cy="7.47554" rx="0.585938" ry="0.644531" transform="rotate(-30 16.3173 7.47554)" fill="#333333"/>
<path d="M4.10872 16.2293L3.86894 16.3678C3.3749 16.653 2.7201 16.4437 2.40634 15.9003L1.07373 13.5921L1.34416 13.436C2.73559 12.6326 4.5799 13.2222 5.46358 14.7527L6.0649 15.7943C6.94858 17.3248 6.53697 19.2168 5.14554 20.0202L4.87511 20.1763L3.5425 17.8681C3.22876 17.3247 3.3749 16.653 3.86894 16.3678" fill="#FF8800"/>
<path d="M4.1089 16.2293L3.86912 16.3678C3.37511 16.653 5.76446 15.2735 5.76446 15.2735L6.06514 15.7943C6.94881 17.3248 6.5372 19.2168 5.14577 20.0202L4.87531 20.1763L3.5427 17.8682C3.22894 17.3247 3.37508 16.653 3.86912 16.3678" fill="#E47700"/>
</svg>
