<svg xmlns="http://www.w3.org/2000/svg" viewBox="0 0 30 30" enable-background="new 0 0 30 30"><defs><filter id="a" filterUnits="userSpaceOnUse" x="0" y="0" width="30" height="30"><feColorMatrix values="1 0 0 0 0 0 1 0 0 0 0 0 1 0 0 0 0 0 1 0"/></filter></defs><mask maskUnits="userSpaceOnUse" x="0" y="0" width="30" height="30" id="b"><path d="M18.2 19.3c-1.5 1-3.3 1.7-5.2 1.7-5 0-9-4-9-9s4-9 9-9 9 4 9 9c0 1.9-.6 3.7-1.7 5.2l6.2 6.2c.6.6.6 1.5 0 2.1-.6.6-1.5.6-2.1 0l-6.2-6.2zM19 12c0 3.3-2.7 6-6 6s-6-2.7-6-6 2.7-6 6-6 6 2.7 6 6z" fill-rule="evenodd" clip-rule="evenodd" fill="#fff" filter="url(#a)"/></mask><g mask="url(#b)"><path fill="#1f59ba" d="M0 0h30v30H0z"/></g></svg>