<svg width="22" height="22" viewBox="0 0 22 22" fill="none" xmlns="http://www.w3.org/2000/svg">
<path d="M13.86 18.986C16.6303 18.986 18.876 16.7402 18.876 13.97C18.876 11.1997 16.6303 8.95398 13.86 8.95398C11.0897 8.95398 8.84399 11.1997 8.84399 13.97C8.84399 16.7402 11.0897 18.986 13.86 18.986Z" fill="#31250C"/>
<path d="M7.766 18.986C10.5363 18.986 12.782 16.7402 12.782 13.97C12.782 11.1997 10.5363 8.95398 7.766 8.95398C4.99574 8.95398 2.75 11.1997 2.75 13.97C2.75 16.7402 4.99574 18.986 7.766 18.986Z" fill="#31250C"/>
<path d="M18.238 10.626H17.776L17.71 10.164C17.138 6.09397 14.366 3.36597 10.802 3.36597C7.28198 3.36597 4.50998 6.09397 3.89398 10.186L3.82798 10.648H3.36598C2.70598 10.648 2.17798 11.374 2.17798 12.254C2.17798 13.134 2.72798 13.86 3.38798 13.86H3.98198L4.06998 14.278C4.83998 17.556 7.19398 20.856 10.78 20.856C14.366 20.856 16.742 17.556 17.49 14.278L17.578 13.86H18.172C18.832 13.86 19.382 13.112 19.382 12.254C19.426 11.374 18.876 10.626 18.238 10.626Z" fill="#FFEADD"/>
<path d="M10.8019 2.24396C6.04992 2.24396 2.22192 6.09396 2.22192 10.868V11.682C3.54192 11.462 9.48192 10.252 12.3419 5.89596C12.2319 7.14996 11.8799 9.28396 10.7799 10.164C12.9359 9.96596 14.9159 8.97596 16.3239 7.39196C16.4779 8.02996 16.6979 8.68996 16.9619 9.30596C18.0619 11.968 18.8979 11.99 19.3819 11.55V10.912C19.4039 6.09396 15.5539 2.24396 10.8019 2.24396Z" fill="#31250C"/>
<path d="M10.802 14.388L9.65796 15.202H11.968L10.802 14.388Z" fill="#FFA99B"/>
<path d="M8.93181 17.886C8.79981 17.886 8.68981 17.842 8.57981 17.732C8.40381 17.534 8.40381 17.248 8.60181 17.072C9.17381 16.544 9.94381 15.928 10.8018 15.928C11.6818 15.928 12.4518 16.544 13.0018 17.072C13.1998 17.248 13.1998 17.556 13.0238 17.732C12.8478 17.93 12.5398 17.93 12.3638 17.754C11.9238 17.336 11.3518 16.852 10.8018 16.852C10.2518 16.852 9.67981 17.336 9.23981 17.754C9.15181 17.842 9.04181 17.886 8.93181 17.886Z" fill="#EF659C"/>
<path d="M14.4539 14.3879C14.3439 14.3879 14.2339 14.3439 14.1679 14.2559L13.0019 13.0679C12.8479 12.9139 12.8479 12.6499 13.0019 12.4959L14.1679 11.3079C14.3219 11.1539 14.5859 11.1539 14.7399 11.3079C14.8939 11.4619 14.8939 11.7259 14.7399 11.8799L13.8599 12.7819L14.7399 13.6839C14.8939 13.8379 14.8939 14.1019 14.7399 14.2559C14.6519 14.3659 14.5419 14.3879 14.4539 14.3879ZM6.64393 14.3879C6.53393 14.3879 6.44593 14.3439 6.35793 14.2779C6.20393 14.1239 6.20393 13.8599 6.35793 13.7059L7.25993 12.8039L6.35793 11.9019C6.20393 11.7479 6.20393 11.4839 6.35793 11.3299C6.51193 11.1759 6.77593 11.1759 6.92993 11.3299L8.11793 12.5179C8.18393 12.5839 8.22793 12.6939 8.22793 12.8039C8.22793 12.9139 8.18393 13.0239 8.11793 13.0899L6.92993 14.2779C6.84193 14.3659 6.73193 14.3879 6.64393 14.3879Z" fill="#31250C"/>
<path d="M0.285892 3.91598C-0.110108 3.43198 -0.0881082 2.72798 0.395892 2.30998C0.835892 1.93598 1.47389 1.93598 1.91389 2.30998C2.35389 2.77198 3.25589 5.30198 3.25589 5.30198C3.25589 5.30198 0.747892 4.35598 0.285892 3.91598Z" fill="#F73C4E"/>
<path d="M4.0699 1.93597C4.0259 1.56197 4.3119 1.20997 4.6859 1.16597C5.0599 1.12197 5.4119 1.40797 5.4559 1.78197C5.4779 2.15597 4.9499 3.78397 4.9499 3.78397C4.9499 3.78397 4.1359 2.30997 4.0699 1.93597Z" fill="#F73C4E"/>
<path d="M18.6779 2.838C18.7879 2.464 19.1619 2.244 19.5359 2.354C19.9099 2.464 20.1299 2.838 20.0199 3.212C19.9099 3.586 18.8319 4.884 18.8319 4.884C18.8319 4.884 18.5679 3.212 18.6779 2.838Z" fill="#F73C4E"/>
<path d="M20.9438 4.70795C21.2958 4.50995 21.7138 4.61995 21.9118 4.97195C22.0658 5.25795 22.0218 5.65395 21.7578 5.85195C21.4278 6.07195 19.7998 6.37995 19.7998 6.37995C19.7998 6.37995 20.6138 4.92795 20.9438 4.70795Z" fill="#F73C4E"/>
</svg>
