<?xml version="1.0" encoding="utf-8"?>
<!-- Generator: Adobe Illustrator 27.3.1, SVG Export Plug-In . SVG Version: 6.00 Build 0)  -->
<svg version="1.1" id="レイヤー_1" xmlns="http://www.w3.org/2000/svg" xmlns:xlink="http://www.w3.org/1999/xlink" x="0px"
	 y="0px" width="100px" height="100px" viewBox="0 0 100 100" style="enable-background:new 0 0 100 100;" xml:space="preserve">
<style type="text/css">
	.st0{fill:#EBC5A9;}
	.st1{fill:#E6A991;}
	.st2{fill:#A79F95;}
	.st3{fill:#F0659C;}
</style>
<g>
	<polygon class="st0" points="17.9,4.4 17.9,100 25.4,100 30.5,88 87.1,88 92.2,100 99.6,100 99.6,4.4 	"/>
	<polygon class="st1" points="17.9,75.1 99.6,75.1 99.6,71.8 60.4,71.8 60.4,4.4 57.1,4.4 57.1,71.8 17.9,71.8 	"/>
	<g>
		<circle class="st1" cx="69.5" cy="37.4" r="3.6"/>
	</g>
	<g>
		<path class="st2" d="M47.5,25.3L28.6,11.3V9.3c0-0.4,0.2-0.8,0.6-0.9c1.6-0.7,2.7-2.2,2.7-4c0-2.4-1.9-4.3-4.3-4.3
			s-4.3,1.9-4.3,4.3c0,0.6,0.5,1.1,1.1,1.1s1.1-0.5,1.1-1.1c0-1.2,1-2.2,2.2-2.2c1.2,0,2.2,1,2.2,2.2c0,0.9-0.5,1.7-1.3,2
			c-1.2,0.5-1.9,1.6-1.9,2.9v2.1L7.5,25.3c-1,0.7-1.6,1.9-1.6,3.2c0,2.2,1.8,3.9,3.9,3.9h35.3c2.2,0,3.9-1.8,3.9-3.9
			C49.1,27.2,48.5,26,47.5,25.3z M45.2,30.2H9.9c-1,0-1.8-0.8-1.8-1.8c0-0.6,0.3-1.1,0.7-1.4l18.7-13.8L46.2,27
			c0.5,0.3,0.7,0.9,0.7,1.4C47,29.4,46.1,30.2,45.2,30.2z"/>
		<rect x="17.9" y="4.4" class="st0" width="7.9" height="6.2"/>
	</g>
	<g>
		<path class="st3" d="M54.1,23.1l-10-6c-1.7-1-3.7-1.6-5.7-1.6h-3.1c-0.5,0-0.9,0.3-1.1,0.7c-1.2,2.6-3.8,4.2-6.7,4.2
			c-2.9,0-5.4-1.6-6.7-4.2c-0.2-0.4-0.6-0.7-1.1-0.7h-3.1c-2,0-4,0.5-5.7,1.6l-10,6c-0.6,0.3-0.8,1-0.5,1.6l4.9,9.9
			c0.3,0.6,1,0.9,1.7,0.6l5.6-2.8v26.4c0,0.7,0.6,1.2,1.2,1.2h27.1c0.7,0,1.2-0.6,1.2-1.2V32.4l5.6,2.8c0.6,0.3,1.3,0.1,1.7-0.6
			l4.9-9.9C54.8,24.2,54.6,23.5,54.1,23.1z"/>
	</g>
</g>
</svg>
