<?xml version="1.0" encoding="UTF-8"?>
<svg id="_レイヤー_2" xmlns="http://www.w3.org/2000/svg" width="30" height="30" xmlns:xlink="http://www.w3.org/1999/xlink" version="1.1" viewBox="0 0 30 30">
  <!-- Generator: Adobe Illustrator 30.0.0, SVG Export Plug-In . SVG Version: 2.1.1 Build 123)  -->
  <defs>
    <style>
      .st0 {
        isolation: isolate;
      }

      .st1 {
        fill: url(#_名称未設定グラデーション_2);
      }

      .st2 {
        fill: #fff;
      }

      .st3 {
        opacity: .5;
      }

      .st4 {
        fill: red;
      }

      .st5 {
        fill: #6b6b6b;
      }

      .st6 {
        fill: url(#_名称未設定グラデーション);
      }

      .st7 {
        fill: #999;
      }
    </style>
    <linearGradient id="_名称未設定グラデーション" data-name="名称未設定グラデーション" x1="9.4" y1="28.5" x2="9.4" y2="24" gradientTransform="translate(0 32) scale(1 -1)" gradientUnits="userSpaceOnUse">
      <stop offset="0" stop-color="#999"/>
      <stop offset=".4" stop-color="#fff"/>
      <stop offset="1" stop-color="#000"/>
    </linearGradient>
    <linearGradient id="_名称未設定グラデーション_2" data-name="名称未設定グラデーション 2" x1="20.5" y1="28.5" x2="20.5" y2="24" gradientTransform="translate(0 32) scale(1 -1)" gradientUnits="userSpaceOnUse">
      <stop offset="0" stop-color="#999"/>
      <stop offset=".4" stop-color="#fff"/>
      <stop offset="1" stop-color="#000"/>
    </linearGradient>
  </defs>
  <g>
    <path class="st2" d="M4.8,27.1c-1.1,0-1.9-.9-1.9-1.9V9.2h24.2v16c0,1.1-.9,1.9-1.9,1.9H4.8Z"/>
    <path class="st7" d="M26.6,9.6v15.5c0,.8-.7,1.5-1.5,1.5H4.8c-.8,0-1.5-.7-1.5-1.5v-15.5h23.3M27.5,8.7H2.5v16.4c0,1.3,1.1,2.4,2.4,2.4h20.3c1.3,0,2.4-1.1,2.4-2.4V8.7h0Z"/>
  </g>
  <g>
    <path class="st4" d="M2.9,11.9v-5.5c0-.9.8-1.7,1.7-1.7h20.8c.9,0,1.7.8,1.7,1.7v5.5H2.9Z"/>
    <path class="st7" d="M25.4,5.2c.7,0,1.2.6,1.2,1.2v5H3.4v-5c0-.7.6-1.2,1.2-1.2h20.8M25.4,4.3H4.6c-1.2,0-2.1,1-2.1,2.1v5.9h25.1v-5.9c0-1.2-1-2.1-2.1-2.1h-.1Z"/>
  </g>
  <g>
    <g>
      <circle cx="9.5" cy="7" r="1.6"/>
      <g class="st3">
        <path class="st2" d="M9.5,8.7c-.9,0-1.7-.7-1.7-1.6h0c0,1.1.8,1.9,1.8,1.9s1.8-.8,1.8-1.8,0,0,0,0c0,.9-.8,1.6-1.7,1.6h-.2Z"/>
      </g>
      <g>
        <path class="st5" d="M9.5,8.1c-.6,0-1.1-.5-1.1-1.1v-3.6c0-.6.5-1.1,1.1-1.1s1.1.5,1.1,1.1v3.6c0,.6-.5,1.1-1.1,1.1Z"/>
        <path class="st7" d="M9.5,2.5c.5,0,1,.4,1,1v3.6c0,.5-.4,1-1,1s-1-.4-1-1v-3.6c0-.5.4-1,1-1M9.5,2.3c-.7,0-1.2.5-1.2,1.2v3.6c0,.7.5,1.2,1.2,1.2s1.2-.5,1.2-1.2v-3.6c0-.7-.5-1.2-1.2-1.2h0Z"/>
      </g>
      <path class="st6" d="M9.4,2.7h0c.4,0,.8.4.8.8v3.5c0,.4-.3.8-.8.8h0c-.4,0-.8-.4-.8-.8v-3.5c0-.4.3-.8.8-.8Z"/>
    </g>
    <g>
      <circle cx="20.5" cy="7" r="1.6"/>
      <g class="st3">
        <path class="st2" d="M20.5,8.7c-.9,0-1.7-.7-1.7-1.6h0c0,1.1.8,1.9,1.8,1.9s1.8-.8,1.8-1.8,0,0,0,0c0,.9-.8,1.6-1.7,1.6h-.2Z"/>
      </g>
      <g>
        <path class="st5" d="M20.5,8.1c-.6,0-1.1-.5-1.1-1.1v-3.6c0-.6.5-1.1,1.1-1.1s1.1.5,1.1,1.1v3.6c0,.6-.5,1.1-1.1,1.1Z"/>
        <path class="st7" d="M20.5,2.5c.5,0,1,.4,1,1v3.6c0,.5-.4,1-1,1s-1-.4-1-1v-3.6c0-.5.4-1,1-1M20.5,2.3c-.7,0-1.2.5-1.2,1.2v3.6c0,.7.5,1.2,1.2,1.2s1.2-.5,1.2-1.2v-3.6c0-.7-.5-1.2-1.2-1.2h0Z"/>
      </g>
      <path class="st1" d="M20.5,2.7h0c.4,0,.8.4.8.8v3.5c0,.4-.3.8-.8.8h0c-.4,0-.8-.4-.8-.8v-3.5c0-.4.3-.8.8-.8Z"/>
    </g>
  </g>
  <g class="st0">
    <g class="st0">
      <path d="M10.7,13.3h1.7v8.8h-1.7v-6.9h0l-2.3,1.8v-1.8l2.4-1.8Z"/>
      <path d="M20.5,19h1.3v1.3h-1.3v1.8h-1.6v-1.8h-4v-1.3l4-5.6h1.6v5.6ZM18.8,19v-3.4h0l-2.4,3.4h0s2.4,0,2.4,0Z"/>
    </g>
  </g>
  <g class="st0">
    <g class="st0">
      <path d="M12.2,22.5h.5v3h-.5v-.3h0c0,.1-.2.2-.3.2,0,0-.2,0-.3,0-.2,0-.4,0-.6-.3s-.2-.5-.2-.8,0-.6.2-.8c.2-.2.4-.3.6-.3s.4,0,.6.3h0v-1.1ZM11.3,24.5c0,.2,0,.4.1.5,0,.1.2.2.3.2s.2,0,.3-.1c0,0,.1-.2.1-.3v-.5c0-.1,0-.2-.1-.3,0,0-.2-.1-.3-.1-.3,0-.5.2-.5.7Z"/>
      <path d="M14.1,23.4c.3,0,.6,0,.7.2.1.1.2.3.2.6v1.3h-.5v-.3h0c-.2.2-.4.3-.7.3s-.3,0-.5-.2c-.1-.1-.2-.3-.2-.5s0-.4.3-.5.4-.2.8-.2h.2c0-.2,0-.3,0-.3,0,0-.2,0-.3,0-.2,0-.5,0-.8.1v-.4c.3,0,.5-.1.8-.1ZM14.5,24.5h-.2c-.4,0-.6.1-.6.4s0,.2,0,.2c0,0,.1,0,.2,0,.2,0,.3,0,.4-.1s.1-.2.1-.4h0Z"/>
      <path d="M15.4,26.4v-.4c.2,0,.4,0,.5,0,0,0,.2-.2.3-.4l-.8-2.1h.6l.5,1.5h0l.5-1.5h.6l-.8,2.1c-.1.3-.3.6-.5.7-.2.1-.4.2-.8.2Z"/>
      <path d="M19.2,23.9c-.2,0-.4-.1-.7-.1s-.4,0-.4.2,0,.1,0,.2c0,0,.1,0,.2,0,.3,0,.5.1.6.2.1.1.2.3.2.5s0,.3-.2.4-.4.2-.6.2-.5,0-.7-.1v-.4c.2,0,.5.1.7.1s.4,0,.4-.2,0-.1,0-.2c0,0-.1,0-.3-.1-.3,0-.5-.1-.6-.3s-.2-.2-.2-.4,0-.3.2-.5.4-.2.6-.2.5,0,.7,0v.4Z"/>
    </g>
  </g>
</svg>