<svg width="22" height="22" viewBox="0 0 22 22" fill="none" xmlns="http://www.w3.org/2000/svg">
<ellipse cx="5.49997" cy="16.0711" rx="4" ry="6" transform="rotate(45 5.49997 16.0711)" fill="#6AC267"/>
<ellipse cx="16.5" cy="16.0711" rx="4" ry="6" transform="rotate(-45 16.5 16.0711)" fill="#6AC267"/>
<path fill-rule="evenodd" clip-rule="evenodd" d="M11.4545 1C12.4889 1 13.4336 1.45241 14.1539 2.19849C14.4548 2.11539 14.7685 2.07143 15.0909 2.07143C17.1061 2.07143 18.781 3.78873 19.1194 6.04936C20.2507 6.90709 21 8.40398 21 10.1071C21 12.7699 19.1684 14.9286 16.9091 14.9286C16.8581 14.9286 16.8073 14.9275 16.7568 14.9253C16.0536 15.5973 15.1576 16 14.1818 16C13.1341 16 12.1783 15.5358 11.4545 14.7723C10.7308 15.5358 9.77503 16 8.72727 16C7.69294 16 6.74827 15.5476 6.02793 14.8015C5.72702 14.8846 5.41332 14.9286 5.09091 14.9286C2.83156 14.9286 1 12.7699 1 10.1071C1 8.40398 1.7493 6.90708 2.88058 6.04936C3.21903 3.78873 4.8939 2.07143 6.90909 2.07143C7.48165 2.07143 8.02673 2.21005 8.52149 2.46038C9.26476 1.55958 10.3042 1 11.4545 1Z" fill="#A600CE"/>
<path fill-rule="evenodd" clip-rule="evenodd" d="M5.00008 6C3.89526 6.0006 3 6.44809 3 7C3 7.5519 3.89522 7.99937 5 8C5 8.00057 5 8.00114 5 8.00171C5 9.10533 5.44772 10 6 10C6.55228 10 7 9.10533 7 8.00171L7 8L7.00409 8C8.1064 8 9 7.55228 9 7C9 6.44772 8.1064 6 7.00409 6L6.99992 6C6.99298 4.89303 6.54796 4 6 4C5.45204 4 5.00702 4.89303 5.00008 6Z" fill="white"/>
<path fill-rule="evenodd" clip-rule="evenodd" d="M9.00008 10C7.89526 10.0006 7 10.4481 7 11C7 11.5519 7.89522 11.9994 9 12C9 12.0006 9 12.0011 9 12.0017C9 13.1053 9.44772 14 10 14C10.5523 14 11 13.1053 11 12.0017L11 12L11.0041 12C12.1064 12 13 11.5523 13 11C13 10.4477 12.1064 10 11.0041 10L10.9999 10C10.993 8.89303 10.548 8 10 8C9.45204 8 9.00702 8.89303 9.00008 10Z" fill="white"/>
<path fill-rule="evenodd" clip-rule="evenodd" d="M15.0001 8C13.8953 8.0006 13 8.44809 13 9C13 9.5519 13.8952 9.99937 15 10C15 10.0006 15 10.0011 15 10.0017C15 11.1053 15.4477 12 16 12C16.5523 12 17 11.1053 17 10.0017L17 10L17.0041 10C18.1064 10 19 9.55228 19 9C19 8.44772 18.1064 8 17.0041 8L16.9999 8C16.993 6.89303 16.548 6 16 6C15.452 6 15.007 6.89303 15.0001 8Z" fill="white"/>
<circle cx="6" cy="7" r="0.5" fill="#A600CE"/>
<circle cx="10" cy="11" r="0.5" fill="#A600CE"/>
<circle cx="16" cy="9" r="0.5" fill="#A600CE"/>
</svg>
