<svg width="31" height="31" viewBox="0 0 31 31" fill="none" xmlns="http://www.w3.org/2000/svg">
<g clip-path="url(#clip0_3246_55323)">
<path d="M24.8152 29.7121H4.72519C2.98519 29.7121 1.56519 28.3021 1.56519 26.5521V1.45215H25.1052" fill="white"/>
<path d="M22.4051 7.6123H3.68506V10.2523H22.4051V7.6123Z" fill="#999999"/>
<path d="M22.405 12.4219H13.405V14.6019H22.405V12.4219Z" fill="#999999"/>
<path d="M22.405 16.9521H13.405V19.1321H22.405V16.9521Z" fill="#999999"/>
<path d="M19.905 21.4922H13.405V23.6722H19.905V21.4922Z" fill="#999999"/>
<path d="M11.4351 12.4219H3.68506V23.6719H11.4351V12.4219Z" fill="#44B3EE"/>
<path d="M26.705 30.5821C24.855 30.5821 23.355 29.0821 23.355 27.2321V1.45215H25.095V27.2321C25.095 28.1221 25.815 28.8421 26.705 28.8421C27.595 28.8421 28.315 28.1221 28.315 27.2321V5.85215H30.055V27.2321C30.055 29.0821 28.555 30.5821 26.705 30.5821Z" fill="#999999"/>
<path d="M26.8451 30.582H4.72507C2.50507 30.582 0.695068 28.772 0.695068 26.552V0.582031H25.1051V2.32203H2.43507V26.552C2.43507 27.812 3.46507 28.842 4.72507 28.842H26.8451V30.582Z" fill="#999999"/>
</g>
<defs>
<clipPath id="clip0_3246_55323">
<rect width="30" height="30" fill="white" transform="translate(0.375 0.582031)"/>
</clipPath>
</defs>
</svg>
