<svg width="22" height="22" viewBox="0 0 22 22" fill="none" xmlns="http://www.w3.org/2000/svg">
<g id="menuicon/icon_solive24">
<path id="Clip 2" fill-rule="evenodd" clip-rule="evenodd" d="M7.92406 2C8.23968 2 8.55565 2.04041 8.86953 2.12437L17.2827 4.37868C18.9061 4.8138 19.9871 6.28984 20 7.89723V7.95785C19.9976 8.25989 19.9571 8.56575 19.8756 8.87023L17.6213 17.2824C17.1841 18.9148 15.6941 19.9986 14.0766 20C13.7603 19.9997 13.4443 19.9596 13.1305 19.8756L4.71695 17.6213C3.08866 17.1852 2.00662 15.7014 2 14.0885C2.00105 13.753 2.04146 13.4405 2.12437 13.1301L4.37868 4.71799C4.81589 3.08518 6.30622 2.00139 7.92406 2Z" fill="#DD3D3D"/>
<path id="Path" fill-rule="evenodd" clip-rule="evenodd" d="M15 11L8 15L8 7L15 11Z" fill="white"/>
</g>
</svg>
