<svg width="21" height="21" viewBox="0 0 21 21" fill="none" xmlns="http://www.w3.org/2000/svg">
<path fill-rule="evenodd" clip-rule="evenodd" d="M10.1182 12.4236L8.11344 11.324L7.10889 15.4509L10.1182 12.4236Z" fill="#002B80"/>
<path fill-rule="evenodd" clip-rule="evenodd" d="M6.3575 12.4236L4.35568 11.324L3.34985 15.4509L6.3575 12.4236Z" fill="#002B80"/>
<path fill-rule="evenodd" clip-rule="evenodd" d="M7.26656 16.9611L5.26474 15.8606L4.25891 19.9176L7.26656 16.9611Z" fill="#002B80"/>
<path fill-rule="evenodd" clip-rule="evenodd" d="M11.0272 16.9611L9.0225 15.8606L8.01794 19.9176L11.0272 16.9611Z" fill="#002B80"/>
<path fill-rule="evenodd" clip-rule="evenodd" d="M12.0256 9.00854L11.4091 13.6714H13.3444L11.4091 19.9176L16.8636 11.917H14.5515L15.9397 9.00854H12.0256Z" fill="#DAAF00"/>
<path fill-rule="evenodd" clip-rule="evenodd" d="M17.0619 5.13361C17.0619 5.23308 17.0619 5.38164 17.0074 5.48087C18.0334 6.02519 18.6275 6.86697 18.6819 7.95559C18.4706 9.64671 17.4368 10.6317 15.5803 10.8146L16.6604 8.55393H11.6273L11.3268 10.8267H3.56057C2.75091 10.7279 2.37275 10.4315 2.31824 9.73851C2.37275 9.09496 2.75091 8.6979 3.56057 8.6979C3.6687 8.6979 3.8311 8.6979 3.99208 8.74793V8.6979C4.15461 6.96573 5.2348 5.97539 7.23292 5.82672H7.34144C7.23292 5.62872 7.23292 5.38164 7.23292 5.13361C7.23292 3.89596 7.77295 2.9055 8.6914 2.11352C9.5548 1.27257 10.7435 0.875982 12.0935 0.82666C13.5508 0.875982 14.6852 1.27257 15.6034 2.11352C16.5214 2.9055 17.0074 3.89596 17.0619 5.13361Z" fill="#A1A1A1"/>
</svg>
