<?xml version="1.0" encoding="UTF-8"?>
<svg id="_レイヤー_1" data-name="レイヤー_1" xmlns="http://www.w3.org/2000/svg" width="44" height="44" version="1.1" viewBox="0 0 44 44">
  <!-- Generator: Adobe Illustrator 30.0.0, SVG Export Plug-In . SVG Version: 2.1.1 Build 123)  -->
  <defs>
    <style>
      .st0 {
        fill: #87b9ec;
      }
    </style>
  </defs>
  <g id="_材料">
    <g>
      <path class="st0" d="M8.4,28.7c0,.9,0,1.8.3,2.6h0c.1.6.6,1,1.1,1.3,1,.5,1.8,1.3,2.4,1.9.9,1,1.4,1.4,2.5,1.4s1.6-.5,2.5-1.4c1-1,2.4-2.4,4.9-2.4s3.9,1.4,4.9,2.4c.9,1,1.4,1.4,2.5,1.4s1.6-.5,2.5-1.4c.6-.6,1.3-1.3,2.3-1.8s.9-.7,1-1.2,0,0,0,0c.2-.8.3-1.7.3-2.6,0-4.7-2.6-8.8-6.5-11,2.1-1.8,3.4-4.3,3.4-7.1,0-5.3-4.7-9.6-10.6-9.6s-10.6,4.3-10.6,9.6,1.3,5.3,3.4,7.1c-3.9,2.3-6.5,6.4-6.5,11l.2-.2Z"/>
      <path class="st0" d="M29.5,43c-2.6,0-3.9-1.4-4.9-2.4-.9-1-1.4-1.4-2.5-1.4s-1.6.5-2.5,1.4c-1,1-2.4,2.4-4.9,2.4s-3.9-1.4-4.9-2.4c-.9-1-1.4-1.4-2.5-1.4s-1.6.5-2.5,1.4c-.6.6-1.2,1.3-2.2,1.8-.8.4-1.8,0-2.3-.7-.4-.8,0-1.8.7-2.3.5-.2.9-.7,1.3-1.1,1-1,2.4-2.4,4.9-2.4s3.9,1.4,4.9,2.4c.9,1,1.4,1.4,2.5,1.4s1.6-.5,2.5-1.4,2.4-2.4,4.9-2.4,3.9,1.4,4.9,2.4c.9,1,1.4,1.4,2.5,1.4s1.6-.5,2.5-1.4c1-1,2.4-2.4,4.9-2.4s3.9,1.4,4.9,2.4c.4.5.8.9,1.3,1.1.8.5,1.1,1.5.6,2.3s-1.5,1.1-2.3.6-1.5-1.1-2-1.7c-.9-1-1.4-1.4-2.5-1.4s-1.6.5-2.5,1.4-2.4,2.4-4.9,2.4h0Z"/>
    </g>
  </g>
</svg>