<svg width="22" height="22" viewBox="0 0 22 22" fill="none" xmlns="http://www.w3.org/2000/svg">
<path fill-rule="evenodd" clip-rule="evenodd" d="M17.5617 19.8242C16.996 19.8242 16.4706 19.6802 16.1277 19.5276L2.50599 11.719C2.17684 11.5305 2.0637 11.1113 2.25227 10.783C2.43999 10.4539 2.85827 10.3399 3.18741 10.5293L16.7491 18.3062C16.7483 18.3062 16.7483 18.3062 16.7491 18.3062C16.7594 18.3062 17.962 18.8059 18.5466 18.0096C18.7711 17.7053 19.198 17.6402 19.5066 17.8639C19.8108 18.0893 19.876 18.5179 19.6514 18.823C19.09 19.5859 18.292 19.8242 17.5617 19.8242Z" fill="#2CA7E0"/>
<path fill-rule="evenodd" clip-rule="evenodd" d="M19.0157 3.71426C19.0157 4.58769 18.306 5.2974 17.4282 5.2974C16.5514 5.2974 15.8417 4.58769 15.8417 3.71426C15.8417 2.83655 16.5514 2.12683 17.4282 2.12683C18.306 2.12683 19.0157 2.83655 19.0157 3.71426Z" fill="#2CA7E0"/>
<path fill-rule="evenodd" clip-rule="evenodd" d="M13.9063 4.1395C14.616 4.1395 15.6608 4.57493 15.6608 5.61893C15.6608 6.66379 14.9914 8.59236 14.9914 8.59236C14.9914 8.59236 16.7426 9.7375 17.1771 10.0889C18.0917 10.8261 17.7806 11.4852 16.5583 10.9701C14.5723 10.1292 13.6414 9.71779 13.4914 9.19493C13.344 8.6695 13.4743 7.60836 13.4743 7.60836L12.3291 8.08665L7.47513 4.5175C7.47513 4.5175 7.02941 4.8355 6.79455 4.8355C6.5597 4.8355 6.28198 4.66493 6.28198 4.66493L6.82113 3.93807L6.24255 3.23179L7.04655 3.57379C7.03198 3.57379 7.54455 2.9035 7.54455 2.9035C7.54455 2.9035 7.80855 3.06122 7.87027 3.37236C7.93284 3.68436 7.81884 3.98179 7.81884 3.98179L9.90855 5.51522C9.90855 5.51522 11.1403 4.1395 13.9063 4.1395Z" fill="#2CA7E0"/>
<path fill-rule="evenodd" clip-rule="evenodd" d="M8.76965 6.94147C8.76965 6.94147 12.7039 9.69375 13.2268 10.106C13.7522 10.5175 14.9977 11.606 13.6854 13.22C12.3997 14.7998 11.0231 16.3469 11.0231 16.3469L10.2362 16.0092L9.22908 15.4863C9.22908 15.4863 11.1208 13.1258 11.4551 12.6775C11.7937 12.2283 11.6865 11.8572 11.2279 11.5152C10.7857 11.1843 10.0357 10.7489 9.36965 10.2869C8.71308 9.82747 7.68537 8.42861 8.76965 6.94147Z" fill="#2CA7E0"/>
</svg>
