<svg width="22" height="22" viewBox="0 0 22 22" fill="none" xmlns="http://www.w3.org/2000/svg">
<path d="M6.18209 2.70596L5.76409 2.28796L2.28809 5.76396L2.70609 6.18196C3.08009 6.55596 3.19009 7.14996 3.05809 7.78796C2.70609 9.26196 2.99209 10.736 3.98209 11.748L13.9921 21.758C14.2561 22.022 16.1921 20.482 18.3261 18.348C20.4601 16.214 22.0001 14.256 21.7361 13.992L11.7261 3.98196C10.7361 2.99196 9.26209 2.70596 7.76609 3.05796C7.15009 3.21196 6.55609 3.10196 6.18209 2.70596Z" fill="#D1FFFF"/>
<path d="M18.3042 10.8459L17.6442 11.5059L17.4462 11.3079L18.1062 10.6479L18.3042 10.8459ZM17.2482 11.9019L16.5002 12.6499L16.3022 12.4519L17.0502 11.7039L17.2482 11.9019ZM16.1262 13.0239L15.3782 13.7719L15.1802 13.5959L15.9282 12.8479L16.1262 13.0239ZM15.0042 14.1679L14.2562 14.9159L14.0582 14.7179L14.8062 13.9699L15.0042 14.1679ZM13.8602 15.2899L13.1122 16.0379L12.9142 15.8399L13.6622 15.0919L13.8602 15.2899ZM12.7382 16.4119L11.9902 17.1599L11.7922 16.9619L12.5402 16.2139L12.7382 16.4119ZM11.6162 17.5559L10.8682 18.3039L10.6702 18.1059L11.4182 17.3579L11.6162 17.5559Z" fill="#F40000"/>
<path d="M14.9822 7.52399L14.2342 8.27199L14.0362 8.07399L14.7842 7.32599L14.9822 7.52399ZM13.8382 8.64599L13.0902 9.39399L12.8922 9.19599L13.6402 8.44799L13.8382 8.64599ZM12.7162 9.78999L11.9682 10.538L11.7702 10.34L12.5182 9.59199L12.7162 9.78999ZM11.5722 10.912L10.8242 11.66L10.6262 11.462L11.3742 10.714L11.5722 10.912ZM10.4502 12.034L9.70217 12.782L9.50417 12.584L10.2522 11.836L10.4502 12.034ZM9.32817 13.178L8.58017 13.926L8.38217 13.728L9.13017 12.98L9.32817 13.178ZM8.18417 14.3L7.52417 14.96L7.32617 14.762L7.98617 14.102L8.18417 14.3Z" fill="#F40000"/>
<path d="M11.6602 4.20197L11.0002 4.86197L10.8021 4.66397L11.4621 4.00397L11.6602 4.20197ZM10.6262 5.25797L9.87815 6.00597L9.68015 5.82997L10.4282 5.08197L10.6262 5.25797ZM9.48215 6.37997L8.73415 7.12797L8.53615 6.92997L9.28415 6.18197L9.48215 6.37997ZM8.36015 7.52397L7.61215 8.27197L7.41415 8.07397L8.16215 7.32597L8.36015 7.52397ZM7.21615 8.64597L6.46815 9.39397L6.27015 9.19597L7.01815 8.44797L7.21615 8.64597ZM6.09415 9.78997L5.34615 10.538L5.14815 10.34L5.89615 9.59197L6.09415 9.78997ZM4.97215 10.912L4.20215 11.66L4.00415 11.462L4.75215 10.714L4.97215 10.912Z" fill="#F40000"/>
<path d="M5.63209 3.21197C6.20409 3.69597 7.01809 3.84997 7.87609 3.65197C9.17409 3.34397 10.3841 3.60797 11.1541 4.39997L21.0541 14.3C20.6801 14.894 19.6021 16.214 17.9081 17.93C16.2141 19.646 14.8941 20.702 14.3001 21.076L4.40009 11.176C3.60809 10.384 3.34409 9.19597 3.65209 7.89797C3.85009 7.03997 3.69609 6.22597 3.21209 5.65397L5.63209 3.21197ZM5.63209 2.08997L2.09009 5.63197L2.53009 6.07197C2.90409 6.44597 3.03609 7.06197 2.88209 7.69997C2.50809 9.21797 2.81609 10.714 3.82809 11.748L14.0581 21.978C14.3221 22.242 16.3021 20.68 18.4801 18.48C20.6581 16.28 22.2201 14.322 21.9561 14.058L11.7481 3.82797C10.7361 2.81597 9.21809 2.50797 7.70009 2.88197C7.06209 3.03597 6.44609 2.92597 6.07209 2.52997L5.63209 2.08997Z" fill="#B0EAFF"/>
<path d="M5.6391 2.0954L2.09229 5.64221L2.27896 5.82889L5.82577 2.28207L5.6391 2.0954Z" fill="#88B3FF"/>
<path d="M1.76004 1.75998C0.660044 2.85998 -0.109956 3.84998 0.0220443 3.98198L1.84804 5.80798C1.87004 5.82998 1.93604 5.82998 1.98004 5.78598L5.78604 1.97998C5.83004 1.93598 5.83004 1.89198 5.80804 1.84798L3.98204 0.0219833C3.85004 -0.110017 2.86004 0.659983 1.76004 1.75998Z" fill="#B3D9FF"/>
</svg>
