<svg width="21" height="21" viewBox="0 0 21 21" fill="none" xmlns="http://www.w3.org/2000/svg">
<path fill-rule="evenodd" clip-rule="evenodd" d="M10.5 1.73572L14.1364 6.28117C14.1364 6.28117 11.6994 7.19237 10.5 7.19237C9.30058 7.19237 6.86365 6.28117 6.86365 6.28117L10.5 1.73572Z" fill="#05A20E"/>
<path fill-rule="evenodd" clip-rule="evenodd" d="M10.5 4.46301L15.0455 9.00847C15.0455 9.00847 12.0057 9.917 10.5 9.917C8.9944 9.917 5.95459 9.00847 5.95459 9.00847L10.5 4.46301Z" fill="#05A20E"/>
<path fill-rule="evenodd" clip-rule="evenodd" d="M10.5 7.19031L15.9545 12.6449C15.9545 12.6449 12.3054 13.5556 10.5 13.5556C8.69446 13.5556 5.04541 12.6449 5.04541 12.6449L10.5 7.19031Z" fill="#05A20E"/>
<path fill-rule="evenodd" clip-rule="evenodd" d="M10.5 9.91748L16.8636 16.2811C16.8636 16.2811 12.6042 17.1902 10.5 17.1902C8.39576 17.1902 4.13635 16.2811 4.13635 16.2811L10.5 9.91748Z" fill="#05A20E"/>
<path fill-rule="evenodd" clip-rule="evenodd" d="M9.59085 16.2811H11.409C11.409 16.2811 11.5218 17.4593 11.6818 18.0993C11.8418 18.7393 12.3181 19.9175 12.3181 19.9175H8.68176C8.68176 19.9175 9.17494 18.6721 9.31813 18.0993C9.46131 17.5266 9.59085 16.2811 9.59085 16.2811Z" fill="#8B580A"/>
<path fill-rule="evenodd" clip-rule="evenodd" d="M3.68178 2.64478L5.28885 3.31044L5.95451 4.9175L5.28885 6.52456L3.68178 7.19023L2.07472 6.52456L1.40906 4.9175L2.07472 3.31044L3.68178 2.64478Z" fill="#EBEB66"/>
<path fill-rule="evenodd" clip-rule="evenodd" d="M11.8636 9.91748L12.8279 10.3169L13.2273 11.2811L12.8279 12.2454L11.8636 12.6448L10.8994 12.2454L10.5 11.2811L10.8994 10.3169L11.8636 9.91748Z" fill="#EBEB66"/>
<path fill-rule="evenodd" clip-rule="evenodd" d="M17.3182 9.91748L17.6396 10.0506L17.7727 10.372L17.6396 10.6934L17.3182 10.8266L16.9968 10.6934L16.8636 10.372L16.9968 10.0506L17.3182 9.91748Z" fill="#EBEB66"/>
<path fill-rule="evenodd" clip-rule="evenodd" d="M18.2273 15.3721L19.1915 15.7715L19.5909 16.7357L19.1915 17.6999L18.2273 18.0993L17.263 17.6999L16.8636 16.7357L17.263 15.7715L18.2273 15.3721Z" fill="#EBEB66"/>
<path fill-rule="evenodd" clip-rule="evenodd" d="M15.0454 3.55396L15.6883 3.82022L15.9545 4.46305L15.6883 5.10587L15.0454 5.37214L14.4026 5.10587L14.1364 4.46305L14.4026 3.82022L15.0454 3.55396Z" fill="#EBEB66"/>
<path fill-rule="evenodd" clip-rule="evenodd" d="M13.6818 18.0994L14.0033 18.2325L14.1364 18.5539L14.0033 18.8753L13.6818 19.0085L13.3604 18.8753L13.2273 18.5539L13.3604 18.2325L13.6818 18.0994Z" fill="#EBEB66"/>
<path fill-rule="evenodd" clip-rule="evenodd" d="M9.13631 7.19031L9.45772 7.32344L9.59085 7.64485L9.45772 7.96627L9.13631 8.0994L8.8149 7.96627L8.68176 7.64485L8.8149 7.32344L9.13631 7.19031Z" fill="#EBEB66"/>
<path fill-rule="evenodd" clip-rule="evenodd" d="M8.22725 13.554L8.54866 13.6871L8.6818 14.0085L8.54866 14.3299L8.22725 14.463L7.90584 14.3299L7.77271 14.0085L7.90584 13.6871L8.22725 13.554Z" fill="#EBEB66"/>
<path fill-rule="evenodd" clip-rule="evenodd" d="M6.40901 1.73572L6.73043 1.86885L6.86356 2.19026L6.73043 2.51168L6.40901 2.64481L6.0876 2.51168L5.95447 2.19026L6.0876 1.86885L6.40901 1.73572Z" fill="#EBEB66"/>
<path fill-rule="evenodd" clip-rule="evenodd" d="M18.2273 1.73572L19.1915 2.13512L19.5909 3.09935L19.1915 4.06359L18.2273 4.46299L17.263 4.06359L16.8636 3.09935L17.263 2.13512L18.2273 1.73572Z" fill="#EBEB66"/>
<path fill-rule="evenodd" clip-rule="evenodd" d="M4.13639 9.00842L4.77921 9.27469L5.04548 9.91751L4.77921 10.5603L4.13639 10.8266L3.49356 10.5603L3.22729 9.91751L3.49356 9.27469L4.13639 9.00842Z" fill="#EBEB66"/>
<path fill-rule="evenodd" clip-rule="evenodd" d="M6.86356 17.1903L7.50638 17.4566L7.77265 18.0994L7.50638 18.7422L6.86356 19.0085L6.22073 18.7422L5.95447 18.0994L6.22073 17.4566L6.86356 17.1903Z" fill="#EBEB66"/>
<path fill-rule="evenodd" clip-rule="evenodd" d="M2.77269 13.554L3.73693 13.9534L4.13633 14.9176L3.73693 15.8818L2.77269 16.2812L1.80846 15.8818L1.40906 14.9176L1.80846 13.9534L2.77269 13.554Z" fill="#EBEB66"/>
</svg>
