<?xml version="1.0" encoding="UTF-8"?>
<svg xmlns="http://www.w3.org/2000/svg" width="30" height="30" version="1.1" viewBox="0 0 30 30">
  <defs>
    <style>
      .cls-1 {
        fill: #696;
      }

      .cls-2 {
        fill: #eaaf3b;
      }

      .cls-3 {
        fill: #fff;
      }

      .cls-4 {
        fill: #ffae00;
      }

      .cls-5 {
        fill: none;
        stroke: #c93;
        stroke-linecap: round;
        stroke-miterlimit: 10;
        stroke-width: 2px;
      }

      .cls-6 {
        display: none;
      }
    </style>
  </defs>
  <!-- Generator: Adobe Illustrator 28.6.0, SVG Export Plug-In . SVG Version: 1.2.0 Build 709)  -->
  <g>
    <g id="_レイヤー_1" data-name="レイヤー_1">
      <g id="_レイヤー_1-2" data-name="_レイヤー_1">
        <g id="_レイヤー_2" class="cls-6">
          <g>
            <circle class="cls-4" cx="541.8" cy="751.3" r="7.2"/>
            <g>
              <polygon class="cls-4" points="541.8 739.9 540.2 742.6 543.4 742.6 541.8 739.9"/>
              <polygon class="cls-4" points="541.8 762.8 543.4 760 540.2 760 541.8 762.8"/>
            </g>
            <g>
              <polygon class="cls-4" points="536.1 741.4 536.1 744.6 538.9 743 536.1 741.4"/>
              <polygon class="cls-4" points="547.6 761.2 547.6 758 544.8 759.6 547.6 761.2"/>
            </g>
            <g>
              <polygon class="cls-4" points="531.9 745.6 533.5 748.4 535.1 745.6 531.9 745.6"/>
              <polygon class="cls-4" points="551.7 757 550.1 754.3 548.5 757 551.7 757"/>
            </g>
            <g>
              <polygon class="cls-4" points="530.4 751.3 533.1 752.9 533.1 749.7 530.4 751.3"/>
              <polygon class="cls-4" points="553.3 751.3 550.5 749.7 550.5 752.9 553.3 751.3"/>
            </g>
            <g>
              <polygon class="cls-4" points="531.9 757 535.1 757 533.5 754.3 531.9 757"/>
              <polygon class="cls-4" points="551.7 745.6 548.5 745.6 550.1 748.4 551.7 745.6"/>
            </g>
            <g>
              <polygon class="cls-4" points="536.1 761.2 538.9 759.6 536.1 758 536.1 761.2"/>
              <polygon class="cls-4" points="547.6 741.4 544.8 743 547.6 744.6 547.6 741.4"/>
            </g>
          </g>
        </g>
      </g>
      <line class="cls-5" x1="1.1" y1="13.1" x2="23.6" y2="13.1"/>
      <path class="cls-5" d="M19.2,8.7c0-2.5,2-4.4,4.4-4.4s4.4,2,4.4,4.4-2,4.4-4.4,4.4"/>
      <line class="cls-5" x1="7.1" y1="16.7" x2="23.6" y2="16.7"/>
      <path class="cls-5" d="M21.1,19.9c.3,1,1.3,1.8,2.4,1.8s2.5-1.1,2.5-2.5-1.1-2.5-2.5-2.5"/>
      <circle class="cls-2" cx="10.6" cy="2" r="1"/>
      <circle class="cls-2" cx="4.7" cy="6.7" r="1"/>
      <circle class="cls-2" cx="16.4" cy="4.7" r="1"/>
      <line class="cls-5" x1="4.5" y1="9.5" x2="13.9" y2="9.5"/>
      <g>
        <path class="cls-1" d="M10.4,29.3v-1.1c-4.3-.6-7.7-4-8.2-8.3H1v-2.5h1.2c.6-4.2,4-7.5,8.2-8.1v-1.3h2.5v1.3c4.2.6,7.6,3.9,8.2,8.1h1.3v2.5h-1.3c-.5,4.3-3.9,7.7-8.2,8.3v1.1h-2.5ZM4.4,20c.5,3.1,2.9,5.5,5.9,6v-6h-5.9ZM12.9,26c3.1-.5,5.5-2.9,5.9-6h-5.9v6ZM18.7,17.5c-.6-3-2.9-5.3-5.9-5.8v5.8h5.9ZM10.4,17.5v-5.8c-3,.5-5.4,2.8-5.9,5.8h5.9Z"/>
        <path class="cls-3" d="M12.6,8.3v1.3c4.3.5,7.7,3.9,8.2,8.1h1.3v2h-1.3c-.4,4.4-3.9,7.9-8.2,8.3v1.1h-2v-1.1c-4.3-.5-7.8-4-8.2-8.3h-1.2v-2h1.2c.5-4.3,3.9-7.7,8.2-8.1v-1.3h2M4.2,17.7h6.4v-6.4c-3.4.4-6,3-6.4,6.4M12.6,17.7h6.4c-.5-3.3-3.1-5.9-6.4-6.4v6.4M12.6,26.3c3.4-.4,6.1-3.1,6.5-6.6h-6.5v6.6M10.6,26.3v-6.6h-6.5c.4,3.5,3,6.1,6.5,6.6M13.1,7.8h-3v1.3c-4.1.6-7.5,3.9-8.1,8.1H.7v3h1.2c.6,4.2,4,7.6,8.2,8.3v1.1h3v-1.1c4.2-.7,7.6-4,8.2-8.3h1.3v-3h-1.4c-.7-4.1-4-7.4-8.1-8.1v-1.3h0ZM4.8,17.2c.6-2.7,2.7-4.7,5.3-5.3v5.3h-5.3ZM13.1,17.2v-5.3c2.6.6,4.7,2.6,5.3,5.3h-5.3ZM13.1,20.2h5.4c-.5,2.7-2.7,4.9-5.4,5.5v-5.5h0ZM4.7,20.2h5.4v5.5c-2.7-.6-4.8-2.7-5.4-5.5h0Z"/>
      </g>
    </g>
  </g>
</svg>