<svg width="22" height="22" viewBox="0 0 22 22" fill="none" xmlns="http://www.w3.org/2000/svg">
<rect width="22" height="22" rx="4" fill="#11044B"/>
<mask id="mask0_47_2056" style="mask-type:luminance" maskUnits="userSpaceOnUse" x="0" y="0" width="22" height="22">
<rect width="22" height="22" rx="4" fill="white"/>
</mask>
<g mask="url(#mask0_47_2056)">
<ellipse cx="17" cy="18.5" rx="3" ry="2.5" fill="#158900"/>
<ellipse cx="4" cy="18.5" rx="6" ry="5.5" fill="#1FC700"/>
<circle cx="11" cy="20" r="4" fill="#1FC700"/>
<circle cx="15.5" cy="20.5" r="2.5" fill="#1FC700"/>
<circle cx="20.5" cy="19.5" r="4.5" fill="#1FC700"/>
<circle cx="9" cy="4" r="1" fill="#FFFFCC"/>
<circle cx="13" cy="8" r="1" fill="#FFFFCC"/>
<circle cx="12" cy="14" r="1" fill="#FFFFCC"/>
<circle cx="2" cy="16" r="1" fill="#FFFFCC"/>
<circle cx="6" cy="20" r="1" fill="#FFFFCC"/>
<circle cx="10.5" cy="18.5" r="0.5" fill="#FFFFCC"/>
<circle cx="20.5" cy="16.5" r="0.5" fill="#FFFFCC"/>
<circle cx="4" cy="9" r="1" fill="#FFFFCC"/>
<circle cx="6.5" cy="6.5" r="0.5" fill="#FFFFCC"/>
<circle cx="2.5" cy="2.5" r="0.5" fill="#FFFFCC"/>
<circle cx="20.5" cy="10.5" r="0.5" fill="#FFFFCC"/>
<circle cx="10.5" cy="11.5" r="0.5" fill="#FFFFCC"/>
<circle cx="15.5" cy="12.5" r="0.5" fill="#FFFFCC"/>
<circle cx="19.5" cy="2.5" r="0.5" fill="white"/>
<circle cx="14.5" cy="2.5" r="0.5" fill="white"/>
<circle cx="19.5" cy="6.5" r="0.5" fill="white"/>
</g>
<mask id="mask1_47_2056" style="mask-type:luminance" maskUnits="userSpaceOnUse" x="0" y="0" width="22" height="22">
<rect width="22" height="22" rx="4" fill="white"/>
</mask>
<g mask="url(#mask1_47_2056)">
</g>
</svg>
