<svg width="20" height="20" viewBox="0 0 20 20" fill="none" xmlns="http://www.w3.org/2000/svg">
<path fill-rule="evenodd" clip-rule="evenodd" d="M17 0.000183105V2.99998V3.076V18C17 18.5523 17.4477 19 18 19C18.5523 19 19 18.5523 19 18V3.076H19.9997V16.9244C19.9997 19.9511 18.1232 20.0002 18.1232 20.0002H2.49882C-0.000299454 20.0002 -0.000299454 16.9244 -0.000299454 16.9244V0.000183105H17Z" fill="#999999"/>
<path fill-rule="evenodd" clip-rule="evenodd" d="M2.2541 19C1 19 1 17.3664 1 17.3664V1H16.0767V17.3664C16.0767 18.1172 16.2542 18.6399 16.5 19H2.2541Z" fill="white"/>
<path fill-rule="evenodd" clip-rule="evenodd" d="M2.49049 6.28993H14.9472V4.71912H2.49049V6.28993Z" fill="#999999"/>
<path fill-rule="evenodd" clip-rule="evenodd" d="M9.34244 15.7286H13.7031V14.1538H9.34244V15.7286Z" fill="#999999"/>
<path fill-rule="evenodd" clip-rule="evenodd" d="M9.34244 12.583H14.9472V11.0082H9.34244V12.583Z" fill="#999999"/>
<path fill-rule="evenodd" clip-rule="evenodd" d="M9.34244 9.43839H14.9472V7.86365H9.34244V9.43839Z" fill="#999999"/>
<path fill-rule="evenodd" clip-rule="evenodd" d="M2.49049 15.7275H8.09521V7.86365H2.49049V15.7275Z" fill="#44B3EE"/>
</svg>
