<?xml version="1.0" encoding="UTF-8"?>
<svg id="_レイヤー_1" data-name="レイヤー_1" xmlns="http://www.w3.org/2000/svg" version="1.1" viewBox="0 0 30 30">
  <!-- Generator: Adobe Illustrator 29.8.1, SVG Export Plug-In . SVG Version: 2.1.1 Build 2)  -->
  <defs>
    <style>
      .st0 {
        fill: #269463;
      }
    </style>
  </defs>
  <circle class="st0" cx="12.2" cy="5.6" r="2.1"/>
  <path class="st0" d="M12.5,30l-3.2-3.2s-.3-.4.1-.4,1.7,0,1.7,0c0,0,1,0,1.7.7.7.7,2.8,2.8,2.8,2.8h-3.2Z"/>
  <path class="st0" d="M0,0v30h10.4l-3.5-3.5v-12.4h2.3c1,0,1.5-.8,1.5-.8l1.5-1.9,1.6,4-4.8,9.9s-.3.5.2.5h1.6c.9,0,1.3-.8,1.3-.8l4.1-8.6s.4,3.6.5,4.7c.1,1.2,1.1,1.1,1.1,1.1h7.3c.2,0,.3-.1.2-.4,0-.2-.2-.5-.4-.9-.4-.9-1.3-1-1.3-1h-4.6l-.5-5.5-1.7-4.3h2.2s1.1,2,1.3,2.5c.3.5.7.8,1.4.5.7-.3.4-1.1.4-1.1,0,0-1-2-1.6-3.1s-1.7-1.1-1.7-1.1h-5.5c-1.5,0-2.3,1.3-2.3,1.3l-2.1,2.6h-2.1V2.3h16.3v16.7h.5s0,0,0,0c.6,0,1.7.4,2.2,1.6.2.4.3.7.4.9.2.4.1.9-.1,1.2-.2.3-.6.5-1,.5h-2v3.2l3.5,3.5h3.3V0H0Z"/>
</svg>