<?xml version="1.0" encoding="UTF-8"?>
<svg xmlns="http://www.w3.org/2000/svg" width="30" height="30" version="1.1" viewBox="0 0 30 30">
  <defs>
    <style>
      .cls-1 {
        fill: #54a4ff;
      }

      .cls-2 {
        fill: #45b653;
      }

      .cls-3 {
        fill: #987e44;
      }
    </style>
  </defs>
  <!-- Generator: Adobe Illustrator 28.7.7, SVG Export Plug-In . SVG Version: 1.2.0 Build 194)  -->
  <g>
    <g id="_レイヤー_1" data-name="レイヤー_1">
      <g>
        <path class="cls-1" d="M25.1,0c.2,0,.4,0,.5.2,3.8,4.8,1.2,9-3.5,13.2-4.9,4.3-1.4,10.3,2.7,14.6.7.7.2,1.9-.8,1.9H1.3c-.5,0-.8-.4-.9-.8-.2-2.6.1-10.4,8.8-15.4C13.6,11.2,28.4,7.1,22,.5,21.8.3,21.9,0,22.2,0c1,0,2.9,0,2.9,0Z"/>
        <g>
          <path class="cls-3" d="M7.7,12.9h-1.1c-.2,0-.3-.2-.3-.3l.3-2.6h1.2l.3,2.6c0,.2-.1.3-.3.3Z"/>
          <path class="cls-2" d="M7.1,2.6c-1.9,0-3.5,3.3-3.2,5.5.2,2.3,1.7,3,3.2,3s3-.7,3.2-3c.2-2.3-1.4-5.5-3.2-5.5Z"/>
        </g>
        <g>
          <path class="cls-3" d="M26.7,24.6h-1.2c-.2,0-.3-.2-.3-.3l.3-2.8h1.3l.3,2.8c0,.2-.1.3-.3.3Z"/>
          <path class="cls-2" d="M26.1,13.5c-2,0-3.7,3.5-3.5,6,.2,2.5,1.8,3.3,3.5,3.3s3.3-.8,3.5-3.3-1.5-6-3.5-6Z"/>
        </g>
      </g>
    </g>
  </g>
</svg>