<svg width="22" height="22" viewBox="0 0 22 22" fill="none" xmlns="http://www.w3.org/2000/svg">
<rect width="22" height="22" rx="4" fill="#11044B"/>
<rect x="9" y="17" width="4" height="4" fill="#C37E3D"/>
<path fill-rule="evenodd" clip-rule="evenodd" d="M15 12L11 6L7 12C7 12 7.67117 12.3352 8.62486 12.6175L4 17.7143C4 17.7143 7.50368 19 11.0068 19C14.51 19 18 17.7143 18 17.7143L13.3762 12.6186C14.3297 12.3361 15 12 15 12Z" fill="#009932"/>
<circle cx="12" cy="11" r="1" fill="#FFFFCC"/>
<circle cx="8" cy="16" r="1" fill="#FFFFCC"/>
<circle cx="9.5" cy="11.5" r="0.5" fill="#FFFFCC"/>
<circle cx="11.5" cy="13.5" r="0.5" fill="#FFFFCC"/>
<circle cx="14.5" cy="15.5" r="0.5" fill="#FFFFCC"/>
<path fill-rule="evenodd" clip-rule="evenodd" d="M11 5.5L9.23664 6.42705L9.57342 4.46353L8.14683 3.07295L10.1183 2.78647L11 1L11.8817 2.78647L13.8532 3.07295L12.4266 4.46353L12.7634 6.42705L11 5.5Z" fill="#FFCC00"/>
<circle cx="18.5" cy="3.5" r="1.5" fill="white"/>
<circle cx="20.5" cy="7.5" r="0.5" fill="white"/>
<circle cx="15.5" cy="4.5" r="0.5" fill="white"/>
<circle cx="17.5" cy="9.5" r="0.5" fill="white"/>
<path fill-rule="evenodd" clip-rule="evenodd" d="M4 6L5 6.5L6 6L5.5 7L6 8L5 7.5L4 8L4.5 7L4 6Z" fill="white"/>
<path fill-rule="evenodd" clip-rule="evenodd" d="M1 10L2 10.5L3 10L2.5 11L3 12L2 11.5L1 12L1.5 11L1 10Z" fill="white"/>
<path fill-rule="evenodd" clip-rule="evenodd" d="M2 2L3 2.5L4 2L3.5 3L4 4L3 3.5L2 4L2.5 3L2 2Z" fill="white"/>
</svg>
