<svg width="31" height="31" viewBox="0 0 31 31" fill="none" xmlns="http://www.w3.org/2000/svg">
<g clip-path="url(#clip0_3246_55329)">
<mask id="mask0_3246_55329" style="mask-type:luminance" maskUnits="userSpaceOnUse" x="0" y="0" width="31" height="31">
<path d="M30.375 0.582031H0.375V30.582H30.375V0.582031Z" fill="white"/>
</mask>
<g mask="url(#mask0_3246_55329)">
<path d="M18.975 16.0924C18.975 18.1124 17.335 19.7424 15.325 19.7424C13.305 19.7424 11.675 18.1024 11.675 16.0924C11.675 14.0824 13.305 12.4424 15.325 12.4424C17.335 12.4424 18.975 14.0824 18.975 16.0924Z" fill="white"/>
</g>
<mask id="mask1_3246_55329" style="mask-type:luminance" maskUnits="userSpaceOnUse" x="0" y="0" width="31" height="31">
<path d="M30.375 0.582031H0.375V30.582H30.375V0.582031Z" fill="white"/>
</mask>
<g mask="url(#mask1_3246_55329)">
<path d="M27.4049 8.82192C23.8449 4.53192 18.4449 3.51192 14.0249 4.15192C13.6749 4.20192 13.5049 3.75192 13.8049 3.56192C18.0149 0.901923 23.4349 1.96192 23.4349 1.96192C23.4349 1.96192 15.3449 -2.02808 8.61489 3.55192C4.32489 7.11192 3.30489 12.5119 3.94489 16.9319C3.99489 17.2819 3.54489 17.4519 3.35489 17.1519C0.694892 12.9419 1.75489 7.52192 1.75489 7.52192C1.75489 7.52192 -2.23511 15.6019 3.34489 22.3319C6.90489 26.6219 12.3049 27.6419 16.7249 27.0019C17.0749 26.9519 17.2449 27.4019 16.9449 27.5919C12.7349 30.2519 7.31489 29.1919 7.31489 29.1919C7.31489 29.1919 15.3949 33.1819 22.1249 27.6019C26.4149 24.0419 27.4349 18.6419 26.7949 14.2219C26.7449 13.8719 27.1949 13.7019 27.3849 14.0019C30.0449 18.2119 28.9849 23.6319 28.9849 23.6319C28.9849 23.6319 32.9849 15.5519 27.4049 8.82192ZM15.3749 17.3919C14.3749 17.3919 13.5649 16.5819 13.5649 15.5819C13.5649 14.5819 14.3749 13.7719 15.3749 13.7719C16.3749 13.7719 17.1849 14.5819 17.1849 15.5819C17.1849 16.5819 16.3749 17.3919 15.3749 17.3919Z" fill="#AB60FF"/>
</g>
</g>
<defs>
<clipPath id="clip0_3246_55329">
<rect width="30" height="30" fill="white" transform="translate(0.375 0.582031)"/>
</clipPath>
</defs>
</svg>
