<?xml version="1.0" encoding="UTF-8"?>
<svg id="_レイヤー_1" data-name=" レイヤー 1" xmlns="http://www.w3.org/2000/svg" width="30" height="30" version="1.1" viewBox="0 0 30 30">
  <defs>
    <style>
      .cls-1 {
        fill: #ffae00;
      }

      .cls-1, .cls-2 {
        stroke-width: 0px;
      }

      .cls-2 {
        fill: #0074ff;
      }

      .cls-3 {
        display: none;
      }
    </style>
  </defs>
  <g id="_レイヤー_2" data-name=" レイヤー 2" class="cls-3">
    <g>
      <circle class="cls-1" cx="541.8" cy="751.3" r="7.2"/>
      <g>
        <polygon class="cls-1" points="541.8 739.9 540.2 742.6 543.4 742.6 541.8 739.9"/>
        <polygon class="cls-1" points="541.8 762.8 543.4 760 540.2 760 541.8 762.8"/>
      </g>
      <g>
        <polygon class="cls-1" points="536.1 741.4 536.1 744.6 538.9 743 536.1 741.4"/>
        <polygon class="cls-1" points="547.6 761.2 547.6 758 544.8 759.6 547.6 761.2"/>
      </g>
      <g>
        <polygon class="cls-1" points="531.9 745.6 533.5 748.4 535.1 745.6 531.9 745.6"/>
        <polygon class="cls-1" points="551.7 757 550.1 754.3 548.5 757 551.7 757"/>
      </g>
      <g>
        <polygon class="cls-1" points="530.4 751.3 533.1 752.9 533.1 749.7 530.4 751.3"/>
        <polygon class="cls-1" points="553.3 751.3 550.5 749.7 550.5 752.9 553.3 751.3"/>
      </g>
      <g>
        <polygon class="cls-1" points="531.9 757 535.1 757 533.5 754.3 531.9 757"/>
        <polygon class="cls-1" points="551.7 745.6 548.5 745.6 550.1 748.4 551.7 745.6"/>
      </g>
      <g>
        <polygon class="cls-1" points="536.1 761.2 538.9 759.6 536.1 758 536.1 761.2"/>
        <polygon class="cls-1" points="547.6 741.4 544.8 743 547.6 744.6 547.6 741.4"/>
      </g>
    </g>
  </g>
  <path class="cls-2" d="M27.4,19.3l-2.6,2.6c-.4,0-.7,0-1.1,0-2.5-2.3-4.2-4.6-4.2-6.7s1.7-4.5,4.2-6.8c.4,0,.7,0,1.1,0l2.6,2.6c.5.5,1.3.5,1.9,0s.5-1.3,0-1.9l-2.6-2.6c.2-.8,0-1.8-.7-2.4-.6-.6-1.6-.9-2.4-.7l-2.6-2.6c-.5-.5-1.3-.5-1.9,0-.5.5-.5,1.3,0,1.9l2.6,2.6c0,.4,0,.7,0,1.1-2.3,2.5-4.6,4.2-6.7,4.2s-4.5-1.7-6.7-4.2c0-.4,0-.7,0-1.1l2.6-2.6c.5-.5.5-1.3,0-1.9-.5-.5-1.3-.5-1.9,0l-2.6,2.6c-.8-.2-1.8,0-2.4.7s-.9,1.6-.7,2.4l-2.6,2.6c-.5.5-.5,1.3,0,1.9.5.5,1.3.5,1.9,0l2.6-2.6c.4,0,.7,0,1.1,0,2.5,2.3,4.2,4.6,4.2,6.7s-1.7,4.5-4.2,6.7c-.4,0-.7,0-1.1,0l-2.6-2.6c-.5-.5-1.3-.5-1.9,0-.5.5-.5,1.3,0,1.9l2.6,2.6c-.2.8,0,1.8.7,2.4s1.6.9,2.4.7l2.6,2.6c.5.5,1.3.5,1.9,0,.5-.5.5-1.3,0-1.9l-2.6-2.6c0-.4,0-.7,0-1.1,2.3-2.5,4.6-4.2,6.7-4.2s4.5,1.7,6.7,4.2c0,.4,0,.7,0,1.1l-2.6,2.6c-.5.5-.5,1.3,0,1.9.5.5,1.3.5,1.9,0l2.6-2.6c.8.2,1.8,0,2.4-.7.6-.6.9-1.6.7-2.4l2.6-2.6c.5-.5.5-1.3,0-1.9-.5-.5-1.4-.5-1.9,0Z"/>
</svg>