<?xml version="1.0" encoding="UTF-8"?>
<svg id="_レイヤー_1" data-name=" レイヤー 1" xmlns="http://www.w3.org/2000/svg" width="30" height="30" version="1.1" viewBox="0 0 30 30">
  <defs>
    <style>
      .cls-1 {
        fill: #ffae00;
      }

      .cls-1, .cls-2, .cls-3 {
        stroke-width: 0px;
      }

      .cls-2 {
        fill: #80bb8c;
      }

      .cls-4 {
        display: none;
      }

      .cls-3 {
        fill: #529d98;
      }
    </style>
  </defs>
  <g id="_レイヤー_2" data-name=" レイヤー 2" class="cls-4">
    <g>
      <circle class="cls-1" cx="541.8" cy="751.3" r="7.2"/>
      <g>
        <polygon class="cls-1" points="541.8 739.9 540.2 742.6 543.4 742.6 541.8 739.9"/>
        <polygon class="cls-1" points="541.8 762.8 543.4 760 540.2 760 541.8 762.8"/>
      </g>
      <g>
        <polygon class="cls-1" points="536.1 741.4 536.1 744.6 538.9 743 536.1 741.4"/>
        <polygon class="cls-1" points="547.6 761.2 547.6 758 544.8 759.6 547.6 761.2"/>
      </g>
      <g>
        <polygon class="cls-1" points="531.9 745.6 533.5 748.4 535.1 745.6 531.9 745.6"/>
        <polygon class="cls-1" points="551.7 757 550.1 754.3 548.5 757 551.7 757"/>
      </g>
      <g>
        <polygon class="cls-1" points="530.4 751.3 533.1 752.9 533.1 749.7 530.4 751.3"/>
        <polygon class="cls-1" points="553.3 751.3 550.5 749.7 550.5 752.9 553.3 751.3"/>
      </g>
      <g>
        <polygon class="cls-1" points="531.9 757 535.1 757 533.5 754.3 531.9 757"/>
        <polygon class="cls-1" points="551.7 745.6 548.5 745.6 550.1 748.4 551.7 745.6"/>
      </g>
      <g>
        <polygon class="cls-1" points="536.1 761.2 538.9 759.6 536.1 758 536.1 761.2"/>
        <polygon class="cls-1" points="547.6 741.4 544.8 743 547.6 744.6 547.6 741.4"/>
      </g>
    </g>
  </g>
  <g>
    <path class="cls-2" d="M16.6,23c-2.1-2.5-3.4-5.2-4.4-7.4-.3-.7-.6-1.3-.9-1.8-.7-1.3-1.4-2.1-2.3-2.3,0,0,0,0,0,0h0c-.1,0-.3,0-.4,0-2.9,0-3.6,6.2-8.2,11.8-.4.5-.1,1.4.5,1.4h17.2c-.8-.9-1.4-1.6-1.4-1.6Z"/>
    <path class="cls-3" d="M29.6,22.5c-6.7-8.1-7.6-17.1-11.9-17.1s-3.8,3-5.8,7c.5.8.9,1.6,1.4,2.6,1,2.1,2.3,4.7,4.3,7.1,0,0,1,1.2,2.3,2.4h9.1c.9,0,1.3-1.3.7-2.1Z"/>
  </g>
</svg>