<svg width="23" height="22" viewBox="0 0 23 22" fill="none" xmlns="http://www.w3.org/2000/svg">
<path fill-rule="evenodd" clip-rule="evenodd" d="M22.9999 10.3619L19.8319 8.07395C19.0839 7.54595 18.2919 7.08395 17.4339 6.73195L14.5739 5.54395C14.5519 5.54395 14.5519 5.54394 14.5519 5.56594C14.0679 6.46794 13.1219 7.08395 12.0219 7.08395C10.9219 7.08395 9.9759 6.46794 9.4919 5.56594C9.4919 5.54394 9.4699 5.54395 9.4699 5.54395L6.6099 6.73195C5.7519 7.08395 4.9599 7.52395 4.2119 8.07395L0.999898 10.3619C0.977898 10.3619 0.977898 10.3839 0.999898 10.4059L3.8599 14.2779C3.8599 14.2999 3.8819 14.2999 3.9039 14.2779L6.3899 12.4299C6.4119 12.4079 6.4339 12.4299 6.4339 12.4519L6.3679 21.7139C6.3679 21.7359 6.3899 21.7359 6.3899 21.7359H11.9559H12.0219H17.5879C17.6099 21.7359 17.6099 21.7139 17.6099 21.7139L17.5439 12.4519C17.5439 12.4299 17.5659 12.4079 17.5879 12.4299L20.0739 14.2779C20.0959 14.2779 20.0959 14.2779 20.1179 14.2779L22.9779 10.4059C22.9999 10.3839 22.9999 10.3619 22.9999 10.3619Z" fill="#6BD7CD"/>
<path d="M12.3299 4.57597C12.3079 4.55397 12.3079 4.48797 12.3079 4.44397V3.25597C12.3079 3.21197 12.3079 3.18997 12.3079 3.16797C12.3079 3.16797 12.3299 3.16797 12.3519 3.14597C12.9679 2.94797 13.3859 2.37597 13.3859 1.71597C13.3859 0.879971 12.7039 0.219971 11.8899 0.219971C11.1859 0.219971 10.5259 0.769971 10.4159 1.40797C10.3939 1.56197 10.3719 1.73797 10.4379 1.82597C10.5259 1.97997 10.6799 2.02397 10.8339 1.97997C10.9879 1.93597 11.0539 1.73797 11.0979 1.56197C11.1639 1.18797 11.5159 0.923971 11.8899 0.923971C12.1099 0.923971 12.3079 1.01197 12.4619 1.16597C12.6819 1.38597 12.7479 1.67197 12.6599 1.97997C12.5939 2.22197 12.3959 2.41997 12.1319 2.50797C12.0659 2.52997 11.9999 2.55197 11.9339 2.59597C11.8239 2.66197 11.7359 2.77197 11.6919 2.88197C11.6479 2.99197 11.6259 3.10197 11.6259 3.23397V4.44397C11.6259 4.44397 11.6259 4.55397 11.4719 4.66397L9.93188 5.45597L9.95389 5.49997C10.0639 5.69797 10.1959 5.87397 10.3499 6.02797L10.3719 6.04997L12.0219 5.21397L13.6499 6.04997L13.6719 6.02797C13.8259 5.87397 13.9579 5.69797 14.0679 5.49997L14.0899 5.45597L12.3299 4.57597Z" fill="#666666"/>
</svg>
