<svg width="22" height="22" viewBox="0 0 22 22" fill="none" xmlns="http://www.w3.org/2000/svg">
<g clip-path="url(#clip0_47_2736)">
<path d="M10.9561 22.022C12.3201 22.022 13.7281 21.692 14.0581 21.142C14.1461 20.988 14.1021 20.79 13.9481 20.68C13.5081 20.328 13.2001 19.778 13.0241 19.074C12.8701 18.458 12.8921 17.952 12.8921 17.93C12.8921 17.842 12.8481 17.732 12.7821 17.666C12.7161 17.6 12.6281 17.556 12.5401 17.556H9.30612C9.21812 17.556 9.13012 17.6 9.06412 17.666C8.99812 17.732 8.95412 17.82 8.95412 17.93C8.95412 17.952 8.97612 18.458 8.82212 19.074C8.64612 19.778 8.33812 20.328 7.89812 20.68C7.76612 20.79 7.70012 20.988 7.78812 21.142C8.16212 21.692 9.59212 22.022 10.9561 22.022Z" fill="#FFEADD"/>
<path d="M19.69 10.318C19.25 9.83403 18.612 9.87803 18.348 9.92203C18.26 4.53203 15.356 1.05603 10.934 1.05603C6.51197 1.05603 3.60797 4.53203 3.49797 9.94403C3.23397 9.90003 2.59597 9.83403 2.15597 10.34C1.53997 11 1.95797 12.034 2.08997 12.386C2.44197 13.266 2.83797 13.882 3.29997 14.256C3.76197 14.63 4.17997 14.608 4.26797 14.608C4.28997 14.608 4.28997 14.608 4.31197 14.608C4.39997 14.608 4.48797 14.608 4.57597 14.586C6.02797 17.38 8.71197 19.448 10.912 19.448C13.112 19.448 15.818 17.358 17.248 14.586C17.336 14.608 17.424 14.608 17.512 14.608C17.534 14.608 17.534 14.608 17.556 14.608C17.644 14.608 18.062 14.63 18.524 14.256C18.986 13.904 19.382 13.266 19.734 12.386C19.888 12.034 20.306 11 19.69 10.318Z" fill="#FFEADD"/>
<path d="M18.4579 4.90597C18.3919 4.70797 18.3039 4.55397 18.2159 4.39997C18.1279 4.24597 18.0179 4.09197 17.9299 3.98197C17.7759 3.80597 17.6219 3.65197 17.4459 3.51997C17.4019 3.49797 17.3799 3.47597 17.3359 3.45397C17.1159 3.29997 16.9179 3.18997 16.6979 3.07997C16.3899 2.94797 16.1039 2.85997 15.8839 2.81597C15.7959 2.79397 15.7079 2.77197 15.6419 2.72797C15.5319 2.68397 15.4439 2.59597 15.3779 2.50797C15.3339 2.46397 15.2899 2.39797 15.2679 2.33197C15.2459 2.26597 15.2019 2.22197 15.1579 2.15597C15.1359 2.13397 15.1359 2.11197 15.1139 2.11197C15.0919 2.06797 15.0479 2.02397 15.0259 1.97997C15.0039 1.95797 15.0039 1.93597 14.9819 1.91397C14.9379 1.86997 14.8939 1.80397 14.8499 1.75997L14.8279 1.73797C14.7619 1.67197 14.7179 1.62797 14.6519 1.56197C14.6299 1.53997 14.6079 1.53997 14.6079 1.51797C14.5639 1.47397 14.5199 1.42997 14.4539 1.38597C14.4319 1.36397 14.4099 1.34197 14.3879 1.31997C14.3219 1.27597 14.2779 1.23197 14.2119 1.18797C14.1899 1.16597 14.1899 1.16597 14.1679 1.14397C14.0799 1.07797 14.0139 1.03397 13.9259 0.967973C13.9039 0.945973 13.8819 0.945973 13.8599 0.923973C13.7939 0.879973 13.7279 0.835973 13.6399 0.813973C13.6179 0.791973 13.5739 0.791973 13.5519 0.769973C13.4859 0.725973 13.4199 0.703973 13.3319 0.659973C13.3099 0.637973 13.2879 0.637973 13.2659 0.615973C13.1779 0.571973 13.0679 0.527973 12.9579 0.483973C12.9359 0.483973 12.9139 0.461973 12.9139 0.461973C12.8259 0.417973 12.7379 0.395973 12.6499 0.373973C12.6059 0.351973 12.5839 0.351973 12.5399 0.329973C12.4519 0.307973 12.3859 0.285973 12.2979 0.263973C12.2539 0.263973 12.2319 0.241973 12.1879 0.241973C12.0779 0.219973 11.9459 0.175973 11.8359 0.153973H11.8139C11.7039 0.131973 11.5939 0.109973 11.4619 0.0879727C11.4179 0.0879727 11.3739 0.0879727 11.3519 0.0659727C11.2639 0.0439727 11.1759 0.0439727 11.0659 0.0439727C11.0219 0.0439727 10.9779 0.0439727 10.9339 0.0439727C10.8239 0.0439727 10.6919 0.0219727 10.5819 0.0219727C10.5599 0.0219727 10.5599 0.0219727 10.5379 0.0219727C10.4059 0.0219727 10.2519 0.0219727 10.0979 0.0439727C10.0539 0.0439727 10.0099 0.0439727 9.96594 0.0439727C9.85594 0.0439727 9.74594 0.0659727 9.61394 0.0879727C9.56994 0.0879727 9.52594 0.0879727 9.48194 0.109973C9.32794 0.131973 9.17394 0.153973 9.01994 0.197973C8.99794 0.197973 8.97594 0.219973 8.95394 0.219973C8.82194 0.241973 8.68994 0.285973 8.55794 0.329973C8.51394 0.351973 8.46994 0.351973 8.42594 0.373973C8.29394 0.417973 8.16194 0.461973 8.02994 0.505973C8.00794 0.527973 7.96394 0.527973 7.94194 0.549973C7.78794 0.615973 7.61194 0.681973 7.45794 0.747973C7.41394 0.769973 7.36994 0.791973 7.32594 0.813973C7.19394 0.879973 7.06194 0.945973 6.92994 1.01197C6.88594 1.03397 6.84194 1.05597 6.77594 1.07797C6.59994 1.16597 6.42394 1.25397 6.24794 1.36397C4.61994 2.33197 3.73994 3.67397 3.32194 5.08197C3.29994 5.12597 3.29994 5.19197 3.27794 5.23597C3.23394 5.43397 3.18994 5.63197 3.14594 5.80797C3.05794 6.31397 3.01394 6.79797 2.99194 7.28197C2.99194 7.76597 3.01394 8.24997 3.05794 8.71197C3.07994 8.95397 3.12394 9.21797 3.16794 9.43797C3.18994 9.50397 3.18994 9.59197 3.21194 9.65797C3.23394 9.76797 3.25594 9.85597 3.27794 9.96597C3.38794 10.45 3.51994 10.868 3.62994 11.176C3.62994 11.198 3.65194 11.22 3.67394 11.242L3.69594 11.264C3.71794 11.286 3.71794 11.286 3.73994 11.308C3.73994 11.308 3.76194 11.308 3.76194 11.33C3.78394 11.33 3.78394 11.352 3.80594 11.352H3.82794C3.84994 11.352 3.84994 11.352 3.87194 11.352H3.89394C3.93794 11.352 3.95994 11.352 4.00394 11.33H4.02594C4.06994 11.308 4.09194 11.286 4.11394 11.264C4.33394 11 4.55394 10.758 4.77394 10.538C4.90594 10.406 5.03794 10.296 5.19194 10.164C5.43394 9.96597 5.67594 9.78997 5.89594 9.63597C6.04994 9.54797 6.20394 9.45997 6.35794 9.37197C6.37994 9.34997 6.40194 9.34997 6.42394 9.32797C6.62194 9.21797 6.81994 9.12997 7.03994 9.04197C7.32594 8.93197 7.61194 8.82197 7.89794 8.71197C8.13994 8.62397 8.40394 8.53597 8.64594 8.44797C8.90994 8.35997 9.17394 8.24997 9.45994 8.13997C11.0439 7.50197 11.9899 7.12797 12.7159 6.73197C12.7819 6.68797 12.8479 6.64397 12.9139 6.62197C13.2439 6.42397 13.5299 6.20397 13.8159 5.96197C13.8599 5.91797 13.9039 5.89597 13.9479 5.87397C13.9699 5.87397 13.9699 5.85197 13.9919 5.85197C14.0359 5.82997 14.0579 5.82997 14.1019 5.80797C14.1239 5.80797 14.1239 5.80797 14.1459 5.80797C14.1899 5.80797 14.2339 5.78597 14.2779 5.78597C14.3439 5.78597 14.3879 5.78597 14.4539 5.80797C14.4759 5.80797 14.4979 5.82997 14.4979 5.82997C14.5419 5.85197 14.5639 5.85197 14.6079 5.87397C14.6299 5.87397 14.6519 5.89597 14.6519 5.91797C14.6959 5.93997 14.7179 5.96197 14.7399 6.00597C14.7619 6.02797 14.7619 6.02797 14.7839 6.04997C14.8279 6.09397 14.8499 6.15997 14.8719 6.22597C14.8939 6.29197 14.9159 6.35797 14.9599 6.42397C15.2459 7.10597 15.6419 7.96397 16.1259 8.57997C16.7419 9.34997 17.2919 10.45 17.5779 11.088C17.5999 11.11 17.5999 11.132 17.6219 11.154C17.6219 11.154 17.6439 11.154 17.6439 11.176C17.6659 11.198 17.6659 11.198 17.6879 11.22C17.6879 11.22 17.7099 11.22 17.7099 11.242C17.7319 11.242 17.7319 11.264 17.7539 11.264C17.7539 11.264 17.7759 11.264 17.7979 11.264C17.8199 11.264 17.8199 11.264 17.8419 11.264C17.8639 11.264 17.8639 11.264 17.8859 11.264C17.9079 11.264 17.9079 11.264 17.9299 11.264C17.9519 11.264 17.9519 11.242 17.9739 11.242C17.9739 11.242 17.9959 11.242 17.9959 11.22C18.0179 11.22 18.0179 11.198 18.0399 11.198L18.0619 11.176C18.0839 11.154 18.1059 11.132 18.1059 11.11C18.1719 10.978 18.2159 10.824 18.2819 10.648C18.7879 9.34997 19.2939 7.21597 18.4579 4.90597Z" fill="#31250C"/>
<path d="M11.1979 15.4C10.7579 15.488 10.4059 15.73 10.2299 16.104C10.1639 16.28 10.2299 16.478 10.4059 16.544C10.4499 16.566 10.4939 16.566 10.5379 16.566C10.6699 16.566 10.7799 16.5 10.8459 16.368C10.9119 16.192 11.0879 16.082 11.3299 16.038C11.6379 15.994 11.9679 16.082 12.1659 16.28C12.2979 16.412 12.5179 16.412 12.6279 16.28C12.7599 16.148 12.7599 15.928 12.6279 15.818C12.2759 15.466 11.7259 15.312 11.1979 15.4Z" fill="#EF659C"/>
<path d="M8.05192 12.188H7.43592C7.32592 11.682 7.01792 11.308 6.64392 11.308C6.26992 11.308 5.93992 11.682 5.85192 12.188H5.30192C5.12592 12.188 4.97192 12.342 4.97192 12.518C4.97192 12.694 5.12592 12.848 5.30192 12.848H5.82992C5.91792 13.376 6.24792 13.772 6.64392 13.772C7.03992 13.772 7.36992 13.376 7.45792 12.848H8.07392C8.24992 12.848 8.40392 12.694 8.40392 12.518C8.38192 12.342 8.24992 12.188 8.05192 12.188Z" fill="#31250C"/>
<path d="M16.5661 12.188H16.0601C15.9501 11.682 15.6421 11.308 15.2681 11.308C14.8941 11.308 14.5641 11.682 14.4761 12.188H13.8381C13.6621 12.188 13.5081 12.342 13.5081 12.518C13.5081 12.694 13.6621 12.848 13.8381 12.848H14.4761C14.5641 13.376 14.8941 13.772 15.2901 13.772C15.6861 13.772 16.0161 13.376 16.1041 12.848H16.6101C16.7861 12.848 16.9401 12.694 16.9401 12.518C16.8961 12.342 16.7421 12.188 16.5661 12.188Z" fill="#31250C"/>
<path d="M9.41603 11.682C9.35003 11.638 9.26203 11.682 9.24003 11.748L8.38203 13.42C8.36003 13.486 8.38203 13.574 8.44803 13.596C8.47003 13.596 8.49203 13.618 8.51403 13.618C8.55803 13.618 8.60203 13.596 8.62403 13.552L9.46003 11.858C9.50403 11.792 9.48203 11.704 9.41603 11.682Z" fill="#C90000"/>
<path d="M9.63599 13.552L10.472 11.858C10.516 11.792 10.472 11.704 10.406 11.682C10.34 11.638 10.252 11.682 10.23 11.748L9.39399 13.42C9.37199 13.486 9.39399 13.574 9.45999 13.596C9.48199 13.596 9.50399 13.618 9.52599 13.618C9.56999 13.618 9.61399 13.596 9.63599 13.552Z" fill="#C90000"/>
<path d="M10.472 13.596C10.494 13.596 10.516 13.618 10.538 13.618C10.582 13.618 10.626 13.596 10.648 13.552L11.484 11.858C11.528 11.792 11.484 11.704 11.418 11.682C11.352 11.638 11.264 11.682 11.242 11.748L10.406 13.42C10.384 13.486 10.406 13.574 10.472 13.596Z" fill="#C90000"/>
<path d="M11.3741 13.596C11.3961 13.596 11.4181 13.618 11.4401 13.618C11.4841 13.618 11.5281 13.596 11.5501 13.552L12.3861 11.858C12.4081 11.792 12.3861 11.704 12.3201 11.682C12.2541 11.638 12.1661 11.682 12.1441 11.748L11.3081 13.42C11.2861 13.486 11.3081 13.574 11.3741 13.596Z" fill="#C90000"/>
<path d="M13.2441 11.682C13.1781 11.638 13.0901 11.682 13.0681 11.748L12.2101 13.42C12.1661 13.486 12.2101 13.574 12.2761 13.596C12.2981 13.596 12.3201 13.618 12.3421 13.618C12.3861 13.618 12.4301 13.596 12.4521 13.552L13.2881 11.858C13.3321 11.792 13.3101 11.704 13.2441 11.682Z" fill="#C90000"/>
<path d="M4.28999 6.97399C4.53199 7.23799 4.68599 7.56799 4.75199 7.96399C4.81799 8.35999 4.77399 8.79999 4.57599 9.30599C5.05999 9.08599 5.43399 8.57999 5.52199 7.98599C5.56599 7.69999 5.54399 7.39199 5.45599 7.08399C5.36799 6.79799 5.21399 6.51199 4.99399 6.26999C4.75199 6.02799 4.59799 5.67599 4.53199 5.27999C4.46599 4.88399 4.50999 4.44399 4.70799 3.93799C4.22399 4.15799 3.84999 4.66399 3.76199 5.25799C3.71799 5.54399 3.73999 5.85199 3.82799 6.15999C3.91599 6.46799 4.06999 6.75399 4.28999 6.97399Z" fill="#C90000"/>
<path d="M5.43411 4.15801C5.39011 4.44401 5.41211 4.75201 5.50011 5.06001C5.58811 5.34601 5.74211 5.63201 5.96211 5.87401C6.20411 6.11601 6.35811 6.46801 6.42411 6.86401C6.49011 7.26001 6.44611 7.70001 6.24811 8.20601C6.73211 7.98601 7.10611 7.48001 7.19411 6.88601C7.23811 6.60001 7.21611 6.29201 7.12811 5.98401C7.04011 5.69801 6.88611 5.41201 6.66611 5.17001C6.42411 4.90601 6.27011 4.57601 6.20411 4.18001C6.13811 3.78401 6.18211 3.34401 6.38011 2.83801C5.89611 3.05801 5.54411 3.56401 5.43411 4.15801Z" fill="#C90000"/>
</g>
<defs>
<clipPath id="clip0_47_2736">
<rect width="22" height="22" fill="white"/>
</clipPath>
</defs>
</svg>
