<svg id="レイヤー_1" xmlns="http://www.w3.org/2000/svg" viewBox="0 0 21 18"><style>.st0{fill:#dd2e44}.st0,.st1,.st2,.st3,.st4{fill-rule:evenodd;clip-rule:evenodd}.st1{fill:#fff}.st2{fill:#66757f}.st3{fill:#269}.st4{fill:#ccd6dd}.st5{fill:#66757f}.st6{fill:#e9f0f4}.st6,.st7,.st8{fill-rule:evenodd;clip-rule:evenodd}.st7{fill:#744eaa}.st8{fill:#5c913b}</style><g id="Path"><path class="st0" d="M-.7-8.4c.8.1 2 .6 2.3.8.3.2.1.3-.2.4-.2.1-1.8.5-2.1.5-.2.1 0-1.7 0-1.7" transform="translate(3.163 10.828)"/><path class="st1" d="M-.5-1.8v-6.7" transform="translate(3.19 10.828)"/><path class="st2" d="M-.5-1.7c-.2 0-.5-.1-.5-.1v-6.7c0-.1.2-.2.5-.2s.5.1.5.1v6.7c0 .1-.2.2-.5.2z" transform="translate(3.19 10.828)"/><path class="st3" d="M4.2-9.7c.8.1 2 .6 2.3.8.3.2.1.3-.2.4-.3.1-1.8.6-2.1.6-.2 0 0-1.8 0-1.8" transform="translate(3.163 10.828)"/><path class="st1" d="M-.5-4.3V-11" transform="translate(8.068 12.061)"/><path class="st2" d="M-.5-4.2c-.3 0-.5-.1-.5-.2V-11c0-.1.2-.2.5-.2s.5.1.5.2v6.7c0 .1-.2.1-.5.1z" transform="translate(8.068 12.061)"/><path class="st0" d="M9.7-9.7c.8.1 2 .6 2.3.8.3.2.1.3-.2.4-.3.1-1.8.6-2.1.6-.2 0 0-1.8 0-1.8" transform="translate(3.163 10.828)"/><path class="st1" d="M-.5-4.3V-11" transform="translate(13.536 12.061)"/><path class="st2" d="M-.5-4.2c-.2 0-.4-.1-.4-.2V-11c0-.1.2-.2.4-.2s.4.1.4.2v6.7c0 .1-.2.1-.4.1z" transform="translate(13.536 12.061)"/><path class="st3" d="M14.6-8.4c.8.1 2 .6 2.3.8.3.2.1.3-.2.4-.3.1-1.9.6-2.1.6-.2 0 0-1.8 0-1.8" transform="translate(3.163 10.828)"/><path class="st1" d="M-.5-1.8v-6.7" transform="translate(18.414 10.828)"/><path class="st2" d="M-.5-1.7c-.2 0-.4-.1-.4-.2v-6.7c0-.1.2-.2.4-.2s.4.1.4.2v6.7c0 .1-.2.2-.4.2z" transform="translate(18.414 10.828)"/></g><path class="st4" d="M17.4 11.9V6L-1 5.9l.1 5.9v-.5.7c0 1.7 4.1 3.2 9.2 3.2 5 0 9.1-1.4 9.1-3.1v-.2z" transform="translate(1.715 2.412)"/><g transform="translate(2.948 2.412)"><path class="st2" d="M7 10.1c-1.3 0-2.4.5-2.4 2.8V15c.8.1 1.6.1 2.4.1.8 0 1.6 0 2.4-.1 0-.5.1-1.2.1-2.1-.1-2.2-1.2-2.8-2.5-2.8zM3.3 12c0-.1 0-.1 0 0 0-.1 0-.1 0 0v-.1c0-1.1-1.8-1.7-1.8-.6v3.2c.6.2 1.2.3 1.8.4V12z"/><path id="Shape" class="st5" d="M10.6 11.9v3c.7-.1 1.3-.2 1.8-.4v-3.1c.1-1.1-1.8-.6-1.8.5zm1.9-.1zm0-.2z"/><path class="st2" d="M.3 11.3v-.6C.3 9.6-1 9-1 10.1v3.3c.3.2.8.4 1.2.6l.1-2.7zm14.6 2.3v-3.3c0-1.1-1.2-.6-1.2.5v3.4c.5-.2.9-.4 1.2-.6z"/></g><path class="st6" d="M17.3.2c0 1.7-4.1 3-9.1 3C3.1 3.2-1 1.7-1 .1c0-1.7 4.1-3 9.1-3 5.1 0 9.2 1.4 9.2 3.1" transform="translate(1.715 8.255)"/><path class="st7" d="M16 .6c0 1.5-3.5 2.7-7.8 2.7S.4 2 .4.5C.4-1 3.9-2.2 8.2-2.2S16-.9 16 .6" transform="translate(1.715 8.255)"/><path class="st6" d="M13.1 1.9c0 .9-2.2 1.6-4.9 1.6s-4.9-.8-4.9-1.7C3.3.9 5.5.2 8.2.2s4.8.8 4.9 1.7" transform="translate(1.715 8.255)"/><path class="st8" d="M12.5 2c0 .7-1.9 1.2-4.3 1.2s-4.3-.6-4.3-1.3C3.9 1.2 5.8.7 8.2.7s4.3.6 4.3 1.3" transform="translate(1.715 8.255)"/><path class="st6" d="M3.2-4.5l1.5 3.1.5-.1-.7-3.1zm6.8.1l-1.4 3-.5-.1.6-3.1zM2.7-1C2.4-1.3 0-3.6 0-3.6l-.9.6L2.3-.8l.4-.2zm7.7 0c.2-.2 2.6-2.5 2.6-2.5l.9.6-3.2 2.1-.3-.2z" transform="translate(3.43 10.346)"/></svg>