<svg id="レイヤー_1" xmlns="http://www.w3.org/2000/svg" viewBox="0 0 20 20"><style>.st0{fill-rule:evenodd;clip-rule:evenodd;fill:#c55fbb}</style><path id="Fill-1" class="st0" d="M10 12.2c-1.2 0-2.2-1-2.2-2.2s1-2.2 2.2-2.2 2.2 1 2.2 2.2-1 2.2-2.2 2.2m4.3-7.1c2.3-.6 4 .6 5.7 2.3-2.3-2.9-5.7-5.7-10.3-4 1.1-1.7 2.9-2.9 5.1-2.3-3.4-1.1-7.4 0-9.7 4 0-2.3.6-4 2.3-5.1-3.4 1.7-5.7 5.7-4 9.7C1.1 9.1.6 6.3 1.1 4.6-.6 8 2.3 12 5.7 14.3c-1.7 1.1-4 0-5.7-1.7 2.3 2.9 5.7 5.1 10.3 3.4-1.7 1.7-3.4 2.9-5.7 2.9 3.4.6 8 0 9.7-4.6 1.1 1.7-.6 4.6-1.7 5.7 2.9-2.3 5.1-5.7 3.4-10.3 2.3.6 2.3 3.4 2.9 5.1.5-3.9-.6-7.4-4.6-9.7"/></svg>