<svg id="レイヤー_1" xmlns="http://www.w3.org/2000/svg" viewBox="0 0 18 18"><style>.st0{fill:none;stroke:#17ccf3}.st1{fill-rule:evenodd;clip-rule:evenodd;fill:#17ccf3}</style><circle id="Oval-6" class="st0" cx="9" cy="9" r="8.5"/><circle id="Oval-22" class="st1" cx="6" cy="7" r="1"/><circle class="st1" cx="12" cy="7" r="1"/><path id="Rectangle-20" class="st1" d="M1 11h3.5c.3 0 .5.2.5.5s-.2.5-.5.5H1v-1z"/><path class="st1" d="M13 11.5c0-.3.2-.5.5-.5H17v1h-3.5c-.3 0-.5-.2-.5-.5z"/><path id="Rectangle-21" class="st1" d="M6.5 11h5c.3 0 .5.2.5.5s-.2.5-.5.5h-5c-.3 0-.5-.2-.5-.5s.2-.5.5-.5z"/></svg>