<svg id="レイヤー_1" xmlns="http://www.w3.org/2000/svg" viewBox="0 0 18 17"><style>.st0{fill-rule:evenodd;clip-rule:evenodd;fill:#f9c}</style><path id="Combined-Shape" class="st0" d="M8.1 0L9 2.8 9.9 0c.9.7 1.6 2.4 1.6 4.3C11.5 6.9 9 9 9 9S6.5 6.9 6.5 4.3c0-1.9.7-3.6 1.6-4.3z"/><path class="st0" d="M.2 7.1h2.9L.7 5.4c.9-.7 2.7-.8 4.6-.2C7.8 6 9 9 9 9s-2.8 1.7-5.2.9C1.9 9.3.5 8.2.2 7.1z"/><path class="st0" d="M4.4 16.8l1-2.8L3 15.8c-.4-1.1.1-2.9 1.3-4.5C5.8 9.2 9 9 9 9s.8 3.2-.7 5.2c-1.2 1.6-2.7 2.6-3.9 2.6zM17.3 5.4l-2.4 1.7h2.9c-.4 1.1-1.8 2.3-3.6 2.9-2.4.7-5.2-1-5.2-1s1.2-3 3.7-3.8c1.8-.6 3.7-.5 4.6.2z"/><path class="st0" d="M15 15.8L12.6 14l.9 2.8c-1.2 0-2.7-1-3.8-2.6C8.2 12.2 9 9 9 9s3.2.2 4.8 2.3c1.1 1.6 1.6 3.4 1.2 4.5z"/></svg>