<svg id="レイヤー_1" xmlns="http://www.w3.org/2000/svg" viewBox="0 0 20 21"><style>.st0{fill:#e7eced}.st0,.st1,.st2,.st3,.st4,.st5,.st6{fill-rule:evenodd;clip-rule:evenodd}.st1{fill:#7383bf}.st2{fill:#424a60}.st3{fill:#efce4a}.st4{fill:#ed7161}.st5{fill:#949493}.st6{fill:#f7e6a1;stroke:#d8a852;stroke-linejoin:round}</style><path id="Rectangle" class="st0" d="M.2 4.7h19.7v15.9H.2z"/><g id="Group" transform="translate(3.05 1)"><path id="Path" class="st1" d="M8.1 1.2l-.3.5C9.8 3 13.5 5 13.6 5l.3-.6s-3.8-2-5.8-3.2z"/><path class="st1" d="M0 4.4l.3.6s3.8-2 5.8-3.3l-.3-.5C3.8 2.4 0 4.4 0 4.4z"/></g><g transform="translate(2.373 8.814)"><circle id="Oval" class="st2" cx="5.3" cy="1.3" r="1"/><circle class="st2" cx="7.6" cy="1.3" r="1"/><circle class="st2" cx="10" cy="1.3" r="1"/><circle class="st2" cx="12.4" cy="1.3" r="1"/><circle class="st2" cx="14.7" cy="1.3" r="1"/><circle class="st3" cx=".5" cy="4.1" r="1"/><circle class="st4" cx="2.9" cy="4.1" r="1"/><circle class="st5" cx=".5" cy="1.3" r="1"/><circle class="st5" cx="2.9" cy="1.3" r="1"/><circle class="st2" cx="5.3" cy="4.1" r="1"/><circle class="st2" cx="7.6" cy="4.1" r="1"/><circle class="st2" cx="10" cy="4.1" r="1"/><circle class="st2" cx="12.4" cy="4.1" r="1"/><circle class="st2" cx="14.7" cy="4.1" r="1"/><circle class="st3" cx=".5" cy="6.4" r="1"/><circle class="st4" cx="2.9" cy="6.4" r="1"/><circle class="st2" cx="5.3" cy="6.4" r="1"/><circle class="st2" cx="7.6" cy="6.4" r="1"/><circle class="st2" cx="10" cy="6.4" r="1"/><circle class="st2" cx="12.4" cy="6.4" r="1"/><circle class="st2" cx="14.7" cy="6.4" r="1"/><circle class="st5" cx="12.4" cy="9.1" r="1"/><circle class="st5" cx="14.7" cy="9.1" r="1"/><circle class="st3" cx=".5" cy="9.1" r="1"/><circle class="st4" cx="2.9" cy="9.1" r="1"/><circle class="st2" cx="5.3" cy="9.1" r="1"/><circle class="st2" cx="7.6" cy="9.1" r="1"/><circle class="st2" cx="10" cy="9.1" r="1"/></g><circle class="st6" cx="10" cy="2.4" r="1.4"/><path class="st2" d="M.2 4.7h19.7v2.4H.2z"/></svg>