<svg version="1.1" id="レイヤー_2" xmlns="http://www.w3.org/2000/svg" x="0" y="0" viewBox="0 0 20 18" xml:space="preserve"><style>.st3{fill:#fff}</style><path fill-rule="evenodd" clip-rule="evenodd" fill="#84cc75" d="M8.1 17.5L.8 13.4V5.2l7.3 4z"/><path fill-rule="evenodd" clip-rule="evenodd" fill="#68c652" d="M19.2 13.2L8.1 17.5V9.2l11.1-4.3z"/><path fill-rule="evenodd" clip-rule="evenodd" fill="#5cb94b" d="M.8 5.2l7.3 4 11.1-4.3L11.8.7z"/><path class="st3" d="M3.3 10.2l2.3 1.3V7.8L3.3 6.5z"/><path class="st3" d="M16.5 3.4L5.6 7.8 3.3 6.5l11-4.4z"/><path d="M14.1 8.3c-1.3.4-2.3 1.7-2.3 3 0 .4.1.8.4 1.1l-1.4 1.8c-.2.3-.2.6 0 .7.1.1.2.1.4 0 .1 0 .3-.1.4-.3l1.4-1.8c.4.1.8.1 1.2 0 1.3-.4 2.3-1.7 2.3-3s-1.1-1.9-2.4-1.5zm0 3.5c-.3.1-.6.1-.9-.1-.2-.2-.3-.4-.3-.8 0-.7.6-1.4 1.3-1.6.7-.2 1.3.2 1.3.9s-.7 1.4-1.4 1.6z" fill="#5abc3f"/><path class="st3" d="M14.4 8.4c-1.3.4-2.3 1.7-2.3 3 0 .4.1.8.4 1.1l-1.4 1.8c-.2.3-.2.6 0 .7.1.1.2.1.4 0 .1 0 .3-.1.4-.3l1.4-1.8c.4.1.8.1 1.2 0 1.3-.4 2.3-1.7 2.3-3S15.6 8 14.4 8.4zm0 3.6c-.3.1-.6.1-.9-.1-.2-.2-.3-.4-.3-.8 0-.7.6-1.4 1.3-1.6.7-.2 1.3.2 1.3.9s-.7 1.3-1.4 1.6zM2.1 13.7v-2l.6.3c.2.1.4.3.5.5.1.2.2.5.2.9 0 .3-.1.6-.2.7-.1.1-.3.1-.5 0l-.6-.4zm.3-.1l.4.2c.2.1.3.1.3 0 .1-.1.1-.3.1-.6s0-.5-.1-.7c-.1-.2-.2-.3-.4-.4l-.3-.2v1.7zm1.3-.2c0-.3.2-.4.5-.2l.3.3c.1.1.1.2.1.3v.9c0 .1 0 .1.1.1v.2h-.1c-.1 0-.1-.1-.2-.1 0-.1 0-.1-.1-.2 0 .1-.1.1-.1.1H4c-.3-.1-.4-.4-.4-.7 0-.2.1-.3.2-.2l.4.1h.1v-.1c0-.1 0-.2-.1-.3 0-.1-.1-.1-.2-.1s-.1-.1-.2 0l-.1.1v.1-.3zm.7.7h-.3c-.1 0-.1 0-.1.2s.1.3.2.4h.2c.1 0 .1-.1.1-.2v-.4zm.4-.3v-.2l.2.1v-.4l.2.1v.4l.3.2v.2l-.3-.1v1.1l.1.1.1.1v.2l-.2-.1c-.1 0-.1-.1-.2-.2V14l-.2-.2zm.9.7c0-.3.2-.4.5-.2l.3.3c.1.1.1.2.1.3v.9c0 .1 0 .1.1.1v.2h-.1c-.1 0-.1-.1-.2-.1 0-.1 0-.1-.1-.2 0 .1-.1.1-.1.1H6c-.3-.1-.4-.4-.4-.7 0-.2.1-.3.2-.2h.6v-.1c0-.1 0-.2-.1-.3s-.1-.1-.2-.1-.1-.1-.2 0l-.1.1v.1l-.1-.2zm.6.7H6c-.1 0-.1 0-.1.2s.1.3.2.4h.2c.1 0 .1-.1.1-.2v-.4z"/></svg>