<svg id="レイヤー_1" xmlns="http://www.w3.org/2000/svg" viewBox="0 0 20 20"><style>.st0{fill:#65b1ef}.st0,.st1{fill-rule:evenodd;clip-rule:evenodd}.st1,.st2{fill:#417505}</style><circle id="Oval" class="st0" cx="10" cy="10" r="10"/><g id="Group" transform="translate(0 .625)"><path id="Path" class="st1" d="M5.1 17.8c.1 0 .1 0 0 0z"/><path class="st1" d="M4.5 3.7c.1-.1.2-.2.3-.2H5c.1 0 .2.1.3 0 0 .1-.1.1-.1.1-.1.1-.2.1-.3.2-.2 0-.3 0-.4-.1z"/><path class="st1" d="M6.5 12.6c0 .1-.1.2-.1.2-.2.3-.3.7-.3 1.1 0 .4 0 .8-.3 1-.3.1-.5.1-.6.3 0 .1-.1.1-.1.2-.1.3-.2.6-.2.9h-.3c.1 0 .2.2.1.3-.1-.1-.3 0-.3.1-.1.1-.1.3 0 .4.1.4.4.7.8.8-.1.1-.3.1-.4 0-.9-.6-1.5-1.5-1.8-2.5-.1-.4-.2-.7-.4-1-.2-.3-.4-.4-.6-.7-.2-.4-.3-.9-.6-1.2-.2-.2-.4-.4-.3-.6.1-.1.2-.2.1-.3l-.1-.1c-.1-.1 0-.3 0-.4.1-.2.1-.5 0-.7-.1-.4-.3-.7-.4-1C.6 9.3.5 9 .3 9c0-.1-.1-.3-.2-.4 0 .1-.1.1-.1.1.2-2.3 1.1-4.4 2.5-6h.1c.4-.2.6-.5 1-.7.1 0 .1-.1.2-.1s.2.1.1.1c0 0 0 .1-.1.1-.3.3-.8.6-1.2.9-.1 0-.1 0-.1.1s0 .2.1.2h.3c-.1.1-.1.3-.1.4.1 0 .2-.1.2-.2.1-.3.7-.5.6-.8.2.1.3-.1.4-.3.1-.1.3-.3.4-.2v.2c.2 0 .4-.1.6-.2-.1.2-.1.4 0 .5 0 .1.2.2.3.1 0 .1-.1.2-.2.3-.2.2-.4.3-.7.4l.1.1c-.2 0-.4-.1-.5 0-.1 0-.2 0-.3.1v.2c.1-.1.2-.1.3-.2v.2c.1 0 .2 0 .3.1-.1.3-.4.4-.7.4v-.2c-.2 0-.4.2-.5.4-.1.1-.2.3-.4.5-.1 0-.2.1-.3.1-.2.1-.3.2-.3.4 0 .1.1.1 0 .2.1.1-.1.1-.1.2-.2.1-.3.4-.4.5-.2.1-.3.1-.5.1s-.3.2-.2.4c-.1 0-.2 0-.2-.1-.2.5-.4 1-.5 1.6.1.1.3-.1.3-.3 0-.2.2-.4.3-.3 0 .2-.1.4-.1.7v.1l.1.1c.2.2.1.3.2.5 0 .2 0 .3.1.5v-.1c.2 0 .4 0 .5-.2l.2-.2h.3c.3.1.6.2.8.4.1.2.1.4.2.4.3.2.7.1.9.4.2.2.2.5.1.8-.1-.1-.3.1-.2.2.1-.1.2-.2.3-.2.1 0 .2.1.1.2.2-.1.7 0 .7.2.3 0 .5 0 .8.1-.1.4.7.4.7.8zM5 2.1c-.1 0-.2 0-.3-.1 0-.1 0-.2.1-.3.1 0 .2 0 .2-.1v-.1c0-.1.1-.2.2-.3h.4c0 .1.1.2 0 .3h-.2c0 .1 0 .3-.1.4-.2.2-.3.1-.3.2M6.3.7c.2-.1.4-.3.6-.4.4-.2.8-.2 1.3-.2 1 0 2-.1 3-.1-.2.1-.5.3-.7.4-.3.1-.5.2-.7.1 0 .2.1.3.3.3-.4.2-1 0-1.4.2-.1.2-.3.3-.5.4h-.3c-.2 0-.3.2-.4.4-.2.1-.5.2-.7.1-.2-.1-.3-.4-.1-.5.1-.1.2-.1.3-.2.1 0 .2-.2.1-.3 0 0-.1 0-.1-.1 0 0 0-.1-.1-.1-.1-.1-.4.1-.6 0m2.9.9c.1 0 .2-.1.4-.2.1-.1.3-.1.4 0 0 .1-.1.2-.2.2s-.3.1-.6 0"/><path id="Shape" class="st2" d="M17.3 2.6h-.1c-.2 0-.3-.2-.4-.3-.3-.2-.8-.2-1.2-.1.1-.1.1-.3.1-.4h-.1c-.6-.3-1.3-.7-1.9-.5-.1.1-.3.1-.4.2-.2.1-.3.1-.5.2-.1.1-.2.3-.1.4.1.1.3.1.4.1.1 0 .3.2.2.3-.6.3-1.2.6-1.9.9.3.1.5.4.4.7-.2 0-.4-.1-.6-.1-.3 0-.6.3-.6.6s.3.6.6.6c.2 0 .5-.1.7-.1 0-.2.2-.4.3-.5.3-.3.7-.5 1.1-.4.1 0 .2.1.3.2.2.2.5.4.7.5l.2-.2c.1.1.2.3.4.4l.2-.2c0 .1.1.2.1.3v-.4c.1 0 .3 0 .4-.1.1-.1.2-.2.2-.4 0-.1-.1-.1-.1-.2.1 0 .3-.1.4-.1.1.1.2.2.3.4 0-.2.1-.3.1-.5.1.4.3.7.6 1-.5-.1-1 0-1.4.1.1.2.4.3.6.3h.3c.1.1.1.1.1.2 0 .2.1.4.1.6-.2-.2-.6-.2-.9-.2-.3 0-.7-.1-.8-.4-.1.4-.2.6-.1.8-.3-.1-.7-.2-.8-.5-.3.1-.6-.1-.6-.3 0-.1 0-.2-.1-.3h-.2c-.5.1-1 .1-1.5.2-.3 0-.5.1-.8.2-.2.1-.4.4-.4.6-.4.3-.8.7-1.1 1.1-.1.1-.1.3-.1.4 0 .1.1.2.1.3 0 .2-.1.4-.1.6-.1.6.3 1.1.7 1.6.2.2.4.4.7.4.2 0 .3-.1.5-.1.5-.2 1-.3 1.5-.2-.1.1 0 .3.1.3h.4c.3.1.3.6.1.9h.2c0 .1-.1.2-.1.3.4.1.6.6.5 1-.1.4-.3.8-.4 1.2 0 .2.1.5.1.7.2.6.4 1.1.5 1.7.5.1.8-.6 1.3-.8.2-.1.4-.1.5-.2.1-.1.1-.4-.1-.4.2 0 .4-.2.4-.5v-.2c0-.1.1-.2.1-.3.4-.5.6-1.1.8-1.7.1-.2.1-.3.2-.5.2-.6.5-1.2.7-1.7.1-.2.2-.5.3-.7-.1.2-.4.2-.6 0-.2-.2-.3-.4-.4-.6-.1-.2-.3-.3-.4-.5v-.4c0-.3-.2-.5-.3-.7-.1-.2-.2-.5 0-.7.5.8.9 1.7 1.3 2.6 0-.1.1-.3.3-.3.1-.1.2-.1.3-.1.3-.1.4-.4.4-.7 0-.3-.2-.6-.4-.7-.1-.1-.3-.1-.4-.1-.1-.1-.2-.2-.1-.4.1-.1.2-.1.4 0l.3.3c.1.1.2.1.3.1.5.3.6.9.7 1.4 0 .4.1.7.2.9v-.2c0-2.6-1-5-2.7-6.7zm.9 3.2c-.1 0-.1 0-.2-.1s-.2-.1-.2-.3V5c0-.1-.1-.1-.1-.1-.1-.1-.2-.2-.2-.4 0-.1 0-.3.2-.3.1 0 .1 0 .2.1l-.1.1c.2 0 .2.3.1.4v.1c-.1 0 .1.1.2.1.1.1.3.2.2.3h-.1v.2c0 .1.1.1.1.1.1.2 0 .2-.1.2z"/><path class="st1" d="M18.3 12.8l-.2.1c.1.2-.1.4-.2.5-.1 0-.2.1-.3.2v.3c0 .2-.1.3-.2.4s-.2.3 0 .4h.1c.2 0 .3 0 .4-.1.4-.3 0-.9.4-1.2l.1-.1c.1-.2-.2-.3-.1-.5z"/></g></svg>