<svg version="1.1" id="レイヤー_2_1_" xmlns="http://www.w3.org/2000/svg" x="0" y="0" viewBox="0 0 15 17.2" xml:space="preserve"><style>.st0{fill:#8bd357}.st1{fill:#f281b7}.st2{fill:#276fd7}.st3{fill:#f06ca6}.st4{fill:#0967c6}.st5{fill:#84ce4a}.st7{fill:#ffb547}</style><path class="st0" d="M3.9 6.4l3.7 2.1v4.3l-3.7-2.1z"/><path class="st0" d="M11.3 6.4L7.6 8.5 3.9 6.4l3.7-2.1z"/><path class="st0" d="M7.6 8.5v4.3l3.7-2.1V6.4z"/><path class="st1" d="M7.6 8.6l3.7 2.1v4.2l-3.7-2.1z"/><path class="st2" d="M15 8.6l-3.7 2.1-3.7-2.1 3.7-2.2z"/><path class="st3" d="M11.3 10.7v4.2l3.7-2.1V8.6z"/><path class="st2" d="M3.8 2.1l3.7 2.1v4.3L3.8 6.3z"/><path class="st4" d="M11.2 2.1L7.5 4.2 3.8 2.1 7.5 0z"/><path class="st4" d="M7.5 4.2v4.3l3.7-2.2V2.1z"/><path class="st0" d="M7.6 4.3l3.7 2.1v4.3L7.6 8.6z"/><path class="st5" d="M15 4.3l-3.7 2.1-3.7-2.1 3.7-2.1z"/><path class="st5" d="M11.3 6.4v4.3L15 8.6V4.3z"/><path class="st0" d="M0 8.6l3.7 2.2V15L0 12.9z"/><path class="st5" d="M7.4 8.6l-3.7 2.2L0 8.6l3.7-2.1z"/><path class="st5" d="M3.7 10.8V15l3.7-2.1V8.6z"/><path class="st2" d="M3.8 10.9L7.5 13v4.2l-3.7-2.1z"/><path class="st2" d="M11.2 10.9L7.5 13l-3.7-2.1 3.7-2.2z"/><path class="st4" d="M7.5 13v4.2l3.7-2.1v-4.2z"/><path class="st1" d="M0 4.3l3.7 2.1v4.3L0 8.6z"/><path class="st3" d="M7.4 4.3L3.7 6.4 0 4.3l3.7-2.1z"/><path class="st3" d="M3.7 6.4v4.3l3.7-2.1V4.3z"/><path fill="#ffbc64" d="M3.8 6.5l3.7 2.2v4.2l-3.7-2.1z"/><path class="st7" d="M11.2 6.5L7.5 8.7 3.8 6.5l3.7-2.1z"/><path class="st7" d="M7.5 8.7v4.2l3.7-2.1V6.5z"/></svg>