<svg version="1.1" id="レイヤー_2_1_" xmlns="http://www.w3.org/2000/svg" x="0" y="0" viewBox="0 0 17.2 17.2" xml:space="preserve"><style>.st1{fill:#1991ce}</style><path d="M6.1 5.8c-.1.1-.2.2-.4.2-.1.1-.3.1-.5.1v-.9c.2 0 .5-.1.7-.2.3-.2.5-.4.6-.6h1.2v5.8H6.1V5.8zm2.5 4.1c-.3-.3-.5-.7-.5-1.2V6.1c0-.5.2-1 .5-1.3s.8-.4 1.4-.4c.6 0 1.1.1 1.4.4.3.3.5.7.5 1.3v2.6c0 .5-.2.9-.5 1.2s-.8.4-1.4.4-1.1-.1-1.4-.4zm1.7-.8c.1-.1.1-.2.1-.3V6c0-.2 0-.3-.1-.4 0-.1-.1-.1-.3-.1s-.2 0-.3.1c0 .1-.1.2-.1.4v2.9c0 .1 0 .2.1.3s.2.1.3.1.2-.1.3-.2zm-5 3.6c-.1-.1-.1-.2-.1-.5V12h.4v.3c0 .1 0 .2.1.2h.1v-.3s0-.1-.1-.1l-.1-.1-.2-.2c-.1-.1-.2-.3-.2-.5s0-.3.1-.4c.1-.2.2-.3.4-.3s.3.1.4.2c.1.1.1.3.1.5h-.4v-.2h-.2v.1c0 .1 0 .1.1.2l.2.2c.1.1.1.1.1.2s.1.1.1.2v.2c0 .2 0 .4-.1.5s-.2.2-.4.2c-.1-.1-.2-.1-.3-.2zm1.1.1v-2.1h.9v.4h-.5v.4h.4v.4h-.4v.5h.4v.4h-.8zm1.1-.1c-.1-.1-.1-.2-.1-.4v-1c0-.2 0-.4.1-.5s.2-.2.4-.2.3 0 .4.1c.1.1.1.2.1.4v.4H8v-.4h-.2v1.3h.1c.1 0 .1-.1.1-.2v-.4h.4v.4c0 .4-.2.5-.5.5-.2.1-.3.1-.4 0zm1.2-.1c-.1-.1-.1-.3-.1-.4v-1c0-.2 0-.3.1-.4.1-.1.2-.1.4-.1s.3 0 .4.1c.1.1.1.2.1.4v1c0 .2 0 .3-.1.4-.1.1-.2.2-.4.2s-.3-.1-.4-.2zm.4-.2v-1.2H9c-.1 0-.1.1-.1.2v1.1c.1-.1.1-.1.2-.1zm.6.4v-2.1h.4l.2 1v-1h.4v2.1h-.4l-.2-1.1v1.1h-.4zm1.3-2.1h.6c.2 0 .3 0 .3.1.1.1.1.2.1.4v1c0 .2 0 .4-.1.5s-.2.2-.4.2h-.6l.1-2.2zm.5 1.7c.1 0 .1 0 .1-.1v-1.2h-.1v1.3z" fill="#004fce"/><path class="st1" d="M8.6 17.2C3.9 17.2 0 13.3 0 8.6S3.9 0 8.6 0s8.6 3.9 8.6 8.6-3.9 8.6-8.6 8.6zM8.6 1C4.4 1 1 4.4 1 8.6s3.4 7.6 7.6 7.6 7.6-3.4 7.6-7.6S12.8 1 8.6 1z"/><path class="st1" d="M8 1.4h.8v1.3H8z"/><path transform="rotate(-30 5.126 3.065)" class="st1" d="M4.8 2.4h.7v1.3h-.7z"/><path transform="rotate(-60.015 2.86 5.575)" class="st1" d="M2.5 4.9h.7v1.3h-.7z"/><path class="st1" d="M1.4 8.4h1.3v.8H1.4z"/><path transform="rotate(-29.969 3.09 12.117)" class="st1" d="M2.4 11.7h1.3v.8H2.4z"/><path transform="rotate(-59.994 5.489 14.29)" class="st1" d="M4.8 13.9h1.3v.7H4.8z"/><path class="st1" d="M8.4 14.4h.8v1.3h-.8z"/><path transform="rotate(-30.026 12.024 14.047)" class="st1" d="M11.7 13.4h.7v1.3h-.7z"/><path transform="rotate(-60 14.314 11.668)" class="st1" d="M13.9 11h.8v1.3h-.8z"/><path class="st1" d="M14.4 8h1.3v.8h-1.3z"/><path transform="rotate(-30.006 14.048 5.176)" class="st1" d="M13.4 4.8h1.3v.7h-1.3z"/><path transform="rotate(-60.033 11.668 2.885)" class="st1" d="M11 2.5h1.3v.8H11z"/></svg>