<svg id="レイヤー_1" xmlns="http://www.w3.org/2000/svg" viewBox="0 0 21 19" enable-background="new 0 0 21 19"><style>.st0{fill-rule:evenodd;clip-rule:evenodd;fill:#ff8000}.st1{filter:url(#Adobe_OpacityMaskFilter)}.st2,.st3{fill-rule:evenodd;clip-rule:evenodd;fill:#fff}.st3{mask:url(#mask-2_1_);fill:#ccc}</style><g id="Page-1" transform="translate(1 1.5)"><path id="Fill-1" class="st0" d="M7.8 1.2V-.6c0-.5-.3-.8-.9-.9-.5.1-.7.4-.8.9v1.8c.1.5.3.8.8.9.7-.1.9-.4.9-.9"/><path id="Fill-4" class="st0" d="M7.8 13.6v-1.8c0-.5-.3-.8-.9-.9-.5.1-.7.5-.8.9v1.8c.1.5.4.8.8.8.7.1.9-.3.9-.8"/><path id="Fill-6" class="st0" d="M1.7 5.6H0c-.6.1-1 .4-1 .9s.4.8.9.9h1.7c.6-.1.9-.4 1-.9-.1-.5-.4-.8-.9-.9"/><path id="Fill-8" class="st0" d="M14.1 5.6h-1.8c-.5.1-.7.5-.8.9.1.5.4.8.8.9h1.8c.6-.1.8-.4.8-.9s-.3-.8-.8-.9"/><path id="Fill-10" class="st0" d="M2.6.8C2.1.5 1.8.5 1.3.8c-.4.5-.4.9 0 1.3l1.3 1.3c.4.4.8.4 1.3 0 .3-.5.3-.8 0-1.3L2.6.8z"/><path id="Fill-12" class="st0" d="M12.6 10.9l-1.3-1.2c-.4-.5-.7-.5-1.2 0-.4.4-.4.7 0 1.2l1.2 1.3c.5.3.9.3 1.3 0 .4-.4.4-.9 0-1.3"/><path id="Fill-14" class="st0" d="M2.6 9.7l-1.3 1.2c-.4.5-.4.9 0 1.3.5.3.8.3 1.3 0l1.3-1.3c.3-.5.3-.8 0-1.2-.5-.5-.9-.5-1.3 0"/><path id="Fill-16" class="st0" d="M11.3.8l-1.2 1.3c-.4.5-.4.8 0 1.3.5.4.8.4 1.2 0l1.3-1.3c.4-.4.4-.8 0-1.3-.4-.3-.8-.3-1.3 0"/><path id="Fill-18" class="st0" d="M9.4 9c.7-.7 1-1.6 1-2.6 0-.9-.3-1.7-1-2.5-.7-.5-1.5-.9-2.5-.9s-1.8.4-2.5 1c-.7.7-1 1.6-1 2.5 0 1 .3 1.8 1 2.6.6.6 1.5 1 2.5 1S8.7 9.7 9.4 9"/></g><g transform="translate(3 8)"><defs><filter id="Adobe_OpacityMaskFilter" filterUnits="userSpaceOnUse" x="-1" y="-2" width="18.2" height="12.2"><feColorMatrix values="1 0 0 0 0 0 1 0 0 0 0 0 1 0 0 0 0 0 1 0"/></filter></defs><mask maskUnits="userSpaceOnUse" x="-1" y="-2" width="18.2" height="12.2" id="mask-2_1_"><g class="st1"><path id="path-1_1_" class="st2" d="M-1 4.1v6.1h18.2V-2H-1z"/></g></mask><path class="st3" d="M15.4 3.8v-.6c0-1.5-.6-2.7-1.7-3.7-1-.9-2.3-1.4-3.8-1.5C8.4-1.9 7-1.4 6-.5c-.9 1-1.5 2.3-1.6 3.7 0 .3.1.6.1.9h-.1C2.3 4.3 1 5.4.8 7.6v.1c-.2-.1-.2-.1-.4-.1-.9.1-1.3.6-1.4 1.2.1.8.5 1.4 1.4 1.4h13.2c2.3-.2 3.4-1.4 3.6-3.5-.1-1.4-.7-2.4-1.8-2.9"/></g></svg>