<svg id="レイヤー_1" xmlns="http://www.w3.org/2000/svg" viewBox="0 0 22 18"><style>.st0{fill-rule:evenodd;clip-rule:evenodd;fill:#3569c0}</style><path id="Rectangle-15" class="st0" d="M7.7 4.1l1.7-1c.5-.3 1.1-.1 1.4.4l5 8.7c.3.5.1 1.1-.4 1.4l-1.7 1c-.5.3-1.1.1-1.4-.4l-5-8.7c-.3-.5-.1-1.1.4-1.4z"/><path class="st0" d="M6.2 1.5l1.7-1C8.4.2 9 .4 9.3.9c.2.4.1 1.1-.4 1.3l-1.7 1c-.5.3-1.1.1-1.4-.3-.3-.5-.1-1.1.4-1.4z"/><path id="Oval-14" class="st0" d="M18.2 15.3c-.6-1-2-1.2-3.2-.5s-1.7 2-1.2 3l4.4-2.5z"/><path id="Triangle-3" class="st0" d="M16.5 17.5l-1.8-1.3 1.7-1z"/><path id="Rectangle-16" transform="rotate(-30 4.963 11.428)" class="st0" d="M1 9.4h8v4H1z"/><path transform="rotate(-30 11.026 7.929)" class="st0" d="M6 7.4h10v1H6z"/><path transform="rotate(-30 17.088 4.429)" class="st0" d="M13.1 2.4h8v4h-8z"/></svg>