<svg id="レイヤー_1" xmlns="http://www.w3.org/2000/svg" viewBox="0 0 20 18"><style>.st0{fill-rule:evenodd;clip-rule:evenodd;fill:#4d9eff}</style><path id="Fill-1" class="st0" d="M17.8 6.2l-.1-1c0-1.3-.4-2.5-1.4-3.4-.9-1-2.1-1.6-3.5-1.6-1.3 0-2.5.5-3.5 1.6C8.5 2.4 8 3.3 8 4.4c-.5-.2-1-.2-1.5-.2-1.2 0-2.3.3-3.1 1.1-.6.5-1 1.2-1.2 2-.3-.1-.5-.2-.8-.2-.4 0-.7.1-1 .5-.2.2-.4.5-.4 1 0 .4.2.7.4 1 .2.3.5.4.9.5h16.4c0-.1.1-.1.1 0 .5-.1.9-.3 1.3-.6s.5-.8.5-1.3-.2-1-.5-1.4c-.3-.5-.8-.6-1.3-.6"/><path id="Fill-4" class="st0" d="M12.8 14c.7-.2 1-.4 1-1.1 0-.5-.3-1.2-1-1.9-.6.8-1 1.4-.9 1.9-.1.7.3.9.9 1.1"/><path id="Fill-6" class="st0" d="M16.8 14c.6-.2.9-.4.9-1.1 0-.5-.3-1.2-.9-1.9-.6.8-1 1.4-.9 1.9-.1.7.2.9.9 1.1"/><path id="Fill-8" class="st0" d="M8.8 14c.7-.2 1-.4 1-1.1 0-.5-.3-1.2-1-1.9-.7.8-1 1.4-.9 1.9 0 .7.3.9.9 1.1"/><path id="Fill-10" class="st0" d="M4.9 14c.6-.2.9-.4.9-1.1 0-.5-.3-1.2-.9-1.9-.7.8-1.1 1.4-1 1.9 0 .7.3.9 1 1.1"/><path id="Fill-12" class="st0" d="M2.9 17.9c.7-.1 1-.4 1-1 0-.5-.3-1.2-1-1.9-.6.8-1 1.4-.9 1.9-.1.6.3.9.9 1"/><path id="Fill-14" class="st0" d="M6.9 17.9c.7-.1 1-.4 1-1 0-.5-.3-1.2-1-1.9-.7.8-1 1.4-.9 1.9-.1.6.2.9.9 1"/><path id="Fill-16" class="st0" d="M10.8 17.9c.6-.1 1-.4 1-1 0-.5-.4-1.2-1-1.9-.6.8-1 1.4-.9 1.9 0 .6.3.9.9 1"/><path id="Fill-18" class="st0" d="M14.7 17.9c.6-.1 1-.4 1-1 0-.5-.4-1.2-1-1.9-.6.8-1 1.4-.9 1.9 0 .6.3.9.9 1"/></svg>