<svg width="185" height="40" fill="none" xmlns="http://www.w3.org/2000/svg"><path fill-rule="evenodd" clip-rule="evenodd" d="M58.517 14.056c-.072 4.65-.696 8.121-1.872 10.416-1.416 2.73-3.912 4.575-7.488 5.534l-1.818-3.217c2.88-.615 4.944-1.77 6.192-3.464 1.02-1.41 1.578-3.352 1.674-5.827h-8.28v3.87H43.99v-7.312h5.526v-3.464h2.934v3.464h6.066zm16.297 14.51H61.296v-3.261h5.328v-6.277h-4.428v-3.285h11.628v3.285h-4.41v6.277h5.4v3.262zM95.252 12.71l-1.445.642a17.147 17.147 0 00-1.255-3.233l1.464-.618c.494.935.906 2.005 1.236 3.209zm-1.962.98l-1.445.643a17.137 17.137 0 00-1.256-3.233l1.465-.618c.494.935.906 2.005 1.236 3.209zm.405 5.069h-3.438v1.26c0 2.64-.462 4.732-1.386 6.276-.948 1.605-2.544 2.902-4.789 3.892l-2.016-2.88c2.22-.884 3.69-1.866 4.41-2.946.625-.93.937-2.407.937-4.432v-1.17h-3.997v4.657h-2.844v-4.657h-3.33v-3.375h3.33v-4.027h2.844v4.027h3.997v-4.251h2.844v4.251h3.438v3.375zm17.532 2.7H95.819v-3.712h15.408v3.712zm16.363-4.477h-12.204V13.36h12.204v3.622zm1.728 10.326H113.73v-3.622h15.588v3.622zm17.461 1.17H132.27v-3.285h8.208l.432-5.984h-6.858V15.9h9.883l-.63 9.291h3.474v3.285zm18.45-7.02h-15.408v-3.711h15.408v3.712zm18.271 5.67l-2.376 2.497c-1.704-2.43-3.216-4.424-4.536-5.984-1.608 2.34-3.756 4.297-6.444 5.872l-2.089-2.835c2.497-1.38 4.447-2.992 5.851-4.837 1.308-1.74 2.304-3.914 2.988-6.524h-7.759V11.83h11.539c-.48 3.42-1.278 6.351-2.394 8.796a85.426 85.426 0 015.22 6.502zM4.289 20.535l-2.79 11.184 31.216 7.78 2.528-10.13H32.2l3.668-14.721h3.045L40.5 8.284 9.28.5 5.754 14.648s1.805 7.255 1.96 7.83c.24.896.34 1.869.34 2.208h.061c0-.305.12-1.305.341-2.206.26-1.056 1.953-7.832 1.953-7.832h3.419l1.953 7.867c.24.897.345 1.868.345 2.207h.06c0-.309.114-1.31.335-2.21l1.974-7.864h2.927l-3.67 14.72h-3.206l-2.095-8.342a10.622 10.622 0 01-.288-2.204h-.06c0 .507-.1 1.31-.32 2.21l-2.084 8.337H6.497l-2.208-8.834zm22.268-5.887l1.81 7.27c.224.894.453 2.158.383 2.587l.06.006 2.458-9.863h2.955l-3.672 14.72H27.26s-1.54-6.184-1.718-6.888c-.303-1.19-.657-2.9-.557-3.472h-.05l-2.585 10.36H19.4l3.671-14.72h3.485z" fill="#0C419A"/></svg>