<?xml version="1.0" encoding="utf-8"?>
<!-- Generator: Adobe Illustrator 19.2.1, SVG Export Plug-In . SVG Version: 6.00 Build 0)  -->
<!DOCTYPE svg PUBLIC "-//W3C//DTD SVG 1.1//EN" "http://www.w3.org/Graphics/SVG/1.1/DTD/svg11.dtd">
<svg version="1.1" id="レイヤー_1" xmlns="http://www.w3.org/2000/svg" xmlns:xlink="http://www.w3.org/1999/xlink" x="0px"
	 y="0px" viewBox="0 0 256 256" style="enable-background:new 0 0 256 256;" xml:space="preserve" width="256" height="256">
<style type="text/css">
	.st0{fill:#395185;}
	.st1{fill:#FFFFFF;}
</style>
<g>
	<path class="st0" d="M241.9,256c7.8,0,14.1-6.3,14.1-14.1V14.1C256,6.3,249.7,0,241.9,0H14.1C6.3,0,0,6.3,0,14.1v227.7
		c0,7.8,6.3,14.1,14.1,14.1H241.9"/>
	<path class="st1" d="M176.6,256v-99.1h33.3l5-38.6h-38.3V93.6c0-11.2,3.1-18.8,19.1-18.8l20.5,0V40.2c-3.5-0.5-15.7-1.5-29.8-1.5
		c-29.5,0-49.7,18-49.7,51.1v28.5h-33.4v38.6h33.4V256H176.6"/>
</g>
</svg>
