<?xml version="1.0" encoding="utf-8"?>
<!-- Generator: Adobe Illustrator 25.2.3, SVG Export Plug-In . SVG Version: 6.00 Build 0)  -->
<svg version="1.1" id="レイヤー_1" xmlns="http://www.w3.org/2000/svg" xmlns:xlink="http://www.w3.org/1999/xlink" x="0px"
	 y="0px" viewBox="0 0 100 100" style="enable-background:new 0 0 100 100;" xml:space="preserve">
<style type="text/css">
	.st0{fill-rule:evenodd;clip-rule:evenodd;fill:#010101;}
	.st1{fill-rule:evenodd;clip-rule:evenodd;fill:#66C8CF;}
	.st2{fill-rule:evenodd;clip-rule:evenodd;fill:#FFFFFF;}
	.st3{fill-rule:evenodd;clip-rule:evenodd;fill:#EE1D51;}
	.st4{fill-rule:evenodd;clip-rule:evenodd;fill:#EE1D52;}
	.st5{fill-rule:evenodd;clip-rule:evenodd;fill:#69C9D0;}
</style>
<rect class="st0" width="100" height="100"/>
<g id="TikTok">
	<path class="st1" d="M62,81.1L62,81.1L62,81.1h-0.9c-3,0-5.5,2.4-5.5,5.5c0,3,2.5,5.5,5.5,5.5h0.8h0H62c3,0,5.5-2.4,5.5-5.5
		C67.5,83.5,65,81.1,62,81.1z M61.9,89.2c-1.5,0-2.7-1.2-2.7-2.7c0-1.5,1.2-2.7,2.7-2.7c1.5,0,2.7,1.2,2.7,2.7
		C64.6,88,63.4,89.2,61.9,89.2z"/>
	<path class="st2" d="M20,78.6v2.8h3.2v10.6h3.2V81.4h2.6l0.9-2.8H20z M46.6,78.6v2.8h3.2v10.6h3.2V81.4h2.6l0.9-2.8H46.6z
		 M30.6,80.2c0-0.9,0.7-1.6,1.6-1.6c0.9,0,1.6,0.7,1.6,1.6s-0.7,1.6-1.6,1.6C31.4,81.7,30.6,81,30.6,80.2z M30.6,82.9h3.2v9.1h-3.2
		V82.9z M35.2,78.6v13.3h3.2v-3.4l1-0.9l3.1,4.4h3.4l-4.5-6.4l4-3.9h-3.8l-3.2,3.1v-6.2H35.2z M69.4,78.6v13.3h3.2v-3.4l1-0.9
		l3.1,4.4H80l-4.5-6.4l4-3.9h-3.8l-3.2,3.1v-6.2H69.4z"/>
	<path class="st3" d="M62.8,81.1H62c0,0,0,0,0,0c0,0,0,0,0,0h-0.1c-3,0-5.5,2.4-5.5,5.5c0,3,2.5,5.5,5.5,5.5H62c0,0,0,0,0,0
		c0,0,0,0,0,0h0.8c3,0,5.5-2.4,5.5-5.5C68.3,83.5,65.8,81.1,62.8,81.1z M61.9,89.2c-1.5,0-2.7-1.2-2.7-2.7c0-1.5,1.2-2.7,2.7-2.7
		c1.5,0,2.7,1.2,2.7,2.7C64.6,88,63.4,89.2,61.9,89.2z"/>
	<path class="st2" d="M62,92c3,0,5.5-2.4,5.5-5.5c0-3-2.5-5.5-5.5-5.5h-0.1c-3,0-5.5,2.4-5.5,5.5C56.4,89.6,58.8,92,62,92L62,92z
		 M59.2,86.5c0-1.5,1.2-2.7,2.7-2.7c1.5,0,2.7,1.2,2.7,2.7c0,1.5-1.2,2.7-2.7,2.7C60.4,89.2,59.2,88,59.2,86.5z"/>
</g>
<path class="st4" d="M76.7,26c-3.2-0.7-6.1-2.4-8.2-4.7c-2.2-2.4-3.7-5.6-4-9.1v-1.4h-3.1h-6.9h-1.2v44.5c0,5.2-4.2,9.4-9.4,9.4
	c-3.1,0-5.7-1.4-7.5-3.7c0,0-0.3-0.3-0.2-0.3c-1.2-1.6-1.8-3.4-1.8-5.5c0-5.2,4.2-9.4,9.4-9.4c1,0,1.9,0.1,2.9,0.4V34.8
	c-1.1-0.1-2.2-0.2-3.3-0.2h0C32.3,34.9,23.3,44,23.3,55.2c0,5.6,2.2,10.7,5.9,14.4c0,0,0,0,0,0c3.7,3.8,9,6.2,14.7,6.2
	c11.4,0,20.6-9.2,20.6-20.6V32.5c0,0,0,0,0,0h0v0c4.4,3.1,9.7,5,15.5,5V26.3C78.9,26.3,77.8,26.2,76.7,26z"/>
<path class="st5" d="M68.5,21.2L68.5,21.2c-3.7-2.3-6.3-6.1-7.1-10.5c-0.1-0.4-0.1-0.9-0.2-1.3V8H50v44.5c0,5.2-4.2,9.4-9.4,9.4
	c-1.5,0-3-0.4-4.2-1c-3.1-1.6-5.2-4.7-5.2-8.4c0-5.2,4.2-9.4,9.4-9.4c1,0,2,0.2,2.9,0.4V41c0,0,0,0,0,0v-6.4v-2.5
	c-0.9-0.1-1.9-0.2-2.8-0.2C29.2,31.9,20,41.1,20,52.5c0,7.1,3.6,13.4,9.1,17.1c0,0,0,0,0,0c3.3,2.2,7.2,3.5,11.5,3.5
	c11.4,0,20.6-9.2,20.6-20.6V29.8c4.4,3.1,9.7,5,15.5,5V23.6C73.8,23.6,71,22.8,68.5,21.2z"/>
<path class="st2" d="M61.2,29.8c4.4,3.1,9.7,5,15.5,5V26c-3.2-0.7-6.1-2.4-8.2-4.7c-3.7-2.3-6.3-6.1-7.1-10.5h-8.1v44.5
	c0,5.2-4.2,9.4-9.4,9.4c-3.1,0-5.8-1.5-7.5-3.7c-3.1-1.6-5.2-4.7-5.2-8.4c0-5.2,4.2-9.4,9.4-9.4c1,0,2,0.2,2.9,0.4v-8.9
	C32.3,34.9,23.3,44,23.3,55.2c0,5.6,2.2,10.7,5.9,14.4c3.3,2.2,7.2,3.5,11.5,3.5c11.4,0,20.6-9.2,20.6-20.6L61.2,29.8z"/>
</svg>
