<?xml version="1.0" encoding="utf-8"?>
<!-- Generator: Adobe Illustrator 19.2.1, SVG Export Plug-In . SVG Version: 6.00 Build 0)  -->
<!DOCTYPE svg PUBLIC "-//W3C//DTD SVG 1.1//EN" "http://www.w3.org/Graphics/SVG/1.1/DTD/svg11.dtd">
<svg version="1.1" id="レイヤー_1" xmlns="http://www.w3.org/2000/svg" xmlns:xlink="http://www.w3.org/1999/xlink" x="0px"
	 y="0px" viewBox="0 0 256 256" style="enable-background:new 0 0 256 256;" xml:space="preserve" width="256" height="256">
<style type="text/css">
	.st0{fill:#3ACE01;}
	.st1{fill:#FFFFFF;}
</style>
<g>
	<path class="st0" d="M241.9,256c7.8,0,14.1-6.3,14.1-14.1V14.1C256,6.3,249.7,0,241.9,0H14.1C6.3,0,0,6.3,0,14.1v227.7
		c0,7.8,6.3,14.1,14.1,14.1L241.9,256"/>
</g>
<g>
	<path class="st1" d="M128,47.5c47.5,0,86,30.8,86,68.9c0,13.3-4.7,25.7-12.8,36.2c-0.4,0.6-0.9,1.3-1.6,2l-0.1,0.1
		c-2.8,3.3-5.9,6.4-9.4,9.3c-23.8,22-62.9,48.2-68.1,44.1c-4.5-3.5,7.4-20.7-6.3-23.5c-1-0.1-1.9-0.2-2.9-0.4l0,0v0
		C72.6,178.5,42,150.3,42,116.4C42,78.3,80.5,47.5,128,47.5z"/>
	<path class="st0" d="M78.1,138.3h0.3h0.1h17c2.5,0,4.5-2,4.5-4.5v-0.4c0-2.5-2-4.5-4.5-4.5H83v-28.4c0-2.5-2-4.5-4.5-4.5h-0.4
		c-2.5,0-4.5,2-4.5,4.5v33.3C73.6,136.3,75.6,138.3,78.1,138.3L78.1,138.3z M185.6,117.5v-0.4c0-2.5-2-4.5-4.5-4.5h-12.5v-7.1h12.5
		c2.5,0,4.5-2,4.5-4.5v-0.4c0-2.5-2-4.5-4.5-4.5h-17H164h-0.3c-2.5,0-4.5,2-4.5,4.5v33.3c0,2.5,2,4.5,4.5,4.5h0.3h0.1h17
		c2.5,0,4.5-2,4.5-4.5v-0.4c0-2.5-2-4.5-4.5-4.5h-12.5V122h12.5C183.6,122,185.6,120,185.6,117.5L185.6,117.5z M152.2,137L152.2,137
		c0.8-0.8,1.3-1.9,1.3-3.1v-33.3c0-2.5-2-4.5-4.5-4.5h-0.4c-2.5,0-4.5,2-4.5,4.5v19.5L128,98.4c-0.8-1.4-2.2-2.3-3.9-2.3h-0.4
		c-2.5,0-4.5,2-4.5,4.5v33.3c0,2.5,2,4.5,4.5,4.5h0.4c2.5,0,4.5-2,4.5-4.5V114l16.3,22.3c0.1,0.2,0.2,0.3,0.3,0.4l0,0
		c0.4,0.6,1.1,1,1.7,1.3c0.5,0.2,1.1,0.3,1.7,0.3h0.4c0.8,0,1.5-0.2,2.1-0.5C151.6,137.6,152,137.3,152.2,137L152.2,137z M108,138.3
		h0.4c2.5,0,4.5-2,4.5-4.5v-33.3c0-2.5-2-4.5-4.5-4.5H108c-2.5,0-4.5,2-4.5,4.5v33.3C103.6,136.3,105.6,138.3,108,138.3z"/>
</g>
</svg>
