<?xml version="1.0" encoding="utf-8"?>
<!-- Generator: Adobe Illustrator 27.9.0, SVG Export Plug-In . SVG Version: 6.00 Build 0)  -->
<svg version="1.1" id="レイヤー_1" xmlns="http://www.w3.org/2000/svg" xmlns:xlink="http://www.w3.org/1999/xlink" x="0px"
	 y="0px" viewBox="0 0 256 256" style="enable-background:new 0 0 256 256;" xml:space="preserve">
<style type="text/css">
	.st0{fill:#FFFFFF;}
</style>
<g>
	<path d="M241.9,256c7.8,0,14.1-6.3,14.1-14.1V14.1C256,6.3,249.7,0,241.9,0H14.1C6.3,0,0,6.3,0,14.1v227.7
		c0,7.8,6.3,14.1,14.1,14.1L241.9,256"/>
</g>
<path class="st0" d="M141.1,118.4L187.9,65h-11.1l-40.6,46.3L103.8,65H66.4l49.1,70.1L66.4,191h11.1l42.9-48.9l34.3,48.9H192
	L141.1,118.4L141.1,118.4z M125.9,135.7l-5-7L81.4,73.2h17l31.9,44.8l5,7l41.5,58.2h-17L125.9,135.7L125.9,135.7z"/>
</svg>
