<?xml version="1.0" encoding="utf-8"?>
<!-- Generator: Adobe Illustrator 19.2.1, SVG Export Plug-In . SVG Version: 6.00 Build 0)  -->
<!DOCTYPE svg PUBLIC "-//W3C//DTD SVG 1.1//EN" "http://www.w3.org/Graphics/SVG/1.1/DTD/svg11.dtd">
<svg version="1.1" id="レイヤー_1" xmlns="http://www.w3.org/2000/svg" xmlns:xlink="http://www.w3.org/1999/xlink" x="0px"
	 y="0px" viewBox="0 0 256 256" style="enable-background:new 0 0 256 256;" xml:space="preserve">
<style type="text/css">
	.st0{fill:url(#SVGID_1_);}
	.st1{opacity:0.12;fill:#420000;enable-background:new    ;}
	.st2{fill:#FFFFFF;}
	.st3{fill:url(#SVGID_2_);}
</style>
<g>
	
		<linearGradient id="SVGID_1_" gradientUnits="userSpaceOnUse" x1="128" y1="258" x2="128" y2="2" gradientTransform="matrix(1 0 0 -1 0 258)">
		<stop  offset="0" style="stop-color:#E52D27"/>
		<stop  offset="1" style="stop-color:#BF171D"/>
	</linearGradient>
	<path class="st0" d="M241.9,256c7.8,0,14.1-6.3,14.1-14.1V14.1C256,6.3,249.7,0,241.9,0H14.1C6.3,0,0,6.3,0,14.1v227.7
		c0,7.8,6.3,14.1,14.1,14.1L241.9,256"/>
</g>
<g>
	<g>
		<path class="st1" d="M109.8,101.4l41.7,27.8l5.8-3L109.8,101.4L109.8,101.4z"/>
		<path class="st2" d="M214,92.9c0,0-1.8-12.1-7-17.4c-6.6-7-14.1-7-17.6-7.4c-24.5-1.8-61.3-1.8-61.3-1.8l0,0c0,0-36.9,0-61.5,1.8
			c-3.4,0.4-10.9,0.4-17.6,7.4C43.6,80.7,42,92.8,42,92.8s-1.8,14.3-1.8,28.5v13.3c0,14.2,1.8,28.4,1.8,28.4s1.8,12.1,7,17.4
			c6.6,7,15.5,6.8,19.4,7.5c14.1,1.4,59.8,1.8,59.8,1.8s37-0.1,61.5-1.8c3.4-0.4,10.9-0.4,17.6-7.4c5.3-5.3,7-17.4,7-17.4
			s1.8-14.2,1.8-28.4v-13.3C215.8,107.1,214,92.9,214,92.9L214,92.9z M109.8,150.8v-49.3l47.5,24.8L109.8,150.8L109.8,150.8z"/>
		
			<linearGradient id="SVGID_2_" gradientUnits="userSpaceOnUse" x1="109.8375" y1="131.9447" x2="157.3385" y2="131.9447" gradientTransform="matrix(1 0 0 -1 0 258)">
			<stop  offset="0" style="stop-color:#E52D27"/>
			<stop  offset="1" style="stop-color:#E02A26"/>
		</linearGradient>
		<path class="st3" d="M109.8,150.8l47.5-24.6l-47.5-24.8V150.8L109.8,150.8z"/>
	</g>
</g>
</svg>
